<?xml version="1.0" standalone="no"?>
<!DOCTYPE svg PUBLIC "-//W3C//DTD SVG 20010904//EN"
 "http://www.w3.org/TR/2001/REC-SVG-20010904/DTD/svg10.dtd">
<svg version="1.0" xmlns="http://www.w3.org/2000/svg"
 width="465.000000pt" height="465.000000pt" viewBox="0 0 465.000000 465.000000"
 preserveAspectRatio="xMidYMid meet">
<metadata>
Created by potrace 1.14, written by Peter Selinger 2001-2017
</metadata>
<g transform="translate(0.000000,465.000000) scale(0.100000,-0.100000)"
fill="#000000" stroke="none">
<path d="M2182 3607 c-11 -15 -10 -57 2 -77 6 -9 1 -7 -12 4 -22 19 -22 19
-22 0 0 -16 -2 -16 -10 -4 -10 16 7 33 23 23 5 -3 4 4 -2 16 -14 25 -23 28
-14 5 4 -12 2 -15 -8 -12 -8 3 -13 12 -11 19 2 9 -3 7 -17 -5 -11 -10 -24 -15
-29 -12 -6 3 -9 -4 -8 -17 3 -24 1 -25 -44 -28 -45 -3 -61 1 -55 11 3 6 1 10
-4 10 -6 0 -11 -5 -11 -12 0 -6 -3 -8 -7 -5 -3 4 -12 2 -19 -4 -14 -11 -38 -3
-30 10 3 4 -2 8 -10 8 -10 0 -6 -9 13 -29 21 -22 24 -31 15 -40 -7 -7 -12 -8
-12 -2 0 5 -5 2 -11 -6 -9 -13 -10 -13 -6 0 2 8 10 14 16 13 23 -6 10 17 -19
32 -26 13 -29 13 -24 0 3 -8 10 -12 15 -9 5 3 9 0 9 -5 0 -14 -17 -14 -25 -1
-4 7 -12 7 -25 0 -14 -7 -21 -5 -34 13 -16 22 -17 22 -6 0 15 -33 12 -51 -5
-29 -8 11 -15 15 -15 10 0 -6 5 -15 12 -22 7 -7 8 -12 4 -12 -5 0 -3 -6 3 -13
8 -10 7 -14 -4 -14 -8 0 -12 4 -9 9 3 4 0 8 -6 8 -6 0 -9 4 -6 8 9 15 -9 31
-24 22 -12 -8 -12 -10 4 -10 41 0 4 -16 -51 -22 -17 -2 -19 -5 -11 -16 8 -9 8
-16 0 -24 -8 -8 -7 -14 5 -23 14 -11 14 -12 -1 -12 -9 0 -16 4 -16 9 0 5 -4 7
-10 3 -5 -3 -6 -13 -3 -23 8 -22 -1 -13 -17 17 -8 16 -9 21 -1 16 13 -8 43 13
36 25 -3 5 -16 3 -30 -3 -17 -8 -23 -18 -19 -29 3 -10 1 -18 -5 -18 -5 0 -12
8 -14 18 -4 14 -5 14 -6 -3 -1 -19 -3 -18 -22 5 -18 23 -19 23 -9 3 12 -25 2
-30 -19 -10 -8 6 -6 0 4 -15 16 -26 16 -28 1 -28 -10 0 -14 5 -10 11 4 8 0 8
-15 0 -12 -7 -26 -9 -31 -6 -5 3 -11 2 -14 -3 -5 -8 8 -12 49 -13 20 0 20 0 1
-15 -11 -8 -24 -14 -29 -14 -4 0 -5 -5 -1 -12 4 -7 3 -8 -4 -4 -13 8 -30 -22
-26 -47 1 -11 -1 -16 -4 -12 -4 4 -7 12 -7 18 0 7 -9 11 -18 9 -10 -2 -26 3
-35 10 -10 8 -13 9 -9 1 4 -6 3 -14 -3 -18 -5 -3 -10 -1 -10 6 0 7 -3 10 -6 6
-3 -3 -3 -11 1 -17 5 -8 10 -8 20 0 10 8 15 8 21 -1 4 -7 3 -9 -3 -6 -6 4 -16
0 -23 -8 -10 -12 -10 -15 1 -15 9 0 10 -3 3 -8 -6 -4 -14 -14 -17 -22 -4 -12
-6 -11 -6 3 -1 16 -5 15 -34 -7 -19 -15 -38 -26 -43 -26 -5 0 -1 5 8 11 11 6
15 16 11 27 -6 15 -5 16 13 2 17 -14 18 -14 6 2 -8 9 -20 14 -28 11 -11 -4
-12 -9 -5 -16 7 -7 5 -14 -6 -23 -14 -9 -15 -15 -5 -26 9 -12 9 -15 -3 -15 -8
0 -12 4 -9 9 3 4 0 8 -6 8 -6 0 -8 5 -4 12 5 7 3 8 -5 4 -7 -5 -10 -14 -7 -22
7 -17 1 -17 -27 -2 -19 10 -20 9 -9 -4 10 -13 9 -18 -5 -29 -15 -12 -16 -12
-10 6 6 17 5 18 -5 4 -7 -9 -20 -19 -28 -22 -8 -3 -3 -5 11 -4 15 2 34 9 43
16 13 11 19 12 29 2 9 -10 8 -11 -8 -5 -18 7 -19 6 -5 -12 14 -17 13 -18 -1
-7 -16 13 -29 8 -29 -9 0 -5 6 -6 13 -2 9 5 9 3 -1 -7 -11 -12 -14 -12 -22 1
-5 8 -12 11 -16 7 -4 -4 -17 -1 -29 7 -15 10 -26 11 -36 4 -11 -8 -11 -9 3 -4
10 3 21 -1 25 -9 8 -13 12 -15 33 -15 6 0 10 -5 10 -11 0 -5 -3 -8 -7 -6 -11
6 -43 -30 -35 -39 4 -5 0 -3 -10 4 -11 9 -18 10 -23 2 -3 -5 -13 -10 -21 -10
-8 0 -12 5 -9 10 4 6 12 7 18 3 7 -3 4 3 -6 14 -9 11 -14 23 -10 28 5 4 2 5
-5 1 -8 -5 -10 -12 -3 -19 8 -11 -9 -38 -24 -37 -20 1 -25 -1 -25 -8 0 -5 7
-9 15 -9 8 0 12 4 10 8 -3 4 2 6 12 5 17 -3 28 -36 12 -36 -5 0 -9 3 -9 8 0 4
-14 8 -30 8 -24 1 -28 -1 -20 -11 9 -11 7 -12 -9 -8 -13 3 -24 -3 -35 -20 -18
-27 -12 -59 9 -51 8 3 11 12 8 20 -3 8 -1 14 5 14 6 0 9 -7 8 -16 -3 -17 -26
-35 -37 -28 -4 2 -10 0 -14 -6 -3 -5 -1 -10 4 -10 6 0 11 -5 11 -11 0 -8 -5
-8 -15 1 -12 10 -18 10 -30 0 -8 -7 -12 -16 -9 -21 3 -5 2 -9 -3 -8 -4 1 -16
-1 -26 -6 -17 -7 -17 -8 0 -22 16 -13 16 -13 -5 -3 -13 6 -30 9 -38 6 -28 -11
-13 4 19 18 17 8 26 15 19 15 -7 1 -10 5 -7 11 4 6 -1 7 -11 3 -13 -5 -14 -8
-5 -11 8 -3 4 -9 -11 -17 -14 -7 -28 -8 -35 -3 -7 6 -14 4 -19 -3 -4 -7 -3 -9
4 -5 9 5 33 -24 36 -44 1 -3 5 -4 11 -2 5 2 4 -2 -3 -10 -11 -11 -14 -10 -22
2 -5 8 -7 17 -4 21 2 4 -1 11 -7 15 -8 4 -9 3 -5 -4 6 -11 -27 -36 -36 -27 -3
3 -5 -1 -5 -8 0 -8 6 -14 13 -14 7 0 11 3 9 7 -2 4 2 7 9 7 8 0 12 -7 8 -15
-4 -11 -2 -13 9 -7 11 7 11 5 -1 -10 -14 -17 -13 -18 3 -12 11 4 16 3 12 -3
-4 -6 -12 -9 -18 -8 -18 3 -58 -22 -52 -32 3 -5 -1 -22 -9 -37 -8 -16 -15 -22
-16 -15 0 7 -5 10 -10 7 -8 -5 -7 -12 2 -23 10 -14 10 -15 -2 -4 -17 14 -30
16 -30 3 0 -5 9 -13 21 -16 11 -4 18 -9 16 -12 -3 -2 -15 1 -28 7 -19 10 -21
10 -16 -3 4 -11 0 -14 -16 -10 -18 4 -19 3 -7 -6 9 -7 10 -11 3 -11 -6 0 -15
5 -19 11 -4 8 -9 7 -15 -2 -4 -7 -11 -10 -15 -6 -10 10 -1 17 26 22 33 6 46
21 32 38 -7 8 -9 16 -6 20 3 3 1 14 -6 24 -10 16 -10 16 -5 -5 4 -15 1 -24 -9
-28 -9 -3 -16 -15 -16 -26 0 -10 -4 -17 -9 -13 -9 5 -28 -34 -22 -44 2 -2 -11
-13 -28 -23 -27 -17 -29 -22 -19 -41 10 -20 10 -21 -6 -8 -9 8 -19 11 -23 7
-3 -3 -1 -6 6 -6 7 0 3 -12 -10 -30 -12 -16 -27 -26 -33 -22 -17 10 -35 11
-41 2 -3 -5 4 -7 16 -5 15 3 19 0 15 -10 -3 -8 -1 -15 5 -15 6 0 7 -5 4 -10
-4 -6 -11 -8 -16 -5 -5 3 -6 -1 -3 -10 4 -10 2 -15 -7 -13 -7 2 -19 -10 -27
-25 -7 -16 -20 -31 -28 -34 -8 -3 -11 -9 -8 -14 3 -5 -5 -9 -18 -10 -22 0 -22
-1 -3 -9 13 -6 15 -9 5 -9 -13 -1 -13 -2 0 -11 11 -7 11 -10 2 -10 -7 0 -10
-4 -7 -10 3 -5 1 -10 -5 -10 -7 0 -9 -7 -6 -16 3 -8 2 -13 -3 -10 -5 3 -12 -1
-15 -10 -3 -8 -2 -13 2 -10 5 3 9 -8 9 -24 0 -24 -3 -27 -14 -19 -7 6 -10 15
-7 20 3 5 1 9 -5 9 -5 0 -13 -4 -16 -10 -3 -5 -2 -10 3 -10 5 0 9 -7 9 -15 0
-10 -6 -13 -18 -10 -13 5 -17 1 -16 -15 1 -11 5 -20 10 -20 4 0 5 -5 2 -10 -5
-8 -11 -7 -21 1 -9 7 -14 8 -14 1 0 -6 6 -13 13 -15 9 -4 9 -8 -2 -15 -11 -8
-9 -11 8 -17 22 -7 28 -29 11 -40 -13 -8 -13 -25 1 -25 5 0 8 4 4 9 -3 5 -1
12 4 15 5 4 12 2 16 -4 4 -6 11 -8 16 -4 6 4 5 10 -4 17 -22 18 -27 44 -12 57
11 9 18 9 29 -3 8 -8 12 -18 8 -21 -4 -4 6 -3 20 3 15 6 30 6 32 2 7 -11 46
-21 44 -12 -2 19 3 24 12 11 5 -8 10 -10 10 -4 0 6 -8 18 -17 25 -9 8 -14 9
-10 3 11 -19 -26 -27 -40 -8 -6 9 -18 14 -25 11 -7 -2 -21 0 -31 5 -14 7 -24
5 -38 -8 -10 -9 -19 -12 -19 -6 0 18 43 43 54 32 13 -13 36 -13 36 0 0 5 -6 7
-13 4 -8 -3 -13 4 -14 17 -2 16 1 18 11 10 10 -9 15 -7 21 6 6 17 7 17 22 -2
13 -16 15 -17 10 -2 -7 20 -3 21 24 6 19 -10 20 -9 9 10 -6 12 -7 21 -3 20 4
-1 10 0 13 1 3 1 24 4 48 6 38 5 44 3 49 -16 5 -20 8 -18 24 16 10 22 18 46
19 55 0 8 6 21 13 29 6 8 3 7 -9 -3 -23 -19 -40 -12 -20 8 15 15 95 15 97 0 1
-5 1 -14 0 -19 -1 -5 5 -4 13 4 13 10 16 10 16 0 0 -8 2 -11 5 -9 9 10 -8 49
-21 49 -8 0 -14 5 -14 11 0 18 -30 41 -45 35 -8 -3 -12 -13 -10 -24 2 -11 -2
-19 -11 -19 -10 0 -11 4 -3 14 6 7 8 13 4 13 -4 0 -2 6 4 14 15 18 51 28 48
13 -1 -6 5 -11 13 -12 8 -1 14 -7 12 -14 -4 -20 18 -1 28 23 5 14 3 26 -7 38
-15 16 -48 14 -38 -3 3 -4 -4 -6 -15 -4 -11 2 -20 -1 -20 -6 0 -6 -4 -7 -10
-4 -5 3 -10 15 -10 26 0 11 -4 17 -10 14 -5 -3 -10 -1 -10 5 0 6 -5 8 -10 5
-6 -4 -5 4 1 19 7 14 16 23 20 20 5 -3 9 0 9 6 0 6 5 8 10 5 7 -4 9 5 6 27 -3
18 -3 27 0 21 3 -7 10 -13 15 -13 6 0 8 4 5 9 -4 5 2 8 11 7 10 -2 22 2 26 8
5 7 7 6 6 -4 -4 -37 0 -43 18 -29 11 10 14 10 9 2 -7 -13 3 -17 34 -14 13 2
13 0 1 -8 -10 -6 -21 -6 -34 0 -15 9 -18 7 -16 -8 2 -10 0 -23 -4 -29 -4 -7 0
-14 8 -18 10 -3 15 1 16 12 0 14 2 14 8 -3 5 -11 7 -23 4 -27 -7 -13 47 -21
61 -9 7 6 15 8 19 5 3 -3 3 3 0 14 -2 11 0 23 6 26 6 4 11 2 11 -3 0 -6 5 -11
10 -11 6 0 10 10 10 23 0 12 -4 17 -8 12 -13 -19 -78 -2 -66 17 3 5 12 1 20
-9 9 -12 12 -13 9 -3 -3 9 4 21 16 28 12 8 18 9 14 3 -3 -6 -1 -11 6 -11 6 0
18 -8 26 -17 8 -10 12 -12 8 -5 -9 17 -2 15 25 -8 24 -21 46 -27 35 -11 -3 5
5 17 17 25 12 9 18 16 12 16 -5 0 -15 -5 -22 -12 -9 -9 -12 -9 -12 -1 0 7 9
15 20 18 11 3 20 9 21 13 3 29 10 46 25 63 9 10 12 19 6 19 -6 0 -12 -6 -15
-12 -7 -21 -17 -4 -10 20 3 12 9 19 14 16 14 -8 50 16 42 29 -5 9 -3 9 8 1 8
-6 22 -11 31 -11 14 0 15 3 6 14 -8 10 -8 17 1 26 10 9 11 8 5 -7 -6 -16 -5
-17 14 -7 24 13 67 -2 57 -20 -4 -5 -1 -9 5 -9 6 0 8 -5 4 -11 -4 -8 -9 -7
-15 2 -4 7 -5 17 -2 22 3 5 0 8 -8 5 -8 -3 -14 -11 -14 -19 0 -9 -10 -13 -29
-12 -24 2 -27 -1 -23 -18 4 -15 2 -18 -7 -10 -9 8 -13 7 -13 -4 0 -8 5 -15 10
-15 6 0 7 -3 4 -7 -4 -3 -2 -12 3 -18 8 -9 4 -12 -15 -10 -14 2 -28 -2 -32 -7
-4 -7 -1 -8 8 -3 11 6 11 5 2 -5 -14 -15 -34 -4 -26 15 3 8 0 15 -5 15 -6 0
-9 -12 -6 -26 3 -16 1 -23 -6 -19 -5 3 -10 -3 -10 -14 0 -10 6 -22 13 -25 6
-3 2 -3 -10 0 -16 3 -25 -1 -35 -18 -7 -13 -12 -26 -11 -29 1 -3 -4 -6 -12 -6
-8 0 -12 4 -9 9 3 4 -4 8 -16 8 -12 0 -19 4 -16 8 3 5 -2 9 -10 9 -10 0 -11
-4 -4 -11 5 -5 10 -21 10 -34 0 -18 4 -22 13 -16 7 5 4 1 -8 -10 -11 -10 -20
-23 -20 -30 0 -6 -6 -12 -12 -12 -7 -1 -17 -2 -23 -3 -5 0 -10 -8 -10 -16 0
-8 -7 -15 -15 -15 -8 0 -15 -5 -15 -11 0 -5 -5 -7 -12 -3 -7 4 -8 3 -4 -4 4
-7 2 -12 -4 -12 -6 0 -8 -4 -5 -10 3 -5 -1 -10 -10 -10 -9 0 -13 5 -9 11 3 6
0 15 -7 20 -17 11 -39 12 -24 1 6 -4 16 -20 24 -37 l13 -30 24 28 c17 20 28
26 37 19 19 -14 49 -23 42 -12 -3 6 -1 10 4 10 6 0 11 5 11 11 0 8 -5 7 -16
-1 -12 -11 -18 -10 -32 3 -9 10 -11 17 -5 17 6 0 14 -6 16 -12 4 -10 8 -10 15
1 8 12 14 12 25 3 11 -10 18 -7 33 11 l19 22 -25 -20 c-15 -12 -20 -14 -12 -4
6 9 9 19 6 22 -4 3 5 4 19 1 20 -3 29 1 37 18 11 22 10 22 -4 4 -9 -11 -16
-16 -16 -11 0 5 7 17 17 27 18 20 5 25 -17 6 -12 -11 -12 -10 -2 3 6 9 10 18
7 21 -3 3 3 11 12 19 17 13 17 13 3 -5 -14 -18 -13 -19 3 -13 10 4 16 3 14 -1
-3 -4 1 -12 8 -19 11 -10 14 -10 18 0 2 7 8 8 13 4 10 -9 -16 -28 -28 -21 -4
3 -8 1 -8 -4 0 -19 57 -36 67 -20 3 6 1 8 -5 4 -6 -3 -13 -2 -17 4 -8 13 12
50 28 50 7 0 8 -3 2 -8 -20 -14 -15 -30 8 -25 18 4 19 3 7 -6 -8 -6 -10 -11
-5 -11 14 0 43 20 30 20 -5 0 -3 6 5 13 20 16 24 38 8 50 -9 6 -7 7 7 2 11 -4
26 -8 33 -8 13 0 6 -11 -9 -13 -22 -3 -23 -5 -9 -14 10 -6 11 -10 3 -10 -7 0
-13 -5 -13 -10 0 -6 3 -9 8 -9 4 1 14 1 22 0 13 -1 13 -2 0 -11 -9 -5 -19 -5
-26 1 -8 7 -14 6 -19 -1 -3 -5 -2 -10 4 -10 6 0 7 -7 4 -17 -5 -12 -3 -14 7
-8 9 5 11 4 6 -3 -6 -11 5 -16 26 -14 3 1 9 -5 12 -14 3 -9 2 -12 -5 -9 -11 7
-39 -12 -39 -26 0 -5 11 -7 24 -5 18 3 23 1 19 -10 -3 -8 0 -14 7 -14 6 0 8
-5 4 -11 -4 -8 -11 -4 -19 11 l-13 23 -24 -24 c-24 -24 -55 -32 -51 -13 1 6
-5 11 -13 11 -7 0 -14 -4 -14 -9 0 -4 5 -8 11 -8 6 0 9 -6 6 -14 -3 -7 0 -19
6 -25 9 -9 5 -11 -17 -7 -16 3 -26 2 -22 -1 14 -14 45 -12 57 4 12 14 12 16
-1 9 -8 -4 -6 0 4 8 11 9 23 16 28 16 4 0 7 5 6 11 -4 18 19 22 25 5 4 -9 1
-15 -6 -13 -7 1 -10 -5 -9 -13 2 -8 0 -12 -3 -8 -10 10 -48 -39 -41 -51 7 -10
37 -9 36 2 0 4 0 10 0 13 0 4 -7 1 -15 -6 -10 -8 -15 -9 -15 -2 0 6 10 16 21
23 15 8 19 8 15 0 -4 -6 -2 -11 3 -11 6 0 10 -11 9 -24 -2 -17 -7 -22 -23 -19
-11 2 -14 1 -7 -3 6 -3 12 -12 12 -20 0 -9 4 -12 10 -9 6 3 7 -1 4 -9 -3 -9
-2 -16 4 -16 11 0 38 30 35 39 -2 3 3 6 10 6 6 1 11 7 9 14 -1 7 2 9 9 6 8 -5
8 -10 0 -18 -17 -17 -13 -27 7 -21 13 5 14 4 3 -4 -9 -7 -10 -12 -2 -16 6 -4
8 -12 5 -18 -5 -8 -1 -9 11 -4 15 5 16 4 5 -9 -11 -14 -7 -19 13 -16 5 1 4 -6
-1 -16 -12 -21 -39 -25 -46 -7 -4 12 -2 12 15 4 20 -11 20 -11 4 19 -8 17 -18
31 -21 31 -2 0 0 -9 6 -20 8 -16 8 -18 -4 -14 -9 3 -14 11 -13 17 1 6 -10 11
-25 11 -19 -1 -29 5 -33 17 -4 11 -11 19 -16 19 -6 0 -3 -10 5 -22 22 -30 20
-41 -3 -26 -11 7 -17 17 -14 23 3 5 0 4 -8 -2 -7 -7 -23 -13 -36 -13 -14 0
-23 -6 -23 -16 0 -8 -5 -12 -11 -8 -6 3 -3 -5 6 -20 9 -14 21 -23 26 -20 5 3
9 -3 10 -13 0 -14 2 -15 6 -3 3 8 11 18 16 22 7 4 7 11 1 20 -5 8 -2 6 8 -4
24 -26 31 -22 12 7 -9 14 -12 25 -6 25 6 0 16 -8 21 -17 8 -15 11 -15 12 -3 0
8 5 4 9 -10 l8 -25 1 28 c1 15 5 27 10 27 4 0 7 -12 5 -27 -2 -18 4 -32 17
-41 16 -11 17 -17 8 -35 -9 -16 -9 -22 0 -25 6 -2 8 -8 5 -13 -4 -6 -10 -6
-18 0 -8 7 -17 6 -26 -1 -12 -8 -12 -9 2 -4 10 3 20 1 23 -4 4 -6 -1 -10 -9
-10 -8 0 -18 -5 -22 -12 -4 -7 -3 -8 5 -4 6 4 18 3 26 -4 9 -7 15 -8 20 0 3 5
1 10 -6 10 -7 0 -2 12 12 26 16 18 20 28 12 31 -20 7 -15 22 5 18 11 -2 19 3
19 10 0 8 -5 11 -11 8 -6 -4 -5 1 3 10 7 9 19 17 25 17 6 0 4 -5 -4 -10 -8 -5
-10 -10 -4 -10 7 0 15 -7 18 -16 3 -8 2 -12 -3 -9 -5 3 -12 1 -16 -5 -3 -5 -2
-10 2 -10 5 0 9 -9 10 -20 2 -22 -12 -27 -23 -9 -12 21 -26 -19 -14 -41 13
-25 16 -25 16 -1 0 11 -4 17 -8 15 -4 -3 -8 -1 -8 5 0 5 13 8 29 6 24 -3 29 0
25 13 -4 12 -2 11 7 -2 9 -15 9 -21 1 -24 -7 -2 -9 -9 -5 -15 4 -7 -1 -6 -10
2 -23 19 -34 6 -13 -15 12 -11 14 -20 7 -28 -13 -16 15 -59 31 -50 8 5 9 1 5
-10 -4 -10 -1 -19 9 -23 8 -3 13 -12 10 -19 -3 -7 3 -18 12 -24 15 -10 15 -11
-3 -5 -11 3 -16 3 -12 -1 4 -4 2 -13 -5 -21 -9 -11 -8 -13 3 -11 8 2 13 -2 12
-9 -3 -13 22 -12 34 2 4 4 2 5 -6 0 -10 -5 -12 -4 -7 4 4 6 12 9 17 5 5 -3 7
-10 4 -15 -4 -5 -1 -9 4 -9 6 0 11 -5 11 -11 0 -5 -4 -8 -8 -5 -4 2 -8 -4 -8
-15 0 -18 2 -19 12 -4 10 14 12 14 18 0 3 -8 2 -15 -2 -15 -4 0 -13 -10 -21
-22 l-14 -23 25 23 c24 22 44 30 34 14 -3 -5 8 -19 25 -31 29 -21 31 -48 3
-37 -7 3 -16 1 -19 -4 -3 -4 7 -7 21 -5 19 2 28 -3 31 -15 4 -16 9 -17 34 -8
16 5 29 14 29 20 0 5 -5 6 -12 2 -7 -5 -8 -3 -3 6 6 10 4 12 -8 7 -10 -4 -14
-2 -11 7 3 7 11 13 19 13 8 0 11 -5 8 -10 -4 -6 0 -8 10 -4 10 4 16 2 14 -5
-1 -6 4 -13 11 -15 6 -3 12 0 12 6 0 6 5 11 11 11 8 0 8 -4 0 -14 -10 -12 -8
-17 11 -27 13 -7 27 -12 31 -11 5 1 6 -2 2 -8 -3 -6 -11 -7 -17 -4 -8 5 -9 1
-4 -12 7 -18 6 -18 -12 1 -11 11 -18 23 -15 27 2 4 -6 12 -18 18 -17 10 -20 9
-14 -1 6 -8 4 -10 -5 -4 -9 5 -11 4 -6 -3 5 -8 2 -10 -8 -6 -9 3 -16 1 -16 -6
0 -6 5 -8 10 -5 6 3 10 -1 10 -9 0 -19 11 -21 27 -5 8 8 15 4 27 -12 l16 -23
25 24 c14 13 25 20 25 15 0 -4 -11 -18 -26 -31 -14 -13 -21 -24 -16 -24 5 0
15 6 22 14 6 8 19 12 27 9 10 -4 14 -2 10 4 -3 5 0 10 8 10 8 0 15 -4 15 -9 0
-4 -4 -8 -10 -8 -5 0 -10 -5 -10 -11 0 -5 5 -7 10 -4 6 3 10 2 10 -3 0 -20
-14 -20 -31 1 -10 12 -19 18 -20 12 -6 -37 -5 -55 2 -55 5 0 9 5 9 11 0 6 6 9
13 6 6 -2 22 -1 34 4 14 5 25 3 33 -6 8 -10 17 -12 29 -5 13 6 20 3 29 -11 12
-18 11 -19 -9 -7 -17 10 -23 10 -26 1 -3 -7 -9 -13 -14 -13 -6 0 -7 5 -3 12 5
7 3 8 -6 3 -8 -5 -11 -4 -7 1 3 6 -3 10 -13 11 -11 1 -22 -2 -25 -8 -4 -5 2
-6 11 -2 13 5 15 3 8 -8 -15 -24 -13 -38 4 -32 9 4 13 2 9 -4 -3 -5 1 -10 10
-10 13 0 11 4 -6 18 -12 10 -17 20 -12 23 5 4 18 -5 29 -19 11 -13 22 -21 26
-18 12 12 6 -13 -6 -27 -11 -12 -10 -12 3 -2 9 6 19 9 23 5 4 -4 4 1 0 12 -5
16 -4 18 6 8 7 -6 19 -9 26 -6 8 3 14 1 14 -5 0 -6 -6 -13 -12 -15 -10 -4 -10
-6 -1 -6 6 -1 15 4 19 11 9 15 -23 37 -47 33 -11 -2 -17 0 -14 5 3 6 -1 7 -9
4 -9 -3 -16 -1 -16 4 0 19 17 22 31 6 12 -14 14 -14 27 3 14 17 14 17 8 0 -5
-15 -2 -17 17 -13 12 3 16 3 9 0 -6 -3 -9 -10 -6 -15 4 -6 11 -6 19 1 9 7 15
8 19 1 4 -6 14 -8 24 -5 13 5 14 4 3 -4 -8 -6 -10 -12 -3 -16 6 -4 16 2 22 11
9 14 10 15 7 2 -3 -9 -1 -21 4 -26 6 -6 4 -10 -5 -10 -8 0 -13 4 -10 9 8 13
-18 5 -35 -10 -11 -10 -11 -16 -2 -25 10 -9 12 -9 9 2 -2 7 3 16 11 19 10 3
13 -1 8 -17 -3 -11 -1 -19 4 -15 5 3 9 11 9 18 0 7 7 13 15 13 17 0 20 -13 5
-20 -6 -3 -5 -4 2 -3 7 2 20 -3 29 -11 37 -32 61 12 29 54 -14 17 -14 17 5 3
28 -21 34 -31 30 -52 -2 -10 0 -16 6 -13 5 4 9 1 9 -4 0 -6 5 -11 12 -11 9 0
9 3 1 11 -9 9 -6 17 12 31 26 20 48 17 39 -7 -3 -8 -15 -12 -27 -10 l-22 4 22
-18 c12 -10 20 -21 18 -23 -3 -3 2 -5 10 -5 11 0 12 4 4 14 -13 15 6 47 22 37
5 -3 9 3 10 13 0 17 1 17 8 0 4 -10 10 -18 14 -18 17 2 17 0 7 -20 -7 -11 -9
-23 -6 -26 3 -3 10 7 16 22 9 23 7 32 -7 49 -13 15 -14 17 -2 8 9 -6 19 -8 23
-4 4 4 7 2 6 -3 -5 -22 1 -36 12 -29 7 4 8 3 4 -5 -4 -6 -13 -8 -19 -5 -7 4
-9 3 -4 -1 4 -5 0 -20 -9 -34 l-15 -26 19 22 c11 12 23 19 27 15 5 -4 5 -1 1
6 -4 6 -3 12 3 12 5 0 15 -8 20 -18 6 -9 11 -12 11 -6 0 5 -5 15 -12 22 -9 9
-8 12 7 13 11 1 26 1 34 0 8 -2 10 2 5 11 -5 9 -2 8 11 -2 17 -14 17 -13 11
10 l-7 25 14 -24 c11 -18 16 -20 20 -10 3 8 4 3 3 -11 -1 -14 -5 -31 -9 -37
-4 -6 -2 -15 4 -19 7 -4 9 -3 5 4 -3 6 -2 13 4 17 5 3 10 1 10 -6 0 -7 3 -9 6
-6 4 4 1 13 -5 21 -8 9 -8 16 -2 20 6 4 7 14 4 24 -4 13 -2 13 10 -3 9 -11 16
-24 17 -30 0 -5 -5 -3 -10 5 -5 8 -10 11 -10 5 0 -5 5 -17 10 -25 7 -11 10
-11 10 -2 0 7 4 11 9 8 5 -3 15 2 22 12 7 9 9 14 5 10 -11 -9 -36 10 -36 26 0
6 5 4 10 -4 5 -8 10 -11 10 -6 0 5 7 2 16 -5 15 -12 16 -11 10 11 l-7 25 14
-24 c8 -13 17 -19 20 -14 4 6 3 13 0 17 -4 4 -8 14 -9 22 -1 9 1 13 4 9 4 -4
7 -10 7 -13 0 -15 33 -53 37 -42 2 6 11 8 21 5 9 -4 14 -12 11 -17 -4 -6 -10
-5 -15 3 -6 10 -8 8 -7 -7 2 -18 5 -20 20 -10 10 6 18 13 18 16 0 3 9 6 20 7
11 1 20 -3 20 -8 0 -6 5 -7 11 -3 8 4 7 9 -2 16 -10 6 -7 7 9 3 14 -4 22 -2
22 6 0 8 4 9 13 0 10 -8 17 -7 27 2 10 10 12 8 6 -8 -6 -16 -5 -18 5 -7 11 10
10 16 -5 30 -11 9 -16 12 -13 6 3 -6 0 -11 -8 -11 -8 0 -15 4 -15 9 0 4 5 8
11 8 5 0 7 6 3 12 -5 7 8 1 27 -14 18 -15 33 -33 31 -40 -3 -10 -1 -10 10 1
10 10 10 15 1 18 -7 2 -9 12 -6 21 4 13 3 14 -5 3 -8 -11 -11 -9 -17 8 -3 12
-10 19 -14 17 -4 -3 -8 2 -8 11 0 13 4 11 18 -6 17 -21 37 -13 23 11 -5 7 -3
8 5 4 7 -5 10 -14 7 -22 -3 -8 1 -17 9 -20 8 -4 12 -10 9 -15 -3 -5 0 -9 6 -9
6 0 8 -5 4 -12 -4 -7 -3 -8 4 -4 9 5 9 13 2 27 -14 24 5 26 19 2 9 -16 10 -16
11 -2 0 17 -26 33 -39 24 -4 -2 -8 2 -8 9 0 19 38 12 53 -9 12 -17 16 -13 13
13 -1 4 -5 6 -9 5 -4 -1 -11 4 -14 13 -4 11 -2 12 14 4 10 -5 27 -7 37 -4 13
4 14 3 5 -4 -11 -7 -11 -10 3 -15 11 -5 14 -3 9 5 -5 7 -2 9 8 6 8 -4 15 0 15
8 0 7 -4 11 -9 8 -14 -9 -9 2 12 26 18 20 22 18 19 -7 -1 -5 -5 -7 -10 -5 -6
1 -5 -7 1 -18 12 -23 22 -27 14 -5 -4 10 0 13 16 10 12 -2 23 2 27 11 3 8 12
13 19 10 8 -3 13 -2 13 2 -3 21 3 24 16 6 15 -18 15 -18 8 0 -4 13 -3 17 5 12
8 -5 10 -1 5 10 -5 14 -3 16 12 11 17 -7 17 -6 0 19 -9 15 -12 23 -6 20 6 -4
11 -2 11 5 0 7 3 10 6 7 5 -5 7 -15 13 -47 1 -3 13 6 27 20 14 13 27 22 29 19
2 -3 6 -2 9 3 3 4 3 5 -1 2 -3 -3 -13 1 -21 8 -9 6 -13 8 -10 2 3 -5 0 -15 -7
-22 -10 -10 -14 -9 -19 3 -4 9 -2 12 5 8 7 -4 9 1 5 17 -3 13 -3 18 0 11 5
-10 9 -10 22 0 12 10 14 10 8 1 -5 -9 0 -13 13 -13 12 0 21 -4 21 -10 0 -5 5
-10 11 -10 8 0 9 4 0 13 -6 8 -7 18 -3 22 4 5 2 6 -3 2 -6 -3 -19 2 -30 10
-15 12 -16 14 -3 10 9 -3 18 -1 20 5 5 14 48 21 48 9 0 -6 -9 -8 -20 -6 -25 5
-25 3 0 -37 20 -33 28 -32 10 2 -12 22 15 37 27 16 7 -12 10 -12 21 0 9 10 9
14 1 14 -8 0 -7 5 2 17 12 15 12 16 -1 8 -8 -4 -12 -5 -8 0 4 4 3 14 -3 22
-16 18 -3 16 20 -3 11 -10 17 -23 14 -30 -3 -8 -1 -14 5 -14 11 0 11 18 -1 37
-4 6 -3 14 2 17 5 3 11 -1 15 -9 3 -8 13 -14 23 -14 17 1 17 2 1 6 -10 2 -18
13 -18 24 0 11 -4 18 -8 15 -5 -3 -9 1 -9 9 0 13 3 12 18 -1 10 -9 16 -21 13
-26 -3 -5 3 -4 15 4 12 7 21 19 21 26 0 8 6 12 13 9 6 -2 11 -10 9 -16 -1 -7
2 -10 8 -6 8 5 7 11 -1 21 -10 12 -8 16 9 21 12 3 22 10 22 15 0 13 -50 -19
-72 -46 -14 -16 -18 -18 -18 -5 0 9 11 22 25 29 13 7 22 18 18 23 -3 6 -2 7 3
4 13 -8 39 9 39 25 1 7 7 12 14 10 9 -2 11 3 7 13 -3 9 -2 13 4 10 6 -3 15 -3
22 1 8 5 6 10 -8 16 -18 8 -18 8 1 5 11 -2 19 -9 17 -16 -2 -10 4 -12 20 -7
41 13 53 12 50 -4 -2 -8 0 -11 4 -7 12 12 14 38 2 31 -6 -4 -8 -1 -6 7 3 8 10
13 16 12 6 -2 9 4 6 12 -4 8 -2 15 4 15 6 0 12 -6 15 -12 2 -8 8 -9 13 -4 5 5
4 11 -4 13 -6 3 -10 9 -6 14 3 5 13 5 22 1 26 -12 47 -9 48 8 2 32 17 60 28
53 6 -3 -2 9 -19 28 -16 18 -21 26 -9 16 20 -16 21 -16 31 5 6 13 10 27 11 32
0 5 7 13 16 18 8 5 13 14 10 22 -5 13 65 66 88 66 9 0 8 3 -2 10 -8 5 -10 10
-4 10 6 0 17 -7 24 -15 12 -14 7 -19 -13 -16 -13 2 -87 -42 -87 -51 0 -5 13
-2 30 7 16 8 33 15 36 14 4 0 11 5 15 13 5 8 9 9 9 2 0 -6 -7 -17 -15 -24 -16
-13 -11 -30 8 -30 7 0 6 4 -3 10 -9 6 -10 10 -3 10 6 0 15 10 18 21 6 17 9 19
16 8 5 -8 9 -9 9 -4 0 6 4 4 9 -3 7 -11 9 -11 14 2 4 9 3 15 -1 15 -19 -3 -33
2 -27 10 3 5 20 8 38 6 17 -3 27 -1 22 3 -15 10 -13 31 5 43 11 7 8 8 -12 3
-18 -4 -28 -2 -28 5 0 6 3 11 8 12 4 0 19 2 35 4 18 2 25 0 21 -7 -4 -6 -2 -8
4 -5 5 4 9 15 7 25 -2 9 -4 20 -4 23 -1 3 -8 6 -17 6 -15 0 -15 -1 0 -12 14
-11 15 -13 2 -18 -9 -4 -18 -2 -21 3 -4 7 -13 6 -26 0 -10 -6 -19 -7 -19 -3 0
4 -5 1 -10 -7 -7 -11 -10 -11 -10 -2 0 7 -5 10 -10 7 -6 -4 -7 -11 -4 -17 4
-7 2 -8 -4 -4 -7 4 -18 4 -24 -1 -7 -4 -25 -8 -40 -9 -20 -1 -25 3 -20 15 5
13 3 14 -10 3 -13 -10 -15 -9 -10 14 2 14 11 28 18 31 7 2 10 12 7 20 -5 11
-3 14 6 9 7 -5 10 -15 6 -23 -5 -13 -3 -14 10 -3 9 7 15 9 14 4 -4 -20 2 -24
21 -14 11 6 17 16 14 22 -4 7 -3 8 4 4 6 -3 16 2 22 13 7 13 7 22 0 26 -6 4
-8 11 -4 16 4 6 14 3 25 -7 19 -17 27 -40 10 -29 -5 3 -12 1 -15 -4 -4 -5 -2
-12 4 -16 18 -11 -1 -26 -23 -19 -18 5 -20 4 -10 -7 26 -27 66 -7 46 23 -4 7
-1 8 7 3 9 -6 11 -4 5 5 -5 9 -4 11 4 6 14 -9 11 15 -4 27 -6 5 -4 7 5 5 24
-4 60 21 54 37 -4 8 -1 15 5 15 6 0 10 -5 9 -11 -2 -6 3 -14 10 -16 11 -4 12
-1 4 13 -10 19 -12 26 -12 44 0 6 -6 5 -14 -2 -7 -7 -13 -23 -11 -35 2 -21
-17 -38 -29 -26 -11 11 -6 24 7 17 6 -4 9 -4 5 1 -4 4 -3 16 2 26 7 12 7 20 0
24 -5 3 -10 -1 -10 -10 0 -8 -7 -18 -15 -21 -8 -4 -12 -11 -9 -16 4 -6 1 -8
-7 -6 -8 3 -13 10 -12 15 1 5 -5 10 -13 10 -12 0 -12 -3 1 -17 15 -16 14 -17
-9 -17 -26 0 -28 15 -6 41 8 11 17 13 23 7 5 -5 16 -7 23 -4 12 4 12 8 2 21
-11 13 -10 15 3 10 9 -4 21 -2 27 4 6 6 12 6 17 -1 4 -7 17 0 36 19 32 31 31
50 -1 50 -13 0 -18 -6 -15 -18 2 -10 -1 -25 -6 -33 -6 -9 -8 0 -6 28 1 22 5
39 10 36 4 -2 11 6 16 19 6 13 10 17 10 11 1 -18 21 -16 21 2 0 8 5 15 11 15
5 0 8 4 4 9 -3 5 4 12 15 16 11 3 20 10 20 15 0 5 -8 7 -17 3 -10 -3 -15 -3
-11 1 12 14 55 13 55 0 0 -7 -4 -11 -9 -8 -4 3 -8 -2 -8 -11 0 -10 -6 -15 -13
-12 -8 3 -14 -1 -14 -9 0 -7 5 -10 10 -7 6 4 7 1 3 -6 -5 -7 -14 -10 -22 -7
-8 3 -11 0 -8 -8 6 -15 34 -17 35 -2 0 6 4 2 8 -8 8 -21 41 -31 41 -13 1 7 6
2 13 -11 7 -12 17 -19 22 -15 4 4 5 3 2 -3 -4 -6 -18 -10 -32 -9 -16 2 -23 -1
-19 -7 5 -7 2 -8 -7 -2 -26 16 -36 12 -36 -18 0 -22 4 -28 16 -23 11 3 10 0
-3 -10 -14 -11 -16 -15 -5 -15 11 0 11 -2 1 -9 -11 -6 -10 -11 3 -25 18 -18
30 -21 20 -6 -3 6 1 13 9 16 9 3 16 11 16 17 0 5 -9 2 -20 -8 -11 -10 -20 -14
-20 -8 0 5 9 18 20 28 11 10 20 14 20 10 0 -5 9 1 20 13 12 12 26 22 32 22 6
0 9 3 6 6 -4 3 -16 1 -27 -6 -12 -6 -21 -7 -21 -1 0 8 24 23 42 25 3 1 10 5
15 10 5 5 3 6 -4 2 -7 -4 -13 -2 -13 4 0 6 10 15 23 21 20 9 20 9 -5 4 -21 -4
-26 -2 -22 9 3 8 13 12 22 9 14 -4 14 -3 3 5 -11 8 -9 11 8 17 11 3 21 13 21
21 0 8 5 12 10 9 6 -4 7 -11 4 -17 -4 -6 -3 -8 3 -5 5 3 9 20 8 37 -2 25 1 29
17 24 10 -3 18 0 18 6 0 6 -4 8 -10 5 -5 -3 -10 1 -10 10 0 10 5 13 13 9 7 -5
6 0 -3 11 -14 17 -13 17 10 11 18 -5 21 -5 10 3 -8 5 -11 14 -6 18 4 4 14 -1
22 -11 8 -11 14 -15 14 -10 0 6 -5 15 -11 21 -8 8 -4 15 12 27 22 15 15 22
-15 17 -5 -1 -6 5 -3 13 4 9 1 13 -6 10 -9 -3 -14 8 -15 32 -2 27 0 34 10 28
8 -4 10 -3 5 2 -5 5 -13 10 -18 10 -5 1 -12 2 -15 3 -4 0 0 9 7 19 11 14 11
15 -1 5 -20 -18 -35 -16 -20 2 14 17 0 21 -17 4 -8 -8 -11 -4 -10 14 2 19 5
23 15 15 9 -8 11 -7 6 6 -3 9 -9 16 -13 17 -3 0 -13 2 -23 4 -9 2 -18 -5 -21
-16 -3 -10 -1 -17 4 -13 19 12 30 -8 12 -23 -10 -8 -13 -12 -7 -9 6 3 11 -1
11 -9 0 -10 -5 -11 -19 -4 -10 5 -18 16 -18 24 0 8 -5 15 -10 15 -6 0 -3 -15
6 -32 17 -32 16 -32 -1 -18 -15 12 -17 12 -10 1 6 -11 4 -13 -9 -8 -12 5 -16
3 -13 -5 2 -7 10 -12 17 -10 7 2 10 -3 7 -12 -4 -9 -2 -18 3 -21 6 -4 10 0 10
7 0 10 2 10 9 -1 7 -10 13 -11 30 -2 11 6 20 17 18 24 -1 7 4 11 11 9 6 -1 12
3 12 10 0 9 3 9 11 1 7 -7 6 -22 -6 -49 -15 -36 -17 -38 -30 -21 -13 18 -14
18 -24 -1 -8 -15 -8 -22 2 -26 6 -3 1 -3 -12 0 -17 5 -21 3 -16 -6 5 -9 4 -11
-3 -6 -7 4 -12 1 -12 -7 0 -8 7 -18 16 -21 10 -4 13 -13 9 -26 -4 -11 -2 -20
4 -20 6 0 3 -9 -6 -19 -9 -11 -21 -17 -26 -14 -6 3 -7 1 -3 -5 4 -7 2 -12 -5
-12 -7 0 -9 8 -6 21 3 12 3 18 0 15 -10 -10 -32 28 -23 39 8 10 10 16 10 36 0
5 4 8 9 4 6 -3 9 4 8 15 -1 12 -6 19 -14 16 -7 -3 -13 -1 -13 4 0 6 9 10 20
10 25 0 25 5 0 32 l-19 21 4 -21 c5 -28 -5 -34 -30 -16 -10 8 -13 14 -7 14 7
0 12 6 12 14 0 8 6 17 13 19 9 4 8 8 -3 16 -8 6 -16 15 -16 21 -1 5 -3 11 -4
13 -1 1 -4 12 -5 25 -1 15 2 21 10 18 7 -2 22 2 34 11 18 12 25 12 37 2 12
-10 15 -10 12 1 -2 8 2 14 9 15 6 0 15 4 20 8 4 5 4 8 -2 7 -22 -5 -32 1 -43
24 -7 17 -7 27 1 35 8 8 4 9 -12 6 -15 -3 -21 0 -18 8 3 7 10 11 17 9 11 -3
11 0 1 12 -10 12 -9 16 6 25 10 6 13 11 7 11 -6 0 -17 -7 -24 -15 -10 -12 -16
-13 -27 -3 -11 9 -13 8 -11 -3 2 -8 -3 -13 -10 -11 -8 1 -11 -2 -7 -8 3 -5 13
-10 21 -10 8 0 14 -5 14 -11 0 -5 -4 -8 -9 -4 -5 3 -12 1 -15 -4 -3 -5 8 -7
24 -6 16 1 27 -1 25 -6 -3 -4 -14 -6 -25 -4 -21 4 -46 -28 -35 -45 3 -5 1 -11
-5 -15 -6 -4 -7 -11 -4 -17 5 -8 1 -9 -12 -5 -18 7 -18 6 1 -9 16 -13 16 -15
3 -11 -10 3 -20 2 -23 -4 -8 -12 -25 -2 -24 14 0 8 2 8 6 -1 3 -8 12 -1 23 20
10 18 16 36 13 41 -2 4 0 7 5 7 5 0 9 13 9 29 l0 28 -33 -35 c-18 -20 -31 -40
-28 -44 3 -4 1 -8 -5 -8 -5 0 -11 6 -14 13 -2 6 -4 -1 -4 -18 0 -16 2 -24 4
-17 3 6 9 12 15 12 6 0 6 -6 -2 -15 -6 -8 -8 -20 -4 -27 23 -36 1 -84 -33 -71
-8 3 -11 -2 -8 -16 2 -12 0 -19 -5 -16 -5 3 -11 1 -15 -5 -3 -5 -1 -10 4 -10
6 0 11 -5 11 -11 0 -8 -6 -7 -16 2 -15 12 -16 11 -11 -6 5 -14 1 -24 -13 -33
-13 -8 -20 -8 -20 -1 0 5 -5 7 -11 3 -21 -13 19 -26 42 -13 17 8 20 8 14 -1
-5 -9 -1 -10 16 -5 20 7 22 5 12 -6 -9 -11 -6 -14 18 -13 49 2 51 3 45 20 -3
8 -2 12 4 9 6 -3 10 -3 10 2 0 4 -19 16 -41 27 -37 17 -38 19 -22 31 10 7 18
19 18 27 0 7 5 13 10 13 23 1 56 27 51 40 -3 9 0 12 9 9 14 -6 14 -39 -1 -39
-5 -1 -19 -6 -30 -13 -12 -6 -24 -9 -27 -6 -3 3 -4 -2 -3 -13 2 -10 -1 -23 -6
-30 -10 -12 16 -13 28 0 12 12 36 8 28 -5 -4 -6 -3 -8 4 -5 12 8 42 -2 42 -14
0 -4 -7 -6 -15 -3 -8 4 -15 1 -15 -6 0 -6 -4 -8 -10 -5 -14 9 -12 -8 3 -25 10
-12 9 -12 -5 -1 -16 12 -26 3 -15 -13 4 -7 -36 -46 -43 -41 -4 3 -10 -4 -13
-15 -4 -14 -11 -18 -24 -14 -15 5 -15 4 -3 -5 11 -7 19 -6 32 6 10 9 18 12 18
7 0 -16 -37 -33 -61 -29 -12 2 -18 1 -15 -3 4 -4 12 -7 18 -7 6 0 12 -8 14
-17 2 -16 0 -17 -19 -3 -24 17 -41 20 -32 6 6 -11 -44 -53 -55 -46 -5 3 -11 1
-15 -5 -4 -7 -12 -7 -24 0 -10 5 -20 7 -23 5 -3 -3 -5 2 -5 10 0 8 4 12 9 9 4
-3 8 0 8 6 0 6 5 8 10 5 6 -3 10 1 10 10 0 9 -4 13 -10 10 -5 -3 -10 -1 -10 4
0 6 3 11 8 11 12 0 34 -17 33 -25 -2 -11 30 -16 44 -7 6 4 11 15 12 25 3 59 2
57 32 52 17 -3 33 0 37 7 5 8 2 9 -9 5 -26 -10 -20 2 6 13 20 9 19 9 -8 7 -17
-1 -29 -7 -28 -14 2 -7 -4 -10 -13 -6 -13 5 -13 7 1 23 12 14 13 20 4 26 -8 4
-10 3 -5 -4 5 -9 0 -9 -17 -3 -14 6 -28 7 -31 4 -3 -4 -6 -1 -6 5 0 9 -4 9
-19 0 -19 -12 -23 -51 -7 -77 6 -10 5 -12 -2 -7 -7 4 -12 2 -12 -3 0 -6 -4
-10 -9 -9 -12 4 -60 -49 -52 -58 3 -4 0 -4 -8 1 -12 7 -11 10 3 21 12 8 14 14
6 19 -8 5 -6 13 7 28 16 19 16 20 1 14 -10 -3 -20 -1 -24 5 -4 6 -3 9 2 6 12
-8 35 17 26 28 -4 4 -2 4 5 0 7 -4 10 -13 6 -21 -6 -18 8 -20 25 -3 13 13 17
32 4 24 -4 -2 -16 2 -27 10 -10 8 -14 14 -9 14 6 0 16 -6 23 -12 11 -11 13
-10 8 4 -4 10 -3 17 1 16 17 -5 51 23 46 37 -4 8 -10 13 -14 10 -5 -3 -11 -1
-14 3 -3 5 -18 7 -32 4 -20 -4 -25 -2 -19 8 5 9 4 11 -4 6 -6 -4 -8 -12 -5
-18 5 -7 2 -9 -8 -6 -17 7 -20 -32 -3 -45 6 -4 0 -6 -12 -4 -12 2 -26 7 -30
11 -5 4 -2 6 6 4 7 -2 16 4 18 12 4 12 3 12 -5 2 -5 -8 -13 -14 -18 -15 -5 -1
-9 -6 -10 -12 0 -5 -2 -16 -2 -24 -1 -7 -8 -11 -16 -8 -8 3 -23 -3 -34 -13
-18 -17 -21 -17 -26 -3 -4 9 -14 13 -26 10 -11 -3 -20 -1 -20 5 0 5 -4 7 -9 3
-6 -3 -8 3 -6 14 2 14 -1 18 -10 15 -8 -4 -12 -16 -9 -32 3 -18 1 -23 -4 -14
-5 8 -13 13 -18 12 -5 -1 -10 4 -12 12 -2 9 0 8 7 -2 6 -8 11 -13 12 -10 0 3
2 15 5 28 3 17 1 21 -8 16 -8 -5 -7 0 2 11 14 17 13 17 -10 12 -14 -4 -19 -4
-12 -1 6 3 9 10 6 16 -4 5 4 4 17 -3 13 -7 28 -12 33 -11 5 2 3 -4 -4 -13 -11
-13 -10 -15 3 -9 8 3 18 12 21 20 3 8 11 14 17 14 9 0 9 -3 0 -14 -9 -11 -7
-15 8 -19 17 -4 21 7 11 33 -1 3 -2 8 -2 12 1 3 -12 1 -29 -5 -26 -10 -32 -9
-44 7 -8 10 -19 15 -27 11 -7 -3 -4 1 6 9 18 15 15 21 -9 16 -5 -1 -7 2 -3 6
4 4 3 13 -3 21 -11 12 -2 18 24 14 4 0 7 6 7 15 0 8 -4 13 -9 9 -6 -3 -8 4 -6
16 3 14 0 19 -9 16 -8 -3 -12 3 -11 16 1 17 8 22 28 21 15 -1 27 3 27 9 0 5 7
4 15 -3 13 -11 14 -10 9 4 -3 9 -11 16 -17 16 -6 0 -3 6 7 13 16 12 16 14 2
14 -14 0 -20 -9 -18 -29 2 -10 -27 -18 -33 -9 -2 5 2 14 10 21 20 17 19 30 -2
30 -15 0 -16 -2 -3 -10 13 -8 12 -10 -2 -10 -10 0 -18 5 -18 10 0 7 -7 7 -21
0 -15 -9 -24 -8 -35 1 -20 16 -17 28 6 26 11 -1 20 -5 20 -9 0 -4 5 -8 11 -8
6 0 7 5 2 13 -17 27 -13 56 9 71 12 9 17 16 11 16 -6 0 -16 -7 -23 -15 -7 -8
-18 -15 -24 -15 -6 0 1 11 16 25 26 22 26 24 8 30 -11 4 -17 12 -13 21 3 7 0
14 -5 14 -6 0 -9 -9 -7 -20 3 -13 0 -18 -7 -14 -7 5 -8 2 -3 -6 6 -9 4 -11 -5
-5 -9 6 -11 4 -5 -5 6 -9 4 -11 -5 -5 -15 9 -6 -9 18 -37 8 -10 11 -18 6 -18
-5 0 -3 -4 5 -9 9 -6 10 -11 2 -15 -6 -4 -11 -2 -11 4 0 6 -4 9 -9 6 -5 -3
-20 3 -32 15 -13 11 -19 18 -14 15 18 -8 35 8 25 24 -7 10 -10 11 -10 3 0 -7
-5 -13 -12 -13 -6 0 -3 9 7 20 16 17 16 20 2 20 -8 0 -17 -3 -20 -7 -2 -5 -2
-2 0 6 2 8 -9 28 -24 45 -15 17 -20 24 -10 17 20 -15 23 -2 5 19 -11 13 -11
13 2 2 17 -14 34 -16 25 -2 -3 6 1 13 9 16 9 3 13 11 9 18 -3 6 -2 7 2 3 12
-10 15 -37 5 -37 -5 0 -7 -8 -5 -17 1 -10 8 -17 14 -16 6 2 11 -2 11 -7 0 -9
-15 -14 -33 -11 -5 1 -6 -3 -2 -9 3 -6 11 -8 16 -5 5 4 9 1 9 -6 0 -10 3 -10
12 -1 16 16 21 53 7 49 -6 -1 -14 4 -16 11 -6 17 19 11 34 -8 11 -13 12 -12
13 8 0 13 -5 32 -11 44 -10 18 -8 19 13 13 20 -5 20 -4 5 5 -24 15 -40 4 -27
-20 13 -25 13 -29 -5 -26 -18 3 -32 16 -17 16 8 0 8 8 1 30 -11 30 -32 39 -44
20 -3 -6 1 -7 9 -4 9 3 16 1 16 -5 0 -6 -6 -10 -12 -8 -7 1 -12 -6 -10 -15 4
-26 -15 -22 -22 5 -5 18 -8 20 -16 7 -7 -11 -10 -11 -10 -2 0 7 -5 10 -12 6
-7 -4 -8 -3 -4 5 5 8 0 10 -19 7 -15 -3 -24 -2 -20 2 6 7 10 8 38 11 8 1 7 4
-3 11 -13 8 -12 10 3 10 12 0 16 4 10 13 -14 22 -13 39 2 27 13 -11 13 -39 -1
-62 -5 -7 -3 -8 6 -3 9 5 11 4 6 -4 -14 -22 18 -6 42 22 13 15 29 24 35 20 7
-4 8 0 3 12 -5 15 -4 16 9 5 13 -11 15 -8 15 20 l0 33 -22 -19 c-13 -10 -17
-12 -10 -4 25 29 8 48 -25 27 -6 -4 -18 -4 -26 -1 -17 6 -32 -12 -17 -21 5 -3
10 -1 10 6 0 10 3 10 12 1 14 -14 20 -45 7 -36 -5 3 -9 -2 -9 -10 0 -24 -16
-19 -17 6 -1 11 -7 24 -14 28 -8 6 -8 13 1 31 13 24 13 24 -9 5 -20 -18 -30
-11 -13 10 4 5 5 8 3 7 -2 -2 -9 5 -16 14 -9 13 -14 13 -20 3 -5 -8 -4 -11 2
-7 5 3 10 0 10 -8 0 -13 -3 -13 -17 0 -13 12 -19 12 -29 2 -7 -6 -11 -7 -9 -2
2 6 -1 11 -7 13 -5 1 -10 -2 -10 -7 0 -5 -4 -13 -9 -18 -5 -4 -6 -3 -2 4 4 7
-4 18 -21 27 -15 8 -22 15 -14 16 11 0 9 5 -5 22 -10 12 -13 18 -6 14 11 -7
17 5 13 28 -1 5 5 6 13 3 8 -3 17 1 20 8 4 11 0 12 -19 5 -17 -6 -25 -6 -25 1
0 6 -5 7 -11 4 -6 -5 -4 -12 8 -22 15 -12 15 -14 2 -10 -9 3 -23 0 -30 -6 -12
-10 -12 -9 -2 2 10 12 10 18 -3 32 -14 16 -13 17 21 13 21 -2 33 1 30 6 -4 6
-13 10 -21 10 -8 0 -14 5 -14 11 0 5 6 7 13 3 8 -5 7 -2 -2 10 -8 9 -20 15
-28 12 -8 -3 -11 -2 -8 3 3 5 0 13 -6 17 -8 4 -9 3 -5 -4 4 -7 3 -12 -3 -12
-6 0 -7 -8 -4 -17 6 -16 5 -16 -11 -4 -9 8 -13 17 -9 20 5 3 9 11 8 18 0 14
-45 58 -45 44 0 -6 7 -14 16 -19 11 -6 13 -12 6 -16 -6 -3 -13 -2 -17 4 -3 5
-13 10 -21 10 -8 0 -12 -5 -9 -10 4 -6 10 -8 15 -5 9 6 54 -65 45 -73 -3 -3
-5 0 -5 8 0 10 -4 10 -17 -1 -16 -12 -16 -12 -6 1 9 12 8 21 -3 40 -14 23 -14
23 -9 3 4 -14 2 -23 -5 -23 -6 0 -9 4 -5 9 3 5 -1 15 -8 23 -14 14 -19 51 -6
43 4 -3 9 2 13 10 3 8 2 14 -2 14 -20 -3 -23 3 -11 19 13 15 12 16 -3 3 -10
-7 -16 -17 -13 -21 3 -5 0 -19 -5 -32 l-11 -23 5 25 c5 24 5 25 -11 5 -16 -20
-15 -16 3 29 8 19 -47 16 -64 -4 -11 -13 -11 -11 -2 8 7 15 8 22 0 22 -6 0
-13 -7 -17 -16 -5 -13 -7 -13 -14 -2 -5 7 -13 14 -19 14 -5 1 -12 2 -15 3 -3
0 -1 10 5 21 8 16 8 24 -4 35 -12 13 -15 13 -20 0 -3 -8 -11 -15 -17 -15 -9 0
-9 4 0 14 8 9 8 16 2 20 -5 4 -12 2 -16 -4 -4 -7 -12 -7 -24 0 -10 5 -21 6
-25 3 -3 -3 -6 -1 -6 4 0 6 5 13 12 15 8 3 6 7 -5 11 -9 3 -16 3 -16 -1 3 -19
-2 -33 -10 -27 -6 3 -14 -2 -19 -12 -8 -14 -10 -12 -9 10 1 17 7 25 15 22 6
-2 12 0 12 5 0 5 -10 10 -22 10 -13 0 -33 1 -46 1 -15 0 -20 4 -15 12 4 7 0 6
-10 -2 -18 -14 -24 -2 -7 15 7 7 6 11 -4 11 -8 0 -13 -4 -11 -8 3 -4 -2 -10
-10 -13 -18 -6 -31 17 -19 35 4 8 3 9 -4 5 -7 -4 -12 -13 -12 -20 0 -7 -7 -13
-15 -13 -8 0 -15 4 -15 9 0 4 -5 8 -11 8 -5 0 -8 -4 -5 -9 3 -5 -1 -14 -10
-21 -8 -7 -13 -19 -10 -26 3 -7 1 -16 -4 -19 -4 -3 -7 6 -6 19 2 18 -1 24 -15
23 -10 -1 -21 -7 -23 -14 -6 -16 -26 -17 -26 -2 0 5 5 7 10 4 6 -3 10 -2 10 4
0 15 -18 23 -25 11 -4 -6 -12 -7 -24 -1 -19 11 -39 10 -59 -3 -7 -4 -18 -3
-25 3 -13 10 -42 10 -53 -2 -12 -12 -23 -8 -35 14 -9 17 -8 20 3 16 7 -2 12
-9 11 -15 -2 -6 4 -9 12 -6 8 4 15 13 15 21 0 8 5 11 10 8 6 -4 7 -12 3 -18
-4 -7 0 -6 10 2 9 7 17 19 17 25 0 6 -5 4 -10 -4 -6 -9 -10 -10 -10 -3 0 6 -9
11 -20 10 -11 -1 -20 -5 -20 -9 0 -4 -7 -5 -15 -2 -8 3 -17 0 -20 -8 -9 -23
-35 -18 -30 6 2 12 4 23 4 26 1 3 6 -2 11 -10 7 -11 10 -11 10 -2 0 8 5 10 13
6 6 -4 8 -3 4 1 -12 14 -35 14 -45 2z m-60 -55 c-7 -2 -9 -9 -5 -15 11 -18 12
-36 3 -42 -5 -3 -7 3 -5 12 4 26 -7 40 -15 18 -6 -18 -7 -17 -12 3 -4 12 -3
20 2 17 4 -3 11 2 14 11 3 9 11 12 18 8 9 -6 9 -9 0 -12z m90 -15 c-4 -14 -7
-16 -13 -5 -12 19 -11 25 5 25 8 0 11 -8 8 -20z m342 11 c-3 -4 0 -8 5 -8 6 0
11 5 11 11 0 8 5 8 15 -1 8 -7 15 -9 15 -5 0 4 7 2 15 -5 8 -7 15 -9 15 -5 0
4 7 2 15 -5 12 -10 15 -10 15 1 0 12 2 12 9 1 4 -8 11 -13 15 -13 11 2 8 -13
-3 -17 -6 -2 -11 1 -11 7 0 6 -3 10 -7 10 -5 -1 -10 0 -13 1 -24 9 -41 7 -36
-5 3 -9 0 -12 -9 -9 -8 3 -13 11 -12 16 1 6 -4 13 -11 15 -8 3 -10 -1 -5 -14
7 -17 6 -17 -11 0 -22 21 -44 23 -26 2 11 -13 10 -14 -4 -9 -18 7 -18 7 -11
27 3 7 12 14 20 14 8 0 12 -4 9 -9z m-232 -26 c11 -15 11 -15 -3 -5 -8 7 -25
11 -38 8 -12 -2 -20 -1 -17 3 9 15 45 10 58 -6z m85 -5 c18 -22 18 -22 -3 -5
-11 10 -30 16 -42 13 -13 -2 -21 -1 -18 3 10 16 45 10 63 -11z m-422 -7 c6 0
2 -5 -8 -11 -9 -6 -15 -14 -12 -19 3 -4 -2 -10 -10 -13 -9 -4 -12 -1 -9 7 3 8
0 17 -5 21 -16 9 -4 24 17 20 9 -2 22 -4 27 -5z m670 -18 c-3 -3 -11 0 -18 7
-9 10 -8 11 6 5 10 -3 15 -9 12 -12z m115 -3 c0 -9 20 -6 40 6 13 8 13 7 1 -9
-13 -15 -13 -19 0 -27 9 -6 18 -4 25 6 6 8 14 12 17 9 11 -12 -21 -34 -39 -27
-13 5 -15 3 -9 -8 5 -8 5 -11 -1 -6 -5 5 -10 13 -10 18 -1 5 -2 13 -3 17 -1 9
-17 12 -56 13 -14 0 -16 2 -7 8 16 10 42 10 42 0z m-914 -8 c-4 -5 0 -12 6
-15 7 -3 2 -3 -11 0 -17 5 -21 3 -16 -6 5 -9 4 -11 -3 -6 -7 4 -12 2 -12 -3 0
-6 -6 -11 -12 -11 -7 0 0 12 15 25 29 26 43 32 33 16z m912 -36 c-3 -3 -9 2
-12 12 -6 14 -5 15 5 6 7 -7 10 -15 7 -18z m-1003 -13 c-3 -3 0 -11 6 -18 7
-9 6 -12 -8 -10 -10 2 -21 -2 -25 -8 -5 -7 -8 -4 -8 7 0 10 -4 16 -9 12 -5 -3
-13 0 -17 6 -5 9 1 10 20 5 15 -4 25 -3 22 2 -3 5 1 9 9 9 8 0 13 -3 10 -5z
m105 -2 c0 -5 -2 -10 -4 -10 -3 0 -8 5 -11 10 -3 6 -1 10 4 10 6 0 11 -4 11
-10z m1110 -26 c0 0 -9 -9 -19 -18 -14 -13 -21 -14 -27 -5 -5 8 -3 10 6 4 9
-6 12 -4 8 6 -4 10 1 15 13 15 11 0 19 -1 19 -2z m-1256 -20 c3 -8 2 -12 -4
-9 -6 3 -10 10 -10 16 0 14 7 11 14 -7z m1201 -14 c3 -5 1 -10 -4 -10 -6 0
-11 5 -11 10 0 6 2 10 4 10 3 0 8 -4 11 -10z m-1298 -24 c4 -4 1 -6 -7 -4 -8
2 -14 -3 -12 -9 1 -7 -2 -13 -7 -13 -10 0 -22 26 -15 33 7 7 32 3 41 -7z m-45
-44 c-7 -2 -9 -9 -6 -14 4 -7 2 -8 -4 -4 -6 4 -9 13 -6 21 4 8 11 12 17 8 8
-5 7 -8 -1 -11z m1545 -68 c-3 -3 -12 -4 -19 -1 -8 3 -5 6 6 6 11 1 17 -2 13
-5z m63 -98 c0 -2 -7 -7 -16 -10 -8 -3 -12 -2 -9 4 6 10 25 14 25 6z m193
-118 c-13 -12 -26 -19 -29 -15 -4 4 1 14 12 22 29 22 41 18 17 -7z m-2224 -52
c9 -11 9 -16 -1 -22 -7 -4 -10 -4 -6 1 4 4 3 14 -3 22 -6 7 -9 13 -6 13 2 0
10 -6 16 -14z m2171 -16 c0 -5 -8 -10 -17 -10 -15 0 -16 2 -3 10 19 12 20 12
20 0z m-2296 -28 c2 -4 -4 -9 -15 -9 -11 -1 -17 2 -14 8 7 11 22 12 29 1z m30
-30 c3 -5 -1 -9 -9 -9 -8 0 -15 4 -15 9 0 4 4 8 9 8 6 0 12 -4 15 -8z m-21
-37 c-3 -9 -8 -14 -10 -11 -3 3 -2 9 2 15 9 16 15 13 8 -4z m67 -21 c0 -8 -19
-13 -24 -6 -3 5 1 9 9 9 8 0 15 -2 15 -3z m2355 -14 c-10 -11 -20 -18 -23 -15
-7 6 18 35 31 35 5 0 2 -9 -8 -20z m-2311 -52 c-3 -4 -9 -8 -15 -8 -5 0 -9 4
-9 8 0 5 7 9 15 9 8 0 12 -4 9 -9z m96 2 c0 -5 -5 -10 -11 -10 -5 0 -7 5 -4
10 3 6 8 10 11 10 2 0 4 -4 4 -10z m2860 4 c0 -8 -19 -13 -24 -6 -3 5 1 9 9 9
8 0 15 -2 15 -3z m-3220 -38 c-5 -13 -6 -27 -3 -30 4 -3 1 -6 -5 -6 -7 0 -12
2 -12 4 0 11 20 56 25 56 2 0 0 -11 -5 -24z m229 -2 c-6 -8 -15 -12 -18 -8 -3
4 0 9 7 11 6 3 9 10 6 15 -4 7 -2 8 5 4 9 -6 9 -11 0 -22z m2296 8 c-3 -3 -11
0 -18 7 -9 10 -8 11 6 5 10 -3 15 -9 12 -12z m-2335 -12 c-8 -5 -19 -10 -25
-10 -5 0 -3 5 5 10 8 5 20 10 25 10 6 0 3 -5 -5 -10z m10 -19 c0 -15 -31 -22
-48 -11 -14 9 -13 10 5 5 12 -3 24 -1 28 5 8 12 15 13 15 1z m2937 -15 c-6
-13 -17 -21 -25 -19 -10 4 -9 10 4 24 24 26 34 24 21 -5z m-574 -13 c-7 -2
-19 -2 -25 0 -7 3 -2 5 12 5 14 0 19 -2 13 -5z m-2417 -18 c13 -1 24 2 24 6 0
5 5 9 10 9 6 0 5 -8 -2 -20 -7 -11 -14 -16 -16 -10 -2 5 -8 10 -13 10 -6 0 -7
-5 -3 -11 3 -6 -5 -4 -18 5 -14 9 -28 13 -33 9 -4 -5 -5 -2 -1 5 4 7 12 10 17
6 6 -3 21 -7 35 -9z m-201 -15 c3 -6 -1 -7 -9 -4 -18 7 -21 14 -7 14 6 0 13
-4 16 -10z m3240 0 c3 -6 -1 -7 -9 -4 -18 7 -21 14 -7 14 6 0 13 -4 16 -10z
m-3269 -25 c1 -7 -4 -16 -12 -19 -11 -4 -12 -1 -5 13 6 10 8 21 6 25 -3 3 -2
4 2 1 4 -3 8 -12 9 -20z m2658 9 c3 -8 2 -12 -4 -9 -6 3 -10 10 -10 16 0 14 7
11 14 -7z m-2361 -19 c-3 -8 -13 -15 -22 -15 -14 1 -14 2 2 11 9 6 14 15 11
21 -4 7 -2 8 4 4 6 -4 9 -13 5 -21z m-129 -17 c2 -15 -2 -25 -11 -25 -7 0 -11
2 -8 5 2 3 0 14 -6 25 -8 14 -8 18 0 13 6 -4 11 -2 11 5 0 21 11 2 14 -23z
m53 17 c0 -8 -4 -12 -9 -9 -5 3 -6 10 -3 15 9 13 12 11 12 -6z m-177 -48 c0
-3 -6 -7 -12 -10 -8 -3 -14 5 -14 19 -2 20 0 21 12 9 8 -7 14 -16 14 -18z
m160 29 c0 -3 -4 -8 -10 -11 -5 -3 -10 -1 -10 4 0 6 5 11 10 11 6 0 10 -2 10
-4z m-329 -29 c-13 -13 -26 -3 -16 12 3 6 11 8 17 5 6 -4 6 -10 -1 -17z m122
10 c4 3 7 1 7 -5 0 -7 -7 -12 -16 -12 -9 0 -12 -5 -8 -12 4 -7 3 -10 -1 -5 -5
4 -9 16 -10 27 -1 14 2 17 10 10 7 -5 15 -7 18 -3z m201 -23 c3 -8 2 -12 -4
-9 -6 3 -10 10 -10 16 0 14 7 11 14 -7z m2484 -35 c-3 -8 -7 -3 -11 10 -4 17
-3 21 5 13 5 -5 8 -16 6 -23z m-2653 12 c3 -5 2 -12 -3 -15 -5 -3 -9 1 -9 9 0
17 3 19 12 6z m-105 -6 c0 -2 -10 -9 -22 -15 -22 -11 -22 -10 -4 4 21 17 26
19 26 11z m3284 -4 c3 -5 -1 -14 -8 -20 -12 -10 -14 -9 -11 6 2 10 4 19 4 21
2 5 10 2 15 -7z m-3356 -17 c18 -3 29 -14 13 -14 -7 0 -10 -4 -7 -9 7 -11 -25
-25 -33 -14 -5 8 -18 9 -38 4 -5 -2 1 -6 11 -10 11 -4 21 -18 23 -32 2 -18 1
-20 -6 -9 -5 8 -7 18 -4 24 4 5 0 7 -8 4 -8 -3 -20 0 -26 7 -10 10 -8 15 5 21
9 4 20 6 25 6 7 -2 11 14 8 31 -1 5 4 5 11 1 7 -5 19 -9 26 -10z m202 -8 c0
-8 -6 -16 -13 -19 -8 -3 -14 1 -14 9 0 7 4 11 9 8 4 -3 8 0 8 5 0 6 2 11 5 11
3 0 5 -6 5 -14z m3387 -3 c-10 -9 24 -43 37 -37 6 3 0 -4 -13 -15 -13 -12 -29
-21 -36 -21 -7 0 -12 -8 -10 -17 1 -10 -2 -27 -8 -38 -6 -11 -10 -25 -9 -31 3
-16 -26 -26 -34 -12 -5 7 -2 8 6 3 9 -6 11 -4 5 5 -5 9 -4 11 3 6 8 -5 10 -2
6 8 -3 9 -1 16 4 16 6 0 9 9 7 20 -2 11 1 20 6 20 6 0 7 5 3 11 -4 8 -9 7 -15
-2 -6 -10 -9 -11 -9 -1 0 6 -5 12 -11 12 -6 0 -7 -5 -2 -12 15 -24 12 -46 -7
-70 -11 -12 -19 -18 -20 -12 0 6 7 17 15 24 8 7 12 17 8 23 -12 20 -10 66 4
71 7 3 10 12 6 22 -5 13 -3 15 7 9 8 -5 25 -10 39 -11 18 -2 21 0 12 9 -14 14
-14 27 1 27 6 0 8 -3 5 -7z m-485 -45 c-7 -7 -12 -8 -12 -2 0 14 12 26 19 19
2 -3 -1 -11 -7 -17z m48 7 c0 -8 -4 -15 -10 -15 -5 0 -7 7 -4 15 4 8 8 15 10
15 2 0 4 -7 4 -15z m-2950 -7 c0 -6 -3 -8 -7 -5 -3 4 -12 2 -20 -5 -11 -8 -12
-7 -7 6 7 18 34 22 34 4z m245 2 c3 -5 1 -10 -4 -10 -6 0 -11 5 -11 10 0 6 2
10 4 10 3 0 8 -4 11 -10z m-295 -4 c0 -2 -9 -6 -20 -9 -11 -3 -18 -1 -14 4 5
9 34 13 34 5z m3280 -6 c0 -5 -2 -10 -4 -10 -3 0 -8 5 -11 10 -3 6 -1 10 4 10
6 0 11 -4 11 -10z m-3493 -42 c-3 -7 -5 -2 -5 12 0 14 2 19 5 13 2 -7 2 -19 0
-25z m-42 12 c-3 -5 -2 -10 4 -10 5 0 11 6 14 13 3 6 4 2 4 -10 -1 -12 -5 -21
-10 -20 -5 1 -12 -4 -14 -12 -4 -10 1 -11 18 -6 19 5 21 4 9 -4 -8 -6 -23 -8
-32 -5 -11 3 -16 0 -14 -10 3 -19 16 -34 16 -18 0 7 5 12 10 12 6 0 5 -8 -2
-20 -7 -11 -19 -18 -29 -15 -10 3 -16 -1 -16 -10 0 -9 6 -14 13 -11 8 3 11 0
7 -10 -6 -16 -23 -19 -23 -3 0 5 -5 7 -10 4 -6 -4 -7 -11 -4 -17 5 -7 2 -8 -6
-3 -10 6 -12 4 -7 -8 3 -9 2 -16 -2 -14 -5 1 -8 -2 -8 -8 1 -5 7 -9 14 -7 7 2
13 -2 13 -8 0 -6 -4 -9 -9 -5 -12 7 -33 -29 -23 -40 4 -5 1 -5 -6 -1 -16 9
-13 -24 3 -37 6 -4 1 -7 -10 -5 -14 2 -20 -2 -19 -14 1 -10 -2 -16 -6 -13 -5
3 -11 1 -15 -5 -3 -5 -11 -10 -16 -10 -6 0 -8 4 -4 9 3 5 1 12 -4 16 -7 4 -7
15 -1 30 5 14 7 25 4 25 -4 0 -1 6 5 14 7 8 14 24 16 36 5 26 60 112 67 104 3
-2 13 7 22 21 9 14 14 25 10 25 -4 0 -1 7 6 15 7 8 17 12 23 8 6 -4 8 0 4 9
-3 9 -3 19 0 22 10 10 15 7 8 -4z m410 -10 c3 -5 1 -10 -4 -10 -6 0 -11 5 -11
10 0 6 2 10 4 10 3 0 8 -4 11 -10z m2877 -32 c-6 -6 -9 0 -9 18 0 23 1 24 9
10 7 -12 7 -21 0 -28z m-2828 6 c3 -8 2 -12 -4 -9 -6 3 -10 10 -10 16 0 14 7
11 14 -7z m2859 -9 c-3 -8 -10 -15 -15 -15 -7 0 -6 5 1 13 6 8 7 18 3 22 -4 5
-2 5 5 1 7 -4 10 -13 6 -21z m-2706 0 c0 -8 -4 -12 -9 -9 -5 3 -6 10 -3 15 9
13 12 11 12 -6z m2339 4 c3 -6 1 -16 -6 -22 -10 -9 -11 -9 -5 2 4 8 2 17 -6
22 -9 6 -10 9 -2 9 6 0 15 -5 19 -11z m104 -10 c0 -5 -8 -9 -17 -8 -11 0 -13
3 -5 6 6 2 9 10 6 15 -4 7 -2 8 4 4 7 -4 12 -11 12 -17z m62 14 c-18 -7 -4
-23 16 -17 14 5 14 4 2 -4 -10 -8 -18 -8 -27 0 -14 12 -8 28 10 27 9 0 8 -2
-1 -6z m-151 -36 c-10 -9 -11 -8 -5 6 3 10 9 15 12 12 3 -3 0 -11 -7 -18z
m129 9 c0 -2 -8 -10 -17 -17 -16 -13 -17 -12 -4 4 13 16 21 21 21 13z m-2526
-36 c-6 -6 -10 -3 -10 10 0 13 4 16 10 10 7 -7 7 -13 0 -20z m2979 16 c4 -9
17 -14 34 -12 41 5 46 -14 11 -45 -16 -16 -27 -33 -23 -39 3 -5 1 -10 -4 -10
-10 0 -16 22 -12 44 1 5 -5 6 -13 3 -10 -4 -13 -1 -10 8 3 7 14 12 25 10 10
-2 19 0 19 6 0 8 -21 13 -42 10 -4 0 -6 8 -5 19 2 23 12 26 20 6z m-3023 0 c0
-2 -7 -7 -16 -10 -8 -3 -12 -2 -9 4 6 10 25 14 25 6z m2613 -13 c-5 -12 -3
-14 7 -8 8 5 11 4 6 -3 -4 -6 -13 -9 -22 -5 -11 4 -12 9 -3 19 15 19 20 18 12
-3z m-129 -5 c-3 -4 -11 -5 -19 -1 -21 7 -19 12 4 10 11 0 18 -5 15 -9z
m-2615 -32 c11 -14 6 -15 -27 -7 -4 1 8 21 12 21 2 0 9 -6 15 -14z m2724 -1
c-3 -9 -8 -14 -10 -11 -3 3 -2 9 2 15 9 16 15 13 8 -4z m397 -12 c-1 -24 -2
-26 -11 -10 -5 9 -7 22 -4 27 10 17 15 11 15 -17z m-3495 -3 c-4 -11 -2 -20 4
-20 6 0 10 -6 9 -12 -2 -7 4 -12 12 -10 11 2 10 -1 -3 -12 -12 -9 -14 -15 -6
-18 7 -2 13 -12 15 -21 2 -14 -2 -16 -18 -11 -13 4 -18 2 -14 -4 3 -6 2 -13
-3 -16 -16 -10 -24 14 -11 29 7 8 8 15 4 15 -5 0 -15 9 -22 21 -11 17 -11 27
-2 50 14 33 45 41 35 9z m3066 -3 c-10 -9 -11 -8 -5 6 3 10 9 15 12 12 3 -3 0
-11 -7 -18z m253 -2 c-4 -8 -11 -15 -16 -15 -6 0 -5 6 2 15 7 8 14 15 16 15 2
0 1 -7 -2 -15z m36 1 c0 -3 -4 -8 -10 -11 -5 -3 -10 -1 -10 4 0 6 5 11 10 11
6 0 10 -2 10 -4z m-3033 -22 c-3 -3 -12 -4 -19 -1 -8 3 -5 6 6 6 11 1 17 -2
13 -5z m2750 -13 c1 -11 -6 -26 -15 -33 -15 -11 -16 -11 -4 3 7 9 12 21 11 25
-2 11 0 24 4 24 1 0 3 -9 4 -19z m163 10 c0 -17 -18 -21 -24 -6 -3 9 0 15 9
15 8 0 15 -4 15 -9z m36 -35 c-1 -23 -6 -39 -10 -38 -5 2 -13 -2 -17 -10 -8
-12 -11 -5 -8 18 0 4 -5 11 -13 15 -8 5 -9 9 -2 9 7 0 14 11 18 23 10 41 33
28 32 -17z m-3307 -10 c0 -7 -2 -6 -6 2 -2 6 -9 10 -14 6 -5 -3 -9 2 -9 12 0
13 3 14 15 4 8 -7 15 -18 14 -24z m3035 26 c3 -5 -1 -9 -9 -9 -8 0 -12 4 -9 9
3 4 7 8 9 8 2 0 6 -4 9 -8z m10 -52 c-6 -6 -10 -3 -10 10 0 13 4 16 10 10 7
-7 7 -13 0 -20z m512 4 c1 -14 -1 -23 -4 -20 -3 3 -15 -2 -26 -11 -20 -17 -20
-17 -7 0 12 15 9 21 -11 18 -4 0 -5 6 -1 15 3 8 12 13 19 10 7 -3 16 -1 19 4
9 14 10 13 11 -16z m-469 -39 c0 -8 -4 -12 -9 -9 -4 3 -8 9 -8 15 0 5 4 9 8 9
5 0 9 -7 9 -15z m53 -5 c-12 -8 -12 -10 -1 -10 9 0 12 -8 8 -22 -5 -20 -4 -21
6 -6 10 14 12 13 24 -10 12 -22 11 -28 -3 -41 -12 -12 -15 -12 -9 -2 6 11 4
13 -10 7 -18 -6 -18 -6 1 15 19 22 19 22 -4 14 -21 -6 -23 -4 -18 17 l6 23
-11 -22 c-7 -13 -18 -23 -26 -23 -20 0 -16 -20 5 -21 15 0 15 -1 -2 -8 -23 -9
-10 -18 22 -15 31 2 27 -7 -15 -34 -20 -13 -31 -17 -25 -9 7 7 8 17 4 21 -4 4
-8 12 -8 17 -1 5 -2 10 -4 12 -5 6 -6 46 -1 45 21 -2 31 4 25 14 -5 7 -3 8 6
3 10 -6 12 -4 7 7 -6 16 10 38 28 38 5 0 3 -5 -5 -10z m61 -37 c-12 -20 -14
-14 -5 12 4 9 9 14 11 11 3 -2 0 -13 -6 -23z m-3370 -15 c6 -13 8 -20 4 -16
-4 4 -17 3 -29 -3 -20 -10 -20 -9 -2 5 10 8 15 19 11 25 -3 6 -4 11 -1 11 3 0
11 -10 17 -22z m3219 8 c0 -3 -4 -8 -10 -11 -5 -3 -10 -1 -10 4 0 6 5 11 10
11 6 0 10 -2 10 -4z m304 -14 c2 -4 -4 -8 -14 -8 -10 0 -16 4 -14 8 3 4 9 8
14 8 5 0 11 -4 14 -8z m-2664 -12 c0 -5 -5 -10 -11 -10 -5 0 -7 5 -4 10 3 6 8
10 11 10 2 0 4 -4 4 -10z m-27 -13 c3 -8 -1 -14 -8 -14 -7 0 -11 6 -8 14 3 7
6 13 8 13 2 0 5 -6 8 -13z m2407 -27 c0 -5 -2 -10 -4 -10 -3 0 -8 5 -11 10 -3
6 -1 10 4 10 6 0 11 -4 11 -10z m-5 -28 c-3 -3 -11 0 -18 7 -9 10 -8 11 6 5
10 -3 15 -9 12 -12z m95 -14 c0 -4 -6 -8 -14 -8 -8 0 -17 4 -20 8 -2 4 4 8 15
8 10 0 19 -4 19 -8z m-90 -2 c0 -2 -6 -9 -14 -15 -11 -9 -16 -9 -22 0 -4 8 -3
9 4 5 7 -4 12 -2 12 3 0 6 5 11 10 11 6 0 10 -2 10 -4z m-36 -35 c3 -5 -6 -19
-19 -31 -14 -13 -25 -18 -25 -11 0 7 -5 9 -12 5 -7 -4 -8 -3 -4 4 4 6 13 9 20
6 7 -3 19 3 27 12 12 15 12 16 -9 10 -12 -4 -22 -4 -22 1 0 11 38 14 44 4z
m301 -39 c-12 -13 -43 -7 -54 11 -11 18 -11 20 0 10 19 -19 34 -16 18 4 -11
13 -8 13 13 -2 14 -11 25 -21 23 -23z m-2790 19 c3 -5 2 -12 -3 -15 -5 -3 -9
1 -9 9 0 17 3 19 12 6z m155 -36 c5 3 8 -4 7 -15 -1 -20 -2 -20 -22 2 -12 13
-22 32 -22 43 -1 16 1 14 13 -8 8 -15 19 -25 24 -22z m2535 15 c-3 -5 -12 -7
-21 -3 -9 3 -14 0 -12 -8 4 -16 -30 -25 -44 -11 -6 6 0 8 18 4 18 -3 25 -1 20
6 -3 6 1 15 11 21 19 10 37 5 28 -9z m-168 -32 c8 -1 8 -6 0 -19 -11 -18 -12
-17 -23 3 -7 12 -14 16 -18 10 -3 -6 0 -13 6 -16 10 -3 8 -9 -4 -19 -22 -18
-12 -30 13 -16 11 5 19 6 20 2 0 -4 5 3 10 17 8 20 12 22 19 10 9 -14 14 -7
11 13 -1 5 3 6 9 2 5 -3 10 0 10 7 0 10 2 10 9 -1 5 -8 16 -11 26 -8 10 4 14
3 9 -4 -3 -6 -15 -8 -26 -6 -14 4 -18 1 -13 -11 3 -11 -3 -22 -15 -30 -25 -15
-26 -4 -2 15 16 13 16 13 -3 11 -27 -4 -35 -18 -30 -48 3 -14 2 -18 -1 -10
-13 28 -48 42 -38 15 6 -14 -6 -20 -29 -16 -5 1 -7 -4 -4 -11 2 -7 11 -12 21
-10 9 2 16 -1 16 -6 0 -4 -11 -8 -24 -8 -14 0 -22 4 -20 8 3 4 -3 8 -12 8 -16
0 -16 1 2 14 18 14 18 15 0 22 -11 4 -22 2 -28 -7 -8 -12 -9 -11 -5 1 2 8 -3
24 -12 34 -9 11 -11 16 -5 13 7 -4 15 0 18 9 5 14 9 14 23 3 14 -12 16 -12 11
2 -9 23 8 37 40 32 15 -2 32 -5 39 -5z m93 -48 c0 -5 -5 -10 -11 -10 -5 0 -7
5 -4 10 3 6 8 10 11 10 2 0 4 -4 4 -10z m-2356 -66 c3 -8 2 -12 -4 -9 -6 3
-10 10 -10 16 0 14 7 11 14 -7z m2081 6 c3 -5 1 -10 -4 -10 -6 0 -11 5 -11 10
0 6 2 10 4 10 3 0 8 -4 11 -10z m245 0 c0 -5 -2 -10 -4 -10 -3 0 -8 5 -11 10
-3 6 -1 10 4 10 6 0 11 -4 11 -10z m-225 -19 c-3 -6 -11 -11 -16 -11 -5 0 -4
6 3 14 14 16 24 13 13 -3z m-2078 -15 c0 -8 -3 -15 -6 -14 -19 2 -31 -3 -31
-13 0 -6 6 -9 14 -6 20 8 28 -4 14 -20 -9 -11 -9 -16 3 -23 10 -7 9 -9 -7 -8
-12 1 -21 9 -20 18 1 8 -5 14 -13 12 -9 -2 -11 3 -7 13 3 9 2 13 -3 10 -5 -3
-12 -1 -16 5 -3 5 3 10 15 10 13 0 19 4 14 12 -4 6 -3 8 2 5 6 -3 16 -2 24 4
8 5 15 9 16 9 0 0 1 -6 1 -14z m2123 -6 c0 -5 -4 -10 -10 -10 -5 0 -10 5 -10
10 0 6 5 10 10 10 6 0 10 -4 10 -10z m160 -13 c0 -8 -3 -8 -9 2 -6 9 -11 10
-15 2 -4 -6 0 -14 9 -17 12 -5 13 -10 4 -20 -6 -7 -8 -17 -5 -22 3 -5 -2 -9
-10 -9 -8 0 -13 6 -10 13 3 8 0 16 -6 20 -6 4 -8 3 -4 -4 3 -6 2 -13 -3 -16
-5 -4 -8 2 -7 11 2 10 -2 21 -8 25 -8 6 -8 8 1 8 6 0 15 -4 18 -10 3 -5 11
-10 17 -10 6 0 5 6 -3 16 -10 13 -10 17 1 24 16 10 30 4 30 -13z m-123 -1 c0
-8 -6 -12 -15 -9 -11 5 -11 7 0 14 7 5 13 9 14 9 0 0 1 -6 1 -14z m-63 -7 c3
-3 -4 -5 -14 -6 -11 -1 -20 2 -20 7 0 8 25 8 34 -1z m86 -9 c-6 -11 -13 -20
-16 -20 -2 0 0 9 6 20 6 11 13 20 16 20 2 0 0 -9 -6 -20z m-48 -4 c7 4 8 2 4
-5 -9 -13 -26 -5 -25 12 0 9 2 8 6 -1 2 -6 10 -9 15 -6z m-94 -8 c-2 -7 3 -12
10 -10 8 1 11 -2 7 -8 -5 -8 -11 -8 -21 1 -7 6 -11 15 -8 20 8 13 14 11 12 -3z
m136 -55 c-20 -21 -40 -37 -45 -35 -5 1 -9 -4 -9 -10 0 -7 -5 -5 -11 5 -8 14
-8 22 1 30 8 9 9 7 4 -8 -7 -19 -7 -19 13 -2 11 9 23 14 28 10 4 -5 5 0 2 10
-4 11 -3 16 3 12 6 -4 16 8 22 25 9 27 12 30 20 16 7 -12 0 -25 -28 -53z m-61
22 c-3 -9 -8 -14 -10 -11 -3 3 -2 9 2 15 9 16 15 13 8 -4z m-200 -20 c-3 -9
-8 -14 -10 -11 -3 3 -2 9 2 15 9 16 15 13 8 -4z m171 -3 c3 -5 -1 -9 -9 -9 -8
0 -12 4 -9 9 3 4 7 8 9 8 2 0 6 -4 9 -8z m-2084 -62 c0 -5 -2 -10 -4 -10 -3 0
-8 5 -11 10 -3 6 -1 10 4 10 6 0 11 -4 11 -10z m73 -25 c8 -8 16 -13 18 -12 3
1 1 -2 -3 -7 -5 -6 -8 -15 -8 -20 1 -6 10 0 20 13 11 13 20 18 20 13 0 -6 -5
-14 -11 -18 -8 -4 -7 -9 2 -15 10 -6 6 -8 -11 -5 -14 3 -28 5 -31 5 -5 1 -29
47 -29 56 0 10 19 4 33 -10z m1903 -34 c-4 -5 -15 -9 -26 -8 -10 1 -17 5 -14
9 3 4 11 5 19 1 8 -3 15 1 15 8 0 7 3 10 6 6 3 -3 3 -10 0 -16z m-1837 -52
c-7 -13 -5 -18 8 -21 14 -3 14 -5 -2 -18 -11 -8 -16 -10 -12 -3 4 6 -6 22 -22
36 l-30 25 34 -1 c28 -1 32 -4 24 -18z m1726 -69 c2 -12 1 -20 -2 -16 -4 4 -8
16 -10 28 -4 28 6 18 12 -12z m-1570 0 c3 -5 1 -10 -4 -10 -6 0 -11 5 -11 10
0 6 2 10 4 10 3 0 8 -4 11 -10z m-55 -14 c0 -2 -7 -9 -15 -16 -13 -11 -14 -10
-9 4 5 14 24 23 24 12z m90 -80 c0 -3 -4 -8 -10 -11 -5 -3 -10 -1 -10 4 0 6 5
11 10 11 6 0 10 -2 10 -4z m95 -14 c-3 -3 -11 0 -18 7 -9 10 -8 11 6 5 10 -3
15 -9 12 -12z m1255 10 c0 -4 -5 -14 -11 -22 -9 -13 -10 -12 -5 2 3 12 1 15
-10 11 -7 -3 -14 -1 -14 4 0 5 9 9 20 10 11 1 20 -1 20 -5z m-59 -32 c6 0 7 4
4 10 -3 6 1 7 10 4 13 -5 12 -10 -7 -28 -30 -28 -43 -28 -44 1 -2 23 -1 23 13
6 13 -17 14 -16 9 7 -3 14 -3 19 0 13 3 -7 10 -13 15 -13z m-1087 -16 c3 -8 2
-12 -4 -9 -6 3 -10 10 -10 16 0 14 7 11 14 -7z m40 -12 c3 -5 -1 -9 -9 -9 -8
0 -12 4 -9 9 3 4 7 8 9 8 2 0 6 -4 9 -8z m950 -1 c-8 -9 -44 -11 -44 -3 0 4
11 8 25 8 13 0 22 -2 19 -5z m-864 -17 c0 -8 -19 -13 -24 -6 -3 5 1 9 9 9 8 0
15 -2 15 -3z m140 -20 c0 -8 -19 -13 -24 -6 -3 5 1 9 9 9 8 0 15 -2 15 -3z
m-135 -37 c9 -13 11 -25 6 -30 -13 -13 -28 -1 -46 33 -14 26 -13 28 6 23 11
-3 26 -15 34 -26z m618 11 c-2 -5 1 -8 7 -8 7 0 10 -6 7 -12 -2 -7 -16 -12
-30 -12 -15 1 -27 -2 -27 -6 0 -13 -29 -5 -43 10 -10 12 -9 12 6 1 15 -12 17
-11 18 5 0 13 2 14 6 5 5 -11 7 -11 14 0 6 10 9 10 9 2 0 -7 7 -10 16 -6 14 5
12 8 -7 19 l-24 12 27 -1 c14 -1 24 -5 21 -9z m-561 -30 c-8 -8 -9 -4 -5 13 4
13 8 18 11 10 2 -7 -1 -18 -6 -23z m212 2 c-6 -6 -10 -3 -10 10 0 13 4 16 10
10 7 -7 7 -13 0 -20z m-29 10 c3 -5 1 -10 -4 -10 -6 0 -11 5 -11 10 0 6 2 10
4 10 3 0 8 -4 11 -10z m270 -8 c-3 -3 -11 0 -18 7 -9 10 -8 11 6 5 10 -3 15
-9 12 -12z"/>
<path d="M1946 3498 c3 -5 10 -6 15 -3 13 9 11 12 -6 12 -8 0 -12 -4 -9 -9z"/>
<path d="M630 2489 c0 -15 18 -19 23 -6 3 8 -1 14 -9 14 -8 0 -14 -4 -14 -8z"/>
<path d="M4210 2452 c0 -7 -4 -11 -9 -7 -5 3 -12 1 -15 -4 -7 -10 30 -22 39
-12 4 3 12 6 18 6 5 0 12 7 14 15 4 12 3 12 -5 2 -5 -8 -13 -14 -17 -14 -4 0
-12 6 -16 14 -7 10 -9 10 -9 0z"/>
<path d="M482 2300 c-24 -27 -41 -54 -38 -59 3 -5 -1 -11 -9 -15 -8 -3 -12
-11 -9 -19 3 -8 -2 -20 -10 -27 -9 -7 -13 -16 -10 -21 3 -5 0 -17 -6 -28 -16
-30 4 -34 30 -6 15 16 19 25 10 25 -10 0 -9 4 3 18 12 13 13 21 5 37 -11 19
-10 19 8 5 17 -13 18 -13 7 1 -10 13 -7 22 20 54 18 22 32 42 32 45 0 3 6 4
13 4 9 -1 10 2 2 10 -5 7 -7 16 -3 19 3 4 4 7 2 7 -2 -1 -23 -23 -47 -50z m18
-3 c0 -2 -10 -12 -22 -23 l-23 -19 19 23 c18 21 26 27 26 19z m-51 -110 c-2
-1 -13 -9 -24 -17 -19 -14 -19 -14 -6 3 7 9 18 17 24 17 6 0 8 -1 6 -3z m-19
-51 c0 -2 -7 -9 -15 -16 -13 -11 -14 -10 -9 4 5 14 24 23 24 12z"/>
<path d="M4134 2291 c0 -9 -4 -15 -10 -14 -6 1 -11 -5 -11 -13 0 -10 7 -8 26
8 14 13 27 24 29 24 1 1 -6 4 -16 6 -14 4 -19 0 -18 -11z"/>
<path d="M550 2250 c-6 -11 -8 -25 -5 -30 12 -19 21 -10 20 20 0 36 -1 36 -15
10z"/>
<path d="M3819 2209 c0 -8 -2 -21 -4 -30 -1 -9 3 -16 10 -16 8 0 12 10 11 24
-3 26 -16 43 -17 22z"/>
<path d="M3636 1998 c3 -4 11 -5 19 -1 21 7 19 12 -4 10 -11 0 -18 -5 -15 -9z"/>
<path d="M3538 1855 c-4 -4 -4 -13 -2 -20 7 -17 -12 -29 -22 -14 -5 8 -9 8
-14 -2 -5 -8 3 -20 23 -34 34 -23 56 -23 36 1 -6 7 -15 11 -20 8 -5 -3 -9 0
-9 6 0 6 10 15 23 20 12 5 17 9 10 9 -6 1 -13 8 -15 17 -2 9 -6 13 -10 9z"/>
<path d="M1426 1515 c4 -8 11 -15 16 -15 6 0 5 6 -2 15 -7 8 -14 15 -16 15 -2
0 -1 -7 2 -15z"/>
<path d="M1485 1440 c3 -5 8 -10 11 -10 2 0 4 5 4 10 0 6 -5 10 -11 10 -5 0
-7 -4 -4 -10z"/>
<path d="M2007 1135 c3 -8 9 -12 14 -9 12 7 11 11 -5 17 -10 4 -13 1 -9 -8z"/>
<path d="M2332 3611 c-11 -7 -11 -9 2 -14 21 -8 9 -37 -12 -30 -14 5 -15 4 -4
-8 11 -12 15 -11 26 4 15 19 31 24 20 5 -5 -9 -2 -9 9 1 9 7 17 19 17 25 0 6
-5 4 -10 -4 -6 -10 -10 -11 -10 -2 0 6 -6 11 -12 10 -7 -2 -12 3 -10 10 2 14
1 14 -16 3z"/>
<path d="M2410 3610 c0 -5 5 -10 11 -10 5 0 7 5 4 10 -3 6 -8 10 -11 10 -2 0
-4 -4 -4 -10z"/>
<path d="M2495 3611 c-3 -5 -2 -12 3 -15 5 -3 9 1 9 9 0 17 -3 19 -12 6z"/>
<path d="M2449 3587 c17 -17 13 -31 -5 -16 -19 15 -47 21 -38 8 3 -5 -1 -9 -8
-9 -10 0 -9 -3 2 -10 9 -5 19 -5 26 1 8 6 14 6 18 0 7 -10 24 -10 43 2 6 4 14
1 16 -5 4 -8 6 -7 6 4 1 15 -20 28 -58 34 -10 2 -11 0 -2 -9z m41 -12 c0 -12
-19 -12 -23 0 -4 9 -1 12 9 8 7 -3 14 -7 14 -8z"/>
<path d="M2068 3583 c6 -2 18 -2 25 0 6 3 1 5 -13 5 -14 0 -19 -2 -12 -5z"/>
<path d="M1960 3576 c0 -2 8 -10 18 -17 15 -13 16 -12 3 4 -13 16 -21 21 -21
13z"/>
<path d="M2651 3577 c2 -1 13 -9 24 -17 19 -14 19 -14 6 3 -7 9 -18 17 -24 17
-6 0 -8 -1 -6 -3z"/>
<path d="M1997 3546 c-3 -8 -2 -18 3 -21 13 -8 20 9 11 24 -6 10 -10 9 -14 -3z"/>
<path d="M2030 3544 c6 -6 6 -15 2 -20 -4 -4 1 -2 11 5 23 18 22 30 -2 28 -14
-1 -17 -5 -11 -13z"/>
<path d="M2790 3520 c-9 -6 -10 -10 -3 -10 6 0 15 5 18 10 8 12 4 12 -15 0z"/>
<path d="M2885 3489 c-4 -6 -5 -12 -2 -15 2 -3 7 2 10 11 7 17 1 20 -8 4z"/>
<path d="M2917 3485 c-4 -8 -3 -16 1 -19 4 -3 9 4 9 15 2 23 -3 25 -10 4z"/>
<path d="M2946 3472 c-3 -5 1 -9 9 -9 8 0 12 4 9 9 -3 4 -7 8 -9 8 -2 0 -6 -4
-9 -8z"/>
<path d="M2874 3444 c-10 -8 -14 -13 -7 -10 6 4 14 2 18 -4 8 -13 25 -3 25 16
0 18 -11 18 -36 -2z"/>
<path d="M2950 3440 c-13 -8 -12 -10 3 -10 9 0 17 5 17 10 0 12 -1 12 -20 0z"/>
<path d="M3175 3310 c3 -5 8 -10 11 -10 2 0 4 5 4 10 0 6 -5 10 -11 10 -5 0
-7 -4 -4 -10z"/>
<path d="M1480 3300 c23 -7 23 -11 1 -14 -5 0 -12 -4 -16 -8 -4 -4 -14 -4 -22
-1 -10 4 -14 2 -11 -7 2 -7 14 -14 25 -15 14 -1 19 3 16 12 -3 8 -2 13 3 11 5
-2 19 4 31 13 23 16 22 16 -15 16 -32 1 -34 0 -12 -7z"/>
<path d="M3241 3246 c-15 -18 5 -34 22 -17 9 9 7 10 -8 5 -18 -7 -18 -6 -6 9
7 9 11 17 8 17 -2 0 -10 -6 -16 -14z"/>
<path d="M3350 3229 c0 -5 5 -7 10 -4 6 3 10 8 10 11 0 2 -4 4 -10 4 -5 0 -10
-5 -10 -11z"/>
<path d="M1370 3220 c8 -5 11 -12 7 -16 -3 -4 -14 -1 -23 7 -16 13 -16 12 -4
-8 10 -15 18 -19 26 -13 6 6 14 6 19 2 4 -4 2 3 -4 16 -6 12 -17 22 -24 22 -8
0 -7 -4 3 -10z"/>
<path d="M3191 3206 c-10 -11 -8 -17 6 -25 14 -8 15 -10 3 -11 -13 0 -13 -1 0
-10 9 -5 19 -5 26 0 6 6 14 7 18 3 3 -4 13 -8 21 -9 12 -2 12 2 5 17 -13 24
-22 25 -13 2 6 -16 5 -16 -10 -4 -23 18 -21 29 6 33 20 3 20 4 -5 9 -15 3 -27
3 -26 0 2 -21 -4 -30 -18 -24 -12 4 -13 7 -3 14 8 4 11 11 8 14 -4 3 -12 -1
-18 -9z"/>
<path d="M3334 3169 c-10 -17 10 -29 23 -14 10 10 9 14 -2 19 -8 3 -17 0 -21
-5z"/>
<path d="M1236 3152 c-3 -5 1 -9 9 -9 8 0 12 4 9 9 -3 4 -7 8 -9 8 -2 0 -6 -4
-9 -8z"/>
<path d="M1195 3130 c3 -5 8 -10 11 -10 2 0 4 5 4 10 0 6 -5 10 -11 10 -5 0
-7 -4 -4 -10z"/>
<path d="M3463 3098 c1 -15 7 -30 14 -32 7 -3 10 1 6 10 -3 7 0 14 7 14 6 0 8
5 5 10 -4 6 -10 8 -15 5 -4 -3 -11 1 -13 7 -3 7 -5 1 -4 -14z"/>
<path d="M3360 3069 c0 -5 5 -7 10 -4 6 3 10 8 10 11 0 2 -4 4 -10 4 -5 0 -10
-5 -10 -11z"/>
<path d="M1155 3043 c5 -12 -6 -17 -27 -14 -4 0 -5 -6 -2 -13 3 -8 15 -13 26
-11 29 6 30 9 12 31 -8 10 -13 13 -9 7z"/>
<path d="M3434 3019 c-3 -6 -2 -15 3 -20 5 -5 9 -1 9 11 0 23 -2 24 -12 9z"/>
<path d="M1006 2989 c3 -5 0 -19 -6 -31 -11 -22 -11 -23 5 -3 9 11 20 19 25
18 5 -2 7 3 4 10 -3 8 -11 14 -19 14 -8 0 -12 -4 -9 -8z"/>
<path d="M3678 2984 c6 -3 9 -10 6 -16 -4 -6 -1 -9 5 -7 19 7 14 24 -6 26 -10
2 -12 0 -5 -3z"/>
<path d="M925 2970 c-3 -5 -2 -10 4 -10 5 0 13 5 16 10 3 6 2 10 -4 10 -5 0
-13 -4 -16 -10z"/>
<path d="M3501 2969 c1 -8 -1 -22 -6 -32 -4 -10 -5 -21 -1 -24 3 -4 6 1 6 11
0 9 5 14 10 11 6 -4 8 -10 5 -15 -3 -4 4 -6 15 -3 22 6 28 47 8 59 -8 5 -9 2
-5 -9 8 -21 3 -21 -18 -1 -13 13 -16 14 -14 3z"/>
<path d="M966 2923 c-6 -14 -5 -15 5 -6 7 7 10 15 7 18 -3 3 -9 -2 -12 -12z"/>
<path d="M3574 2933 c10 -11 37 -12 30 -2 -3 5 -12 9 -21 9 -9 0 -13 -3 -9 -7z"/>
<path d="M934 2913 c3 -6 0 -14 -6 -16 -10 -4 -9 -8 2 -16 19 -13 28 16 9 33
-9 8 -10 8 -5 -1z"/>
<path d="M3380 2895 c-7 -8 -11 -15 -9 -16 37 -7 40 -7 30 5 -6 7 -8 16 -4 19
3 4 4 7 1 7 -3 0 -11 -7 -18 -15z"/>
<path d="M3543 2903 c-15 -5 -17 -23 -4 -23 5 0 11 7 15 15 3 8 4 15 3 14 -1
0 -8 -3 -14 -6z"/>
<path d="M3617 2893 c-12 -12 -7 -22 8 -17 8 4 15 10 15 15 0 11 -14 12 -23 2z"/>
<path d="M4133 2865 c0 -8 4 -12 9 -9 5 3 6 10 3 15 -9 13 -12 11 -12 -6z"/>
<path d="M961 2861 c-8 -5 -21 -7 -30 -4 -13 4 -13 3 -2 -5 11 -8 10 -12 -5
-20 -10 -6 -17 -13 -14 -15 3 -3 21 8 40 24 34 28 39 37 11 20z"/>
<path d="M3480 2866 c0 -2 11 -6 25 -8 13 -3 22 -1 19 3 -5 9 -44 13 -44 5z"/>
<path d="M4315 2860 c-3 -5 -1 -10 4 -10 6 0 11 5 11 10 0 6 -2 10 -4 10 -3 0
-8 -4 -11 -10z"/>
<path d="M874 2848 c-3 -5 -10 -5 -16 -2 -7 5 -8 2 -3 -5 5 -9 11 -9 17 -3 6
6 17 8 24 5 8 -3 14 -1 14 4 0 12 -29 13 -36 1z"/>
<path d="M3558 2853 c6 -2 18 -2 25 0 6 3 1 5 -13 5 -14 0 -19 -2 -12 -5z"/>
<path d="M4200 2851 c0 -6 4 -13 10 -16 6 -3 7 1 4 9 -7 18 -14 21 -14 7z"/>
<path d="M4116 2837 c3 -10 9 -15 12 -12 3 3 0 11 -7 18 -10 9 -11 8 -5 -6z"/>
<path d="M4146 2842 c-3 -5 1 -9 9 -9 8 0 12 4 9 9 -3 4 -7 8 -9 8 -2 0 -6 -4
-9 -8z"/>
<path d="M3516 2827 c3 -10 9 -15 12 -12 3 3 0 11 -7 18 -10 9 -11 8 -5 -6z"/>
<path d="M3590 2829 c0 -5 5 -9 11 -9 5 0 7 -6 3 -12 -5 -9 -2 -9 9 1 22 18
21 26 -3 28 -11 1 -20 -2 -20 -8z"/>
<path d="M4287 2819 c4 -13 8 -18 11 -10 2 7 -1 18 -6 23 -8 8 -9 4 -5 -13z"/>
<path d="M4093 2815 c0 -8 4 -12 9 -9 5 3 6 10 3 15 -9 13 -12 11 -12 -6z"/>
<path d="M4200 2809 c0 -5 8 -9 18 -7 9 1 23 -1 30 -5 8 -5 12 -3 12 7 0 11
-9 16 -30 16 -16 0 -30 -5 -30 -11z"/>
<path d="M4390 2810 c0 -5 5 -10 11 -10 5 0 7 5 4 10 -3 6 -8 10 -11 10 -2 0
-4 -4 -4 -10z"/>
<path d="M4430 2811 c0 -6 4 -13 10 -16 6 -3 7 1 4 9 -7 18 -14 21 -14 7z"/>
<path d="M3560 2802 c-14 -2 -29 -8 -35 -13 -7 -7 -3 -8 10 -3 17 7 18 6 7 -8
-13 -16 -35 -18 -48 -5 -4 4 -2 7 4 7 7 0 12 5 12 12 0 9 -3 9 -12 0 -17 -17
-17 -50 1 -65 12 -10 14 -9 8 5 -3 10 -1 20 5 24 6 4 8 3 4 -4 -3 -6 -2 -14 4
-17 6 -4 9 -1 8 6 -2 6 3 14 11 17 8 2 11 0 8 -5 -3 -5 -2 -15 4 -23 7 -13 9
-13 9 0 0 13 2 13 9 1 8 -12 12 -12 25 -2 9 8 16 20 16 28 0 9 5 11 13 7 8 -5
8 -3 -2 9 -7 9 -17 15 -21 12 -5 -3 -10 0 -12 7 -2 8 -14 12 -28 10z"/>
<path d="M4164 2779 c-13 -15 -14 -19 -3 -19 11 0 11 -2 -1 -10 -14 -9 -12
-11 20 -14 22 -2 38 16 33 36 -7 25 -29 29 -49 7z"/>
<path d="M3421 2781 c-10 -6 -9 -10 3 -14 8 -3 18 -2 21 3 8 13 -9 20 -24 11z"/>
<path d="M780 2771 c0 -10 19 -25 25 -20 1 2 -3 10 -11 17 -8 7 -14 8 -14 3z"/>
<path d="M4256 2765 c-9 -26 -7 -32 5 -12 6 10 9 21 6 23 -2 3 -7 -2 -11 -11z"/>
<path d="M4390 2769 c0 -5 5 -7 10 -4 6 3 10 8 10 11 0 2 -4 4 -10 4 -5 0 -10
-5 -10 -11z"/>
<path d="M4419 2763 c-13 -16 -12 -17 4 -4 16 13 21 21 13 21 -2 0 -10 -8 -17
-17z"/>
<path d="M3661 2761 c-10 -6 -9 -10 3 -14 8 -3 18 -2 21 3 8 13 -9 20 -24 11z"/>
<path d="M4435 2739 c-4 -6 -5 -12 -2 -15 2 -3 7 2 10 11 7 17 1 20 -8 4z"/>
<path d="M3619 2737 c-12 -34 0 -48 20 -23 9 10 8 15 -4 20 -8 3 -15 4 -16 3z"/>
<path d="M4225 2730 c-3 -5 1 -10 10 -10 9 0 13 5 10 10 -3 6 -8 10 -10 10 -2
0 -7 -4 -10 -10z"/>
<path d="M4305 2730 c-3 -5 -2 -10 4 -10 5 0 13 5 16 10 3 6 2 10 -4 10 -5 0
-13 -4 -16 -10z"/>
<path d="M4401 2722 c-7 -13 -6 -19 2 -19 7 0 13 9 13 19 0 10 -1 18 -3 18 -1
0 -7 -8 -12 -18z"/>
<path d="M3447 2719 c7 -7 15 -10 18 -7 3 3 -2 9 -12 12 -14 6 -15 5 -6 -5z"/>
<path d="M753 2713 c4 -3 1 -13 -6 -22 -11 -14 -10 -14 6 -2 20 15 22 31 5 31
-6 0 -8 -3 -5 -7z"/>
<path d="M4234 2695 c-4 -8 -4 -22 0 -30 6 -18 2 -19 -27 -4 -21 10 -21 9 -3
-5 10 -9 26 -14 35 -13 21 3 69 37 53 37 -7 0 -11 4 -7 9 3 6 -6 8 -21 5 -16
-3 -23 -1 -19 6 3 5 4 10 0 10 -3 0 -8 -7 -11 -15z"/>
<path d="M4332 2694 c-11 -12 -10 -14 3 -14 8 0 20 -9 27 -20 7 -11 16 -20 21
-20 4 0 6 4 2 9 -3 5 3 12 12 15 13 3 11 4 -4 3 -12 -1 -21 3 -20 8 1 6 6 9
10 7 5 -1 6 2 2 8 -5 8 -11 8 -20 0 -10 -8 -14 -7 -17 3 -3 13 -5 13 -16 1z"/>
<path d="M757 2675 c-16 -14 -33 -22 -39 -19 -7 4 -8 2 -4 -4 4 -6 13 -9 20
-6 8 3 17 0 22 -7 4 -8 3 -10 -4 -5 -14 8 -15 -3 -3 -22 7 -11 10 -10 15 3 3
9 4 21 1 25 -3 5 -1 11 5 15 6 4 7 11 4 17 -5 7 -1 9 9 5 8 -3 21 1 27 9 22
25 -22 16 -53 -11z"/>
<path d="M3648 2688 c5 -5 16 -8 23 -6 8 3 3 7 -10 11 -17 4 -21 3 -13 -5z"/>
<path d="M4190 2690 c0 -5 7 -10 16 -10 8 0 12 5 9 10 -3 6 -10 10 -16 10 -5
0 -9 -4 -9 -10z"/>
<path d="M715 2680 c3 -5 8 -10 11 -10 2 0 4 5 4 10 0 6 -5 10 -11 10 -5 0 -7
-4 -4 -10z"/>
<path d="M3615 2670 c5 -9 2 -10 -14 -5 -15 4 -21 3 -19 -7 2 -7 -3 -12 -9
-10 -7 1 -13 -2 -13 -6 0 -11 -30 -9 -50 3 -10 6 -9 2 3 -12 9 -11 15 -22 12
-25 -3 -3 1 -11 10 -18 18 -15 21 -45 3 -34 -8 5 -9 1 -5 -12 7 -18 7 -18 -8
0 -8 11 -15 15 -15 9 0 -6 7 -16 15 -23 17 -14 68 -23 60 -10 -3 5 1 11 7 13
9 4 10 6 1 6 -6 1 -15 -3 -18 -9 -9 -15 -25 -12 -25 5 0 8 6 14 12 13 7 -2 14
7 16 19 3 18 0 22 -15 17 -13 -4 -11 0 7 16 22 19 22 20 3 11 -14 -7 -24 -8
-28 -1 -3 5 -3 10 2 11 4 0 16 2 26 4 9 2 25 -4 33 -13 15 -15 16 -14 9 6 -4
13 -2 29 5 37 8 10 8 15 -1 21 -8 5 -9 3 -4 -6z"/>
<path d="M3935 2670 c3 -5 8 -10 11 -10 2 0 4 5 4 10 0 6 -5 10 -11 10 -5 0
-7 -4 -4 -10z"/>
<path d="M3727 2653 c-4 -3 -7 -11 -7 -17 0 -6 5 -5 12 2 6 6 9 14 7 17 -3 3
-9 2 -12 -2z"/>
<path d="M4315 2650 c-13 -6 -15 -9 -5 -9 8 0 22 4 30 9 18 12 2 12 -25 0z"/>
<path d="M3927 2632 c4 -9 2 -13 -4 -9 -7 4 -10 1 -9 -8 3 -21 13 -28 22 -14
5 8 3 10 -6 4 -9 -5 -11 -4 -6 3 11 19 25 14 23 -7 0 -11 -5 -17 -9 -15 -14 9
-9 -13 6 -25 27 -22 42 28 19 63 -15 24 -44 31 -36 8z"/>
<path d="M697 2628 c4 -7 6 -21 4 -31 -2 -16 0 -17 19 -7 21 11 22 37 1 33 -6
-2 -11 2 -11 7 0 6 -5 10 -11 10 -6 0 -7 -5 -2 -12z"/>
<path d="M4349 2631 c8 -5 11 -17 7 -32 -6 -21 -5 -22 4 -6 13 21 6 47 -12 47
-10 0 -10 -2 1 -9z"/>
<path d="M4313 2614 c-3 -8 -1 -20 6 -27 18 -18 13 -28 -8 -15 -11 7 -17 17
-13 23 3 5 -1 4 -10 -2 -8 -7 -18 -10 -22 -6 -4 4 -4 0 0 -10 4 -13 13 -16 28
-11 l21 7 -20 -23 c-11 -12 -19 -24 -17 -26 1 -2 2 -7 2 -11 0 -5 -5 -1 -10 7
-5 8 -10 10 -10 5 0 -6 9 -18 20 -28 11 -9 20 -12 20 -7 0 6 9 10 20 10 11 0
20 4 20 10 0 5 -6 7 -13 4 -8 -3 -20 2 -27 11 -12 14 -11 16 11 12 13 -2 18
-2 12 0 -17 6 -17 24 -1 21 7 -2 13 7 14 18 0 12 4 26 8 32 3 5 -1 13 -9 16
-9 3 -18 -1 -22 -10z"/>
<path d="M4390 2621 c0 -6 4 -12 8 -15 5 -3 9 1 9 9 0 8 -4 15 -9 15 -4 0 -8
-4 -8 -9z"/>
<path d="M3636 2612 c-3 -5 1 -9 9 -9 8 0 12 4 9 9 -3 4 -7 8 -9 8 -2 0 -6 -4
-9 -8z"/>
<path d="M3890 2597 c0 -16 4 -26 9 -22 5 3 12 2 15 -3 2 -4 -4 -9 -15 -9 -10
-1 -19 2 -19 8 0 5 -9 1 -21 -9 -59 -50 -82 -73 -68 -67 10 4 20 1 24 -4 3 -6
11 -9 16 -6 5 4 12 -1 15 -10 6 -14 9 -12 19 7 12 24 10 38 -6 38 -6 0 -7 -6
-3 -12 4 -7 4 -10 -1 -6 -4 4 -13 3 -20 -2 -8 -7 -12 -5 -12 5 0 8 5 11 10 8
6 -4 7 -1 2 7 -6 9 -4 11 5 5 9 -6 11 -4 5 5 -6 9 -4 11 5 5 8 -5 11 -4 6 3
-9 14 34 7 48 -9 8 -8 5 -8 -11 0 -24 12 -31 3 -12 -16 8 -8 8 -13 0 -17 -15
-10 -14 -39 2 -33 6 2 11 10 9 17 -2 7 7 23 19 36 16 17 18 24 8 24 -11 0 -11
2 -1 9 11 6 9 15 -7 42 l-21 34 0 -28z"/>
<path d="M3590 2590 c0 -5 5 -10 11 -10 5 0 7 5 4 10 -3 6 -8 10 -11 10 -2 0
-4 -4 -4 -10z"/>
<path d="M4366 2575 c-19 -29 -22 -46 -3 -20 8 10 19 15 25 11 6 -3 14 -2 17
4 4 6 1 9 -7 8 -7 -2 -12 3 -10 10 3 19 -4 14 -22 -13z"/>
<path d="M1141 2572 c-8 -14 -6 -19 5 -19 7 0 12 3 9 5 -3 3 0 11 6 19 8 9 8
13 1 13 -6 0 -16 -8 -21 -18z"/>
<path d="M3689 2568 c14 -19 32 -15 30 5 0 8 -2 8 -6 -1 -4 -10 -8 -10 -21 0
-15 12 -16 11 -3 -4z"/>
<path d="M3590 2566 c0 -2 8 -10 18 -17 15 -13 16 -12 3 4 -13 16 -21 21 -21
13z"/>
<path d="M3635 2562 c-11 -11 -4 -22 14 -22 11 0 21 -5 23 -12 3 -8 11 -9 24
-3 18 8 18 9 -3 12 -13 3 -23 10 -23 17 0 12 -25 18 -35 8z"/>
<path d="M1070 2540 c-8 -5 -10 -10 -5 -10 6 0 17 5 25 10 8 5 11 10 5 10 -5
0 -17 -5 -25 -10z"/>
<path d="M3790 2530 c0 -5 5 -10 11 -10 5 0 7 5 4 10 -3 6 -8 10 -11 10 -2 0
-4 -4 -4 -10z"/>
<path d="M4205 2532 c3 -3 0 -11 -6 -19 -6 -7 -7 -13 -3 -13 5 0 14 8 21 18 9
15 8 19 -3 19 -8 0 -12 -3 -9 -5z"/>
<path d="M4395 2530 c-3 -5 -1 -10 4 -10 6 0 11 5 11 10 0 6 -2 10 -4 10 -3 0
-8 -4 -11 -10z"/>
<path d="M4350 2520 c0 -5 5 -10 11 -10 5 0 7 5 4 10 -3 6 -8 10 -11 10 -2 0
-4 -4 -4 -10z"/>
<path d="M3536 2497 c3 -10 9 -15 12 -12 3 3 0 11 -7 18 -10 9 -11 8 -5 -6z"/>
<path d="M1070 2490 c0 -5 5 -10 11 -10 5 0 7 5 4 10 -3 6 -8 10 -11 10 -2 0
-4 -4 -4 -10z"/>
<path d="M3565 2490 c-3 -6 1 -7 9 -4 18 7 21 14 7 14 -6 0 -13 -4 -16 -10z"/>
<path d="M4137 2486 c-4 -10 -1 -13 8 -9 8 3 12 9 9 14 -7 12 -11 11 -17 -5z"/>
<path d="M4310 2480 c0 -6 7 -10 15 -10 8 0 15 2 15 4 0 2 -7 6 -15 10 -8 3
-15 1 -15 -4z"/>
<path d="M523 2465 c0 -7 6 -11 14 -8 7 3 13 6 13 8 0 2 -6 5 -13 8 -8 3 -14
-1 -14 -8z"/>
<path d="M688 2436 c-12 -9 -14 -16 -6 -31 6 -11 7 -16 2 -12 -4 4 -14 -3 -22
-15 -7 -13 -11 -15 -8 -6 3 12 1 15 -10 11 -20 -7 -18 -21 5 -28 11 -3 18 -12
15 -19 -3 -7 2 -13 10 -13 8 0 13 4 11 8 -9 13 46 16 60 3 17 -18 22 -18 22 1
0 8 -2 13 -5 10 -5 -5 -62 23 -62 31 0 3 5 2 10 -1 15 -9 32 4 23 18 -4 7 -8
18 -10 26 -3 23 -17 30 -35 17z m26 -18 c1 -7 6 -20 11 -28 8 -13 7 -13 -8 -1
-9 7 -14 17 -11 22 3 5 0 9 -6 9 -6 0 -8 5 -5 11 8 12 16 7 19 -13z"/>
<path d="M3626 2425 c-13 -10 -24 -11 -37 -5 -12 7 -20 7 -24 0 -7 -12 -7 -12
25 -15 13 -1 26 -8 28 -14 3 -8 9 -6 19 6 8 10 11 11 7 3 -7 -13 -6 -13 11 0
10 8 20 14 22 13 1 -2 3 -1 3 2 0 25 -2 28 -11 12 -6 -9 -15 -15 -20 -12 -5 4
-7 11 -4 16 8 12 3 11 -19 -6z"/>
<path d="M4295 2431 c-3 -5 0 -13 6 -17 7 -4 9 -3 5 4 -3 5 0 13 6 15 9 4 10
6 1 6 -6 1 -14 -3 -18 -8z"/>
<path d="M500 2421 c0 -6 4 -13 10 -16 6 -3 7 1 4 9 -7 18 -14 21 -14 7z"/>
<path d="M4112 2404 c-15 -16 -16 -29 -2 -29 6 0 15 -7 21 -15 9 -12 10 -12 5
4 -4 10 -1 26 6 34 8 10 9 13 1 9 -6 -4 -13 -3 -15 2 -1 5 -9 3 -16 -5z"/>
<path d="M3990 2400 c-8 -5 -12 -12 -9 -15 4 -3 12 1 19 10 14 17 11 19 -10 5z"/>
<path d="M4260 2369 c0 -5 5 -7 10 -4 6 3 10 8 10 11 0 2 -4 4 -10 4 -5 0 -10
-5 -10 -11z"/>
<path d="M3769 2340 c-31 -26 -15 -26 18 0 14 11 21 20 15 20 -5 0 -20 -9 -33
-20z"/>
<path d="M449 2333 c-13 -16 -12 -17 4 -4 9 7 17 15 17 17 0 8 -8 3 -21 -13z"/>
<path d="M410 2331 c0 -6 4 -13 10 -16 6 -3 7 1 4 9 -7 18 -14 21 -14 7z"/>
<path d="M777 2314 c-4 -4 -7 -14 -7 -23 0 -11 3 -12 11 -4 6 6 10 16 7 23 -2
6 -7 8 -11 4z"/>
<path d="M883 2303 c-29 -6 -30 -19 -2 -26 12 -3 18 -3 15 0 -3 4 -1 12 5 20
6 7 10 12 8 12 -2 -1 -14 -4 -26 -6z"/>
<path d="M395 2291 c-3 -5 -2 -12 3 -15 5 -3 9 1 9 9 0 17 -3 19 -12 6z"/>
<path d="M808 2286 c-9 -7 -16 -22 -15 -34 1 -14 5 -18 13 -12 6 6 14 7 17 3
4 -3 7 0 7 8 0 12 2 11 10 -1 7 -12 9 -10 7 7 -1 17 -5 20 -19 12 -20 -11 -24
1 -6 19 16 16 8 15 -14 -2z"/>
<path d="M3800 2270 c-13 -8 -13 -10 2 -10 9 0 20 5 23 10 8 13 -5 13 -25 0z"/>
<path d="M4188 2263 c7 -3 16 -2 19 1 4 3 -2 6 -13 5 -11 0 -14 -3 -6 -6z"/>
<path d="M1095 2240 c-4 -6 -4 -14 -1 -17 3 -3 1 -12 -5 -19 -7 -8 -7 -14 1
-19 5 -3 14 2 18 12 9 23 28 27 36 7 5 -12 2 -15 -9 -10 -9 3 -14 2 -10 -3 3
-5 -1 -12 -7 -14 -10 -4 -10 -6 0 -6 6 -1 12 -6 12 -12 0 -5 -4 -7 -10 -4 -5
3 -10 1 -10 -4 0 -13 10 -14 29 -2 10 6 10 10 1 16 -8 5 -5 12 10 22 22 15 22
16 4 27 -11 6 -23 11 -27 11 -4 0 -12 6 -16 14 -6 10 -10 10 -16 1z"/>
<path d="M3983 2243 c-8 -3 -5 -12 9 -28 13 -15 26 -21 32 -16 6 4 24 7 39 6
15 -1 30 2 33 6 2 4 -4 6 -16 4 -11 -2 -22 1 -25 6 -4 5 -11 7 -16 4 -5 -4 -9
-1 -9 6 0 7 -3 9 -7 6 -3 -4 -11 -3 -17 2 -6 4 -16 6 -23 4z m47 -29 c0 -8
-19 -13 -24 -6 -3 5 1 9 9 9 8 0 15 -2 15 -3z"/>
<path d="M1056 2221 c-4 -5 -2 -12 3 -15 5 -4 12 -2 15 3 4 5 2 12 -3 15 -5 4
-12 2 -15 -3z"/>
<path d="M319 2183 c-13 -16 -12 -17 4 -4 9 7 17 15 17 17 0 8 -8 3 -21 -13z"/>
<path d="M659 2198 c-6 -20 -6 -37 0 -33 5 2 19 -7 31 -20 22 -23 25 -24 42
-8 21 19 37 10 19 -11 -8 -10 -9 -16 -1 -21 5 -3 10 0 10 7 0 10 2 10 9 -1 5
-8 17 -16 25 -17 9 -1 14 2 10 7 -3 5 2 12 10 15 9 3 14 10 11 14 -2 4 7 8 21
8 31 0 51 16 33 27 -8 6 -10 4 -4 -5 5 -8 3 -11 -6 -8 -8 3 -15 10 -15 16 -1
7 -2 15 -3 19 0 4 -14 -5 -29 -20 -18 -17 -32 -23 -38 -17 -5 5 -29 10 -54 12
-45 3 -72 16 -63 31 2 4 2 7 -1 7 -3 0 -6 -1 -7 -2z m188 -40 c2 -17 0 -19 -6
-9 -7 11 -12 10 -22 -8 -16 -25 -34 -27 -43 -5 -5 13 -4 14 7 6 11 -9 19 -6
37 13 13 14 24 25 25 25 0 0 2 -10 2 -22z"/>
<path d="M4165 2190 c-3 -6 1 -7 9 -4 18 7 21 14 7 14 -6 0 -13 -4 -16 -10z"/>
<path d="M3971 2166 c-14 -15 -19 -26 -13 -26 7 0 11 -3 11 -7 -4 -24 2 -53
12 -53 5 0 8 4 4 9 -3 5 -1 12 5 16 6 4 8 11 4 16 -3 5 -9 7 -13 5 -4 -3 -7 4
-8 14 -1 11 2 22 8 25 5 4 9 1 9 -4 0 -21 2 -26 12 -38 14 -17 25 -16 25 2 0
8 -4 12 -9 9 -4 -3 -8 -1 -8 5 0 5 5 13 10 16 6 3 10 12 9 18 0 8 -2 8 -6 -1
-4 -10 -8 -9 -17 3 -10 14 -14 13 -35 -9z"/>
<path d="M341 2166 c-10 -12 -9 -14 5 -12 10 2 20 8 22 14 5 17 -13 15 -27 -2z"/>
<path d="M965 2145 c-13 -10 -14 -15 -5 -12 8 2 20 -3 26 -11 13 -18 48 -26
37 -9 -4 7 0 8 11 4 11 -4 15 -3 11 4 -4 6 -14 8 -22 5 -11 -5 -14 -2 -9 11 5
16 5 16 -8 0 -14 -18 -15 -18 -18 3 -3 20 -4 20 -23 5z"/>
<path d="M4136 2145 c-9 -26 -7 -32 5 -12 6 10 9 21 6 23 -2 3 -7 -2 -11 -11z"/>
<path d="M319 2123 c-13 -17 -13 -17 6 -3 11 8 22 16 24 17 2 2 0 3 -6 3 -6 0
-17 -8 -24 -17z"/>
<path d="M653 2134 c7 -13 -16 -38 -26 -28 -3 3 -5 -7 -5 -23 1 -21 6 -29 21
-30 10 -1 21 -4 24 -7 7 -7 -6 -26 -18 -26 -6 0 -7 5 -3 12 4 7 3 8 -5 4 -9
-6 -9 -11 1 -24 11 -13 10 -15 -5 -9 -10 4 -16 3 -13 -2 6 -9 -23 -39 -31 -33
-3 2 -8 0 -11 -4 -4 -4 -2 -4 5 0 6 3 14 2 17 -3 7 -11 -23 -25 -49 -22 -26 4
-11 -12 15 -16 11 -2 20 2 20 7 0 6 7 10 16 10 8 0 12 -4 9 -10 -3 -5 -1 -10
5 -10 7 0 9 8 5 19 -6 21 27 47 45 36 5 -3 12 0 16 6 4 7 3 9 -4 5 -6 -3 -13
-2 -17 4 -3 5 1 10 9 10 8 0 18 4 21 10 4 6 -1 7 -12 4 -15 -5 -16 -4 -3 5 8
6 11 11 6 11 -5 0 -3 7 4 15 7 8 18 15 24 15 7 0 7 -3 1 -8 -14 -10 -17 -32
-4 -32 8 0 7 -5 -1 -15 -7 -9 -10 -18 -6 -22 3 -3 6 -1 6 6 0 7 4 10 9 6 6 -3
8 4 6 15 -2 11 -1 20 3 20 4 0 8 12 8 26 1 14 -1 23 -4 20 -3 -3 -14 2 -24 11
-15 14 -18 14 -13 2 10 -26 -18 -41 -41 -23 -18 14 -18 15 3 5 14 -7 24 -8 28
-1 3 5 2 10 -2 10 -5 0 -9 10 -10 21 -1 12 -7 27 -14 33 -9 8 -10 8 -6 0z m-4
-147 c-2 -1 -13 -9 -24 -17 -19 -14 -19 -14 -6 3 7 9 18 17 24 17 6 0 8 -1 6
-3z"/>
<path d="M728 2123 c-16 -19 -13 -48 3 -37 5 3 12 -2 15 -10 3 -9 12 -16 20
-16 17 0 18 10 3 30 -9 12 -10 11 -4 -5 6 -18 4 -18 -15 3 -17 18 -19 26 -10
37 18 21 6 19 -12 -2z"/>
<path d="M940 2110 c0 -6 7 -10 15 -10 8 0 15 2 15 4 0 2 -7 6 -15 10 -8 3
-15 1 -15 -4z"/>
<path d="M495 2101 c-3 -5 -2 -12 3 -15 5 -3 9 1 9 9 0 17 -3 19 -12 6z"/>
<path d="M526 2095 c-3 -10 -2 -23 4 -29 15 -15 22 -2 12 24 -8 21 -9 22 -16
5z"/>
<path d="M3999 2102 c-1 -4 -1 -10 0 -14 1 -10 -39 -31 -46 -24 -7 7 -63 -32
-61 -42 1 -4 -4 -18 -11 -32 -8 -14 -10 -22 -6 -18 5 4 15 2 24 -4 13 -10 14
-10 4 2 -20 22 -16 27 27 28 22 1 40 -3 40 -8 0 -6 6 -10 13 -10 6 1 2 9 -11
20 -12 10 -31 17 -42 15 -11 -2 -23 1 -26 7 -5 7 -2 8 6 3 8 -5 11 -4 6 3 -4
7 1 10 14 7 11 -2 20 1 20 7 0 6 3 8 7 5 3 -4 13 -1 21 6 11 8 14 8 9 0 -4 -6
-3 -14 3 -18 5 -3 10 -12 10 -18 -1 -7 -6 -5 -13 5 -8 10 -18 13 -26 9 -9 -6
-6 -10 11 -16 49 -15 50 -15 34 10 -9 13 -12 26 -7 29 5 3 11 -1 15 -9 3 -8
11 -15 18 -15 10 0 10 2 -1 9 -11 7 -10 11 5 20 17 11 16 11 -6 5 -20 -5 -23
-4 -12 7 6 7 12 16 12 20 0 9 -30 20 -31 11z m15 -11 c3 -5 -2 -15 -12 -22
-15 -12 -16 -12 -5 2 7 9 10 19 6 22 -3 4 -4 7 0 7 3 0 8 -4 11 -9z"/>
<path d="M286 2084 c-6 -15 -4 -15 11 -3 10 7 20 15 22 16 2 2 -3 3 -11 3 -9
0 -19 -7 -22 -16z"/>
<path d="M255 2070 c3 -5 8 -10 11 -10 2 0 4 5 4 10 0 6 -5 10 -11 10 -5 0 -7
-4 -4 -10z"/>
<path d="M1020 2061 c0 -6 4 -13 10 -16 6 -3 7 1 4 9 -7 18 -14 21 -14 7z"/>
<path d="M454 2049 c-2 -4 5 -10 16 -14 20 -6 40 0 40 14 0 9 -50 9 -56 0z"/>
<path d="M1055 2040 c4 -6 11 -8 16 -5 14 9 11 15 -7 15 -8 0 -12 -5 -9 -10z"/>
<path d="M1081 2036 c-7 -8 -18 -14 -24 -12 -7 1 -9 1 -4 -1 4 -3 5 -8 3 -12
-3 -4 4 -8 15 -8 10 -1 19 2 19 8 0 5 5 9 11 9 5 0 7 -5 3 -12 -4 -7 -3 -8 5
-4 9 6 9 12 -1 24 -7 10 -13 18 -14 20 -1 1 -7 -4 -13 -12z"/>
<path d="M265 2030 c4 -7 2 -16 -6 -21 -11 -7 -10 -9 4 -9 19 0 23 25 5 36 -7
5 -8 3 -3 -6z"/>
<path d="M925 2030 c3 -5 8 -10 11 -10 2 0 4 5 4 10 0 6 -5 10 -11 10 -5 0 -7
-4 -4 -10z"/>
<path d="M550 2026 c0 -2 9 -6 20 -9 11 -3 20 -1 20 4 0 5 -9 9 -20 9 -11 0
-20 -2 -20 -4z"/>
<path d="M512 2008 c3 -7 12 -14 21 -16 12 -2 15 1 11 12 -7 19 -38 22 -32 4z"/>
<path d="M350 1990 c0 -5 5 -10 11 -10 5 0 7 5 4 10 -3 6 -8 10 -11 10 -2 0
-4 -4 -4 -10z"/>
<path d="M990 1990 c0 -5 5 -10 10 -10 6 0 10 5 10 10 0 6 -4 10 -10 10 -5 0
-10 -4 -10 -10z"/>
<path d="M278 1978 c12 -6 22 -15 22 -20 0 -5 -4 -7 -8 -4 -5 3 -16 -4 -25
-15 -9 -10 -12 -19 -7 -19 6 0 13 7 16 15 4 8 10 13 14 10 5 -3 12 0 16 6 7
12 -21 40 -40 38 -6 0 -1 -5 12 -11z"/>
<path d="M1103 1975 c0 -8 4 -12 9 -9 5 3 6 10 3 15 -9 13 -12 11 -12 -6z"/>
<path d="M215 1970 c3 -5 8 -10 11 -10 2 0 4 5 4 10 0 6 -5 10 -11 10 -5 0 -7
-4 -4 -10z"/>
<path d="M510 1969 c0 -5 5 -7 10 -4 6 3 10 8 10 11 0 2 -4 4 -10 4 -5 0 -10
-5 -10 -11z"/>
<path d="M1192 1967 c-8 -9 -4 -12 18 -12 23 -1 27 2 18 12 -13 16 -23 16 -36
0z"/>
<path d="M3720 1973 c1 -17 27 -42 42 -39 8 1 26 9 39 18 24 16 24 16 -18 14
-24 -2 -43 1 -43 6 0 4 -4 8 -10 8 -5 0 -10 -3 -10 -7z m65 -22 c-9 -8 -36
-10 -30 -2 2 4 11 8 20 8 8 0 13 -3 10 -6z"/>
<path d="M1018 1963 c6 -2 10 -9 6 -14 -3 -5 2 -9 10 -9 9 0 16 7 16 15 0 9
-9 15 -22 14 -13 0 -17 -3 -10 -6z"/>
<path d="M400 1950 c18 -12 30 -13 30 -2 0 4 -10 9 -22 9 -18 2 -20 0 -8 -7z"/>
<path d="M635 1950 c3 -5 11 -10 16 -10 6 0 7 5 4 10 -3 6 -11 10 -16 10 -6 0
-7 -4 -4 -10z"/>
<path d="M490 1932 c0 -5 7 -9 15 -9 8 0 12 4 9 9 -3 4 -9 8 -15 8 -5 0 -9 -4
-9 -8z"/>
<path d="M1000 1922 c-8 -4 -16 -14 -18 -22 -3 -11 2 -10 17 4 28 26 29 30 1
18z"/>
<path d="M270 1910 c-9 -6 -10 -10 -3 -10 6 0 15 5 18 10 8 12 4 12 -15 0z"/>
<path d="M350 1910 c0 -5 5 -10 11 -10 5 0 7 5 4 10 -3 6 -8 10 -11 10 -2 0
-4 -4 -4 -10z"/>
<path d="M395 1910 c-3 -5 -1 -10 4 -10 6 0 11 5 11 10 0 6 -2 10 -4 10 -3 0
-8 -4 -11 -10z"/>
<path d="M3910 1910 c-9 -6 -10 -10 -3 -10 6 0 15 5 18 10 8 12 4 12 -15 0z"/>
<path d="M286 1895 c-18 -14 -18 -14 1 -12 11 0 20 7 20 14 0 7 -1 13 -1 13
-1 0 -9 -7 -20 -15z"/>
<path d="M554 1895 c-10 -8 -14 -15 -7 -15 6 0 15 5 18 11 4 6 13 8 21 5 7 -3
16 -1 19 4 10 15 -29 12 -51 -5z"/>
<path d="M3930 1891 c0 -6 4 -13 10 -16 6 -3 7 1 4 9 -7 18 -14 21 -14 7z"/>
<path d="M364 1860 c0 -13 4 -16 10 -10 7 7 7 13 0 20 -6 6 -10 3 -10 -10z"/>
<path d="M410 1869 c0 -5 -5 -7 -12 -3 -7 4 -8 3 -4 -5 4 -6 11 -9 16 -6 4 3
11 -1 13 -7 4 -10 6 -10 6 0 1 6 11 12 24 12 18 0 19 2 7 10 -20 13 -50 13
-50 -1z"/>
<path d="M540 1849 c0 -5 5 -7 10 -4 6 3 10 8 10 11 0 2 -4 4 -10 4 -5 0 -10
-5 -10 -11z"/>
<path d="M1046 1852 c-3 -2 -2 -10 1 -18 4 -11 7 -11 19 1 8 7 14 15 14 18 0
5 -29 5 -34 -1z"/>
<path d="M1150 1851 c0 -5 8 -8 18 -6 9 1 23 -2 30 -8 8 -6 12 -6 12 2 0 6 -3
11 -7 12 -5 0 -18 2 -30 5 -13 2 -23 0 -23 -5z"/>
<path d="M995 1830 c3 -5 8 -10 11 -10 2 0 4 5 4 10 0 6 -5 10 -11 10 -5 0 -7
-4 -4 -10z"/>
<path d="M3765 1824 c-17 -13 -18 -16 -5 -24 12 -7 10 -9 -7 -7 -12 0 -19 5
-17 9 3 4 3 8 0 8 -7 0 -44 -55 -48 -71 -2 -8 -7 -18 -13 -22 -5 -5 0 -5 13
-2 15 4 24 1 28 -9 3 -9 11 -16 17 -16 5 0 2 10 -9 21 -19 22 -19 22 6 15 14
-3 19 -3 12 0 -10 5 -9 9 5 20 17 13 17 14 0 8 -13 -5 -16 -2 -11 10 7 19 16
20 33 4 10 -11 11 -9 5 6 -6 15 -4 17 7 11 12 -8 12 -6 0 8 -11 14 -11 20 -1
32 16 19 11 19 -15 -1z m-44 -61 c-10 -4 -10 -7 -1 -13 9 -5 8 -9 -3 -13 -13
-5 -16 5 -8 31 1 1 7 2 14 1 8 0 8 -2 -2 -6z"/>
<path d="M1260 1810 c6 -11 13 -20 16 -20 2 0 0 9 -6 20 -6 11 -13 20 -16 20
-2 0 0 -9 6 -20z"/>
<path d="M3821 1814 c0 -11 3 -14 6 -6 3 7 2 16 -1 19 -3 4 -6 -2 -5 -13z"/>
<path d="M398 1813 c7 -3 16 -2 19 1 4 3 -2 6 -13 5 -11 0 -14 -3 -6 -6z"/>
<path d="M1085 1810 c4 -6 11 -8 16 -5 14 9 11 15 -7 15 -8 0 -12 -5 -9 -10z"/>
<path d="M1026 1791 c-4 -6 -2 -11 4 -11 6 0 8 -6 4 -12 -6 -10 -4 -10 7 0 9
9 10 15 2 23 -8 8 -13 8 -17 0z"/>
<path d="M1120 1790 c-8 -5 -10 -10 -5 -10 6 0 11 -9 12 -21 1 -14 -3 -19 -13
-15 -12 4 -12 2 -4 -14 7 -12 16 -17 27 -13 11 4 14 3 9 -5 -4 -7 -1 -12 9
-12 12 0 13 4 7 18 -5 9 -7 23 -5 30 3 7 -1 11 -8 10 -16 -4 -19 24 -4 34 15
12 -7 9 -25 -2z"/>
<path d="M3796 1763 c-6 -14 -5 -15 5 -6 7 7 10 15 7 18 -3 3 -9 -2 -12 -12z"/>
<path d="M1073 1740 c-1 -11 2 -20 7 -20 4 0 7 7 6 15 -3 23 -12 26 -13 5z"/>
<path d="M1232 1732 c2 -18 -4 -22 -20 -13 -14 7 -19 6 -19 -3 0 -9 10 -13 24
-11 15 1 29 -5 38 -19 l15 -20 0 21 c0 12 5 23 10 25 6 2 -3 8 -19 15 -17 6
-30 8 -29 5z"/>
<path d="M962 1698 c2 -5 8 -9 13 -9 5 0 11 4 13 9 1 5 -4 9 -13 9 -9 0 -14
-4 -13 -9z"/>
<path d="M1236 1663 c-6 -14 -5 -15 5 -6 7 7 10 15 7 18 -3 3 -9 -2 -12 -12z"/>
<path d="M3678 1673 c7 -3 16 -2 19 1 4 3 -2 6 -13 5 -11 0 -14 -3 -6 -6z"/>
<path d="M1273 1649 c1 -6 -8 -13 -21 -14 -13 -1 -29 -8 -37 -16 -12 -12 -11
-18 6 -39 12 -14 17 -18 13 -10 -7 13 -6 13 10 1 16 -13 21 -11 47 17 17 18
25 32 19 32 -6 0 -8 5 -4 12 4 7 3 8 -5 4 -6 -4 -9 -11 -6 -16 3 -5 1 -11 -4
-14 -6 -4 -8 7 -6 24 2 16 0 30 -5 30 -6 0 -9 -5 -7 -11z m-43 -39 c0 -5 -5
-10 -11 -10 -5 0 -7 5 -4 10 3 6 8 10 11 10 2 0 4 -4 4 -10z"/>
<path d="M1324 1602 c-18 -11 -35 -50 -25 -56 11 -7 31 16 36 43 4 24 4 24
-11 13z"/>
<path d="M1185 1591 c3 -5 -1 -11 -7 -14 -10 -4 -11 -7 0 -18 9 -10 12 -10 12
0 0 7 5 9 10 6 6 -3 10 0 10 8 0 8 -7 18 -16 21 -8 3 -13 2 -9 -3z"/>
<path d="M3440 1536 c-7 -9 -16 -13 -21 -10 -5 3 -6 -2 -3 -10 3 -8 12 -17 20
-20 8 -3 12 -2 9 3 -3 6 3 14 12 20 13 7 15 13 7 21 -8 8 -14 7 -24 -4z m20 0
c0 -2 -8 -10 -17 -17 -16 -13 -17 -12 -4 4 13 16 21 21 21 13z"/>
<path d="M1308 1508 c2 -10 8 -15 13 -12 14 8 11 31 -5 31 -8 0 -11 -8 -8 -19z"/>
<path d="M3416 1472 c-3 -5 1 -9 9 -9 8 0 12 4 9 9 -3 4 -7 8 -9 8 -2 0 -6 -4
-9 -8z"/>
<path d="M1296 1438 c3 -5 10 -6 15 -3 13 9 11 12 -6 12 -8 0 -12 -4 -9 -9z"/>
<path d="M1427 1403 c3 -7 6 -13 8 -13 2 0 5 6 8 13 3 8 -1 14 -8 14 -7 0 -11
-6 -8 -14z"/>
<path d="M1530 1330 c0 -5 5 -10 11 -10 5 0 7 5 4 10 -3 6 -8 10 -11 10 -2 0
-4 -4 -4 -10z"/>
<path d="M1595 1311 c-3 -6 5 -15 17 -21 21 -10 21 -10 6 3 -10 8 -15 17 -11
20 3 4 4 7 0 7 -3 0 -8 -4 -12 -9z"/>
<path d="M1695 1230 c-3 -5 -1 -10 4 -10 6 0 11 5 11 10 0 6 -2 10 -4 10 -3 0
-8 -4 -11 -10z"/>
<path d="M3000 1190 c-8 -5 -10 -10 -5 -10 6 0 17 5 25 10 8 5 11 10 5 10 -5
0 -17 -5 -25 -10z"/>
<path d="M1895 1180 c-4 -6 -4 -14 -1 -17 3 -3 -2 -12 -12 -20 -16 -13 -15
-13 3 -4 43 22 47 27 31 40 -10 9 -16 9 -21 1z"/>
<path d="M2855 1130 c-3 -6 1 -7 9 -4 18 7 21 14 7 14 -6 0 -13 -4 -16 -10z"/>
<path d="M2125 1120 c-3 -6 1 -7 9 -4 18 7 21 14 7 14 -6 0 -13 -4 -16 -10z"/>
<path d="M2164 1099 c-2 -5 4 -13 15 -19 17 -9 20 -8 14 6 -4 11 -3 15 5 10 6
-3 13 -3 16 2 2 4 -7 8 -20 8 -14 0 -27 -3 -30 -7z"/>
<path d="M2509 1103 c-1 -5 -1 -11 0 -15 0 -5 -3 -8 -9 -8 -5 0 -10 6 -10 13
0 6 -5 4 -11 -7 -9 -14 -7 -22 7 -35 11 -9 13 -9 6 -1 -17 20 -15 35 3 20 10
-8 15 -9 15 -2 0 6 8 9 18 6 16 -5 16 -5 -1 6 -9 6 -15 15 -12 21 4 5 4 9 1 9
-3 0 -7 -3 -7 -7z"/>
<path d="M2313 1076 c0 -24 1 -26 9 -12 6 11 16 15 29 11 14 -5 19 -2 19 12 0
15 -2 16 -10 3 -8 -12 -10 -12 -10 -1 0 10 -3 11 -14 2 -11 -9 -15 -9 -19 1
-2 7 -4 0 -4 -16z"/>
<path d="M2655 1080 c-3 -6 1 -7 9 -4 18 7 21 14 7 14 -6 0 -13 -4 -16 -10z"/>
<path d="M2010 1075 c0 -7 30 -13 34 -7 3 4 -4 9 -15 9 -10 1 -19 0 -19 -2z"/>
<path d="M2600 1070 c-9 -6 -10 -10 -3 -10 6 0 15 5 18 10 8 12 4 12 -15 0z"/>
<path d="M2256 1044 c-5 -13 -4 -14 7 -6 8 7 18 8 22 4 5 -4 5 -1 1 6 -10 17
-23 15 -30 -4z"/>
<path d="M2335 1050 c3 -5 8 -10 11 -10 2 0 4 5 4 10 0 6 -5 10 -11 10 -5 0
-7 -4 -4 -10z"/>
</g>
</svg>
