<?xml version="1.0" encoding="utf-8"?>
<!-- Generator: Adobe Illustrator 25.2.3, SVG Export Plug-In . SVG Version: 6.00 Build 0)  -->
<svg version="1.1" id="Layer_1" xmlns="http://www.w3.org/2000/svg" xmlns:xlink="http://www.w3.org/1999/xlink" x="0px" y="0px"
	 viewBox="0 0 32 32" style="enable-background:new 0 0 32 32;" xml:space="preserve">
<style type="text/css">
	.st0{fill:#FFFFFF;}
</style>
<g>
	<path class="st0" d="M29.6,22.5H12.9c-0.2,0-0.6-0.1-0.7-0.2c0-0.1,0.2-0.5,0.8-1.3l1.1-1.3l15.1-1.6c0.5-0.1,0.9-0.4,1-0.9
		l1.3-10.5c0-0.3-0.1-0.6-0.2-0.8c-0.2-0.2-0.5-0.4-0.8-0.4L9,4.9L7.5,1.3C7.4,1,7,0.7,6.6,0.7L1.4,0.1c-0.6-0.1-1.1,0.4-1.2,1
		s0.4,1.1,1,1.2l4.6,0.5l6.6,15.8l-1,1.1c0,0,0,0,0,0c-0.5,0.5-1.9,2.1-1.2,3.6c0.6,1.4,2.5,1.4,2.7,1.4h16.6c0.6,0,1.1-0.5,1.1-1.1
		C30.6,23,30.1,22.5,29.6,22.5z M9.9,7.1l19.3,0.6l-1.1,8.5l-13.9,1.4L9.9,7.1z"/>
	<path class="st0" d="M27.2,25.4c-1.8,0-3.2,1.5-3.2,3.2c0,1.8,1.5,3.2,3.2,3.2s3.2-1.5,3.2-3.2C30.5,26.8,29,25.4,27.2,25.4z
		 M27.2,29.7c-0.6,0-1.1-0.5-1.1-1.1c0-0.6,0.5-1.1,1.1-1.1s1.1,0.5,1.1,1.1C28.3,29.2,27.8,29.7,27.2,29.7z"/>
	<path class="st0" d="M13.3,25.4c-1.8,0-3.2,1.5-3.2,3.2c0,1.8,1.5,3.2,3.2,3.2c1.8,0,3.2-1.5,3.2-3.2
		C16.6,26.8,15.1,25.4,13.3,25.4z M13.3,29.7c-0.6,0-1.1-0.5-1.1-1.1c0-0.6,0.5-1.1,1.1-1.1s1.1,0.5,1.1,1.1
		C14.4,29.2,13.9,29.7,13.3,29.7z"/>
</g>
</svg>
