<?xml version="1.0" encoding="utf-8"?>
<!-- Generator: Adobe Illustrator 25.2.3, SVG Export Plug-In . SVG Version: 6.00 Build 0)  -->
<svg version="1.1" id="Layer_1" xmlns="http://www.w3.org/2000/svg" xmlns:xlink="http://www.w3.org/1999/xlink" x="0px" y="0px"
	 viewBox="0 0 55 55" style="enable-background:new 0 0 55 55;" xml:space="preserve">
<style type="text/css">
	.st0{fill:#002566;}
</style>
<path class="st0" d="M53.6,9.02l-3.85-3.85c-0.74-0.74-1.95-0.74-2.7,0L24.82,27.42L18.2,20.8c-0.44-0.44-1.16-0.44-1.6,0
	l-4.94,4.94c-0.44,0.44-0.44,1.16,0,1.6l7.7,7.7c0.07,0.1,0.15,0.2,0.24,0.29l3.85,3.85c0.09,0.09,0.19,0.17,0.29,0.24l0.31,0.31
	c0.44,0.44,1.16,0.44,1.6,0l4.94-4.94c0.07-0.07,0.13-0.15,0.18-0.23L53.6,11.72C54.34,10.98,54.34,9.77,53.6,9.02z"/>
<g>
	<g>
		<path class="st0" d="M42.65,26.04c-0.46,0.46-0.71,1.09-0.69,1.74c0.01,0.2,0.01,0.4,0.01,0.6c0,9.51-7.71,17.22-17.22,17.22
			c-9.52,0-17.22-7.7-17.22-17.22c0-9.51,7.71-17.22,17.22-17.22c3.25,0,6.3,0.9,8.89,2.47c0.59,0.35,1.34,0.26,1.82-0.22l2.88-2.88
			c0.44-0.44,0.37-1.17-0.14-1.53c-3.82-2.66-8.46-4.21-13.46-4.21c-13.03,0-23.59,10.56-23.59,23.59
			c0,13.02,10.57,23.59,23.59,23.59c13.03,0,23.59-10.56,23.59-23.59c0-1.81-0.2-3.58-0.59-5.28c-0.18-0.77-1.12-1.04-1.68-0.49
			L42.65,26.04z"/>
	</g>
</g>
</svg>
