<svg id="Layer_1" data-name="Layer 1" xmlns="http://www.w3.org/2000/svg" viewBox="0 0 2228.48 1990.98"><path d="M2713.1,690.1,2551.4,528.4a80.38,80.38,0,0,0-113.36,0l-935,935-278.39-278.39a47.84,47.84,0,0,0-67.47,0L949.55,1392.64a47.84,47.84,0,0,0,0,67.47L1273.41,1784a79.71,79.71,0,0,0,10.08,12.33L1445.2,1958a79.71,79.71,0,0,0,12.33,10.08l12.86,12.86a47.84,47.84,0,0,0,67.47,0l207.59-207.59a47.38,47.38,0,0,0,7.48-9.73L2713.1,803.46A80.38,80.38,0,0,0,2713.1,690.1Z" transform="translate(-508 -505.02)" style="fill:#002566"/><path d="M2252.51,1405.48a98.8,98.8,0,0,0-29,73.21q.43,12.6.44,25.31c0,399.85-324.15,724-724,724-400.29,0-724-323.72-724-724,0-399.85,324.15-724,724-724a720.6,720.6,0,0,1,373.9,103.91,62.61,62.61,0,0,0,76.61-9.41l121.13-121.12a42,42,0,0,0-5.77-64.24C1905.38,577.47,1710.34,512,1500,512c-547.87,0-992,444.13-992,992,0,547.43,444.57,992,992,992,547.87,0,992-444.13,992-992a994.93,994.93,0,0,0-24.93-221.93c-7.37-32.26-47.29-43.87-70.69-20.47Z" transform="translate(-508 -505.02)" style="fill:#002566"/></svg>