<?xml version="1.0" encoding="utf-8"?>
<!-- Generator: Adobe Illustrator 25.2.3, SVG Export Plug-In . SVG Version: 6.00 Build 0)  -->
<svg version="1.1" id="Layer_1" xmlns="http://www.w3.org/2000/svg" xmlns:xlink="http://www.w3.org/1999/xlink" x="0px" y="0px"
	 viewBox="0 0 40 40" style="enable-background:new 0 0 40 40;" xml:space="preserve">
<style type="text/css">
	.st0{fill:#002169;}
</style>
<path class="st0" d="M0.72,19.66c0.11-4.13,1.71-8.43,5.06-12.03c2.61-2.8,5.79-4.65,9.52-5.58c4.23-1.06,8.35-0.7,12.34,0.96
	c3.37,1.4,6.13,3.63,8.24,6.64c2.49,3.56,3.63,7.53,3.37,11.84C39,25.51,37.61,29.15,35,32.27c-3.07,3.67-6.97,5.91-11.67,6.77
	c-4.17,0.76-8.17,0.17-11.92-1.7c-5.14-2.55-8.55-6.61-10.04-12.2C0.96,23.59,0.71,22.03,0.72,19.66z M19.58,38.02
	c1.02-0.09,2.04-0.13,3.05-0.27C29.3,36.84,34.96,32.24,37,25.84c2.01-6.3,0.83-12.11-3.59-17.03c-4.26-4.75-9.73-6.63-16.06-5.74
	c-5.12,0.72-9.21,3.24-12.17,7.5c-2.57,3.7-3.55,7.83-2.88,12.26c0.86,5.75,3.92,10.06,8.99,12.9
	C13.85,37.18,16.64,37.88,19.58,38.02z"/>
<path class="st0" d="M26.39,8.42c0,1.29,0,2.52,0,3.82c-0.31,0.01-0.59,0.03-0.88,0.04c-0.69,0.02-1.38,0-2.06,0.08
	c-0.94,0.11-1.41,0.56-1.46,1.49c-0.06,1.05-0.01,2.11-0.01,3.25c1.42,0.08,2.82-0.02,4.29,0.05c-0.19,1.45-0.37,2.84-0.55,4.3
	c-1.25,0-2.46,0-3.75,0c-0.03,3.71,0.01,7.36-0.02,10.98c-0.46,0.15-3.23,0.19-4.45,0.08c-0.01-0.23-0.04-0.48-0.04-0.72
	c0-3.14,0-6.29-0.01-9.43c0-0.27,0-0.54,0-0.87c-1.28,0-2.49,0-3.67,0c-0.14-0.51-0.16-3.68-0.04-4.33c1.2,0,2.41,0,3.68,0
	c0.01-0.27,0.03-0.48,0.03-0.69c0-1-0.03-2.01,0.01-3.01c0.07-1.53,0.56-2.89,1.75-3.92c0.84-0.73,1.84-1.13,2.94-1.23
	C23.55,8.19,24.94,8.27,26.39,8.42z"/>
</svg>
