<?xml version="1.0" encoding="utf-8"?>
<!-- Generator: Adobe Illustrator 25.2.3, SVG Export Plug-In . SVG Version: 6.00 Build 0)  -->
<svg version="1.1" id="Layer_1" xmlns="http://www.w3.org/2000/svg" xmlns:xlink="http://www.w3.org/1999/xlink" x="0px" y="0px"
	 viewBox="0 0 40 40" style="enable-background:new 0 0 40 40;" xml:space="preserve">
<style type="text/css">
	.st0{fill:#002169;}
</style>
<path class="st0" d="M0.72,19.66c0.11-4.13,1.71-8.43,5.06-12.03c2.61-2.8,5.79-4.65,9.52-5.58c4.23-1.06,8.35-0.7,12.34,0.96
	c3.37,1.4,6.13,3.63,8.24,6.64c2.49,3.56,3.63,7.53,3.37,11.84C39,25.51,37.61,29.15,35,32.27c-3.07,3.67-6.97,5.91-11.67,6.77
	c-4.17,0.76-8.17,0.17-11.92-1.7c-5.14-2.55-8.55-6.61-10.04-12.2C0.96,23.59,0.71,22.03,0.72,19.66z M19.58,38.02
	c1.02-0.09,2.04-0.13,3.05-0.27C29.3,36.84,34.96,32.24,37,25.84c2.01-6.3,0.83-12.11-3.59-17.03c-4.26-4.75-9.73-6.63-16.06-5.74
	c-5.12,0.72-9.21,3.24-12.17,7.5c-2.57,3.7-3.55,7.83-2.88,12.26c0.86,5.75,3.92,10.06,8.99,12.9
	C13.85,37.18,16.64,37.88,19.58,38.02z"/>
<path class="st0" d="M19.6,32.54c-1.75-0.05-3.49-0.08-5.24-0.14c-1.23-0.05-2.41-0.34-3.46-1.01c-1.61-1.02-2.54-2.5-2.78-4.38
	c-0.15-1.17-0.2-2.35-0.2-3.52C7.92,21.01,7.95,18.54,8,16.06c0.03-1.29,0.34-2.53,1.07-3.63c1.05-1.59,2.58-2.47,4.44-2.7
	c1.4-0.17,2.82-0.19,4.23-0.2c2.1-0.02,4.2,0.02,6.3,0.05c0.89,0.01,1.76,0.1,2.62,0.36c2.35,0.72,3.79,2.29,4.33,4.67
	c0.3,1.31,0.26,2.66,0.27,3.99c0.01,2.22-0.01,4.44-0.03,6.66c-0.01,0.98-0.12,1.96-0.44,2.9c-0.73,2.12-2.21,3.43-4.36,4
	c-1.13,0.3-2.3,0.29-3.45,0.33c-1.12,0.04-2.24,0.01-3.36,0.01C19.61,32.51,19.6,32.53,19.6,32.54z M9.98,21c0.01,0,0.03,0,0.04,0
	c0,1.08-0.03,2.16,0.01,3.24c0.03,0.88,0.06,1.77,0.21,2.64c0.29,1.65,1.23,2.8,2.9,3.2c0.79,0.19,1.63,0.29,2.44,0.3
	c2.61,0.04,5.22,0.04,7.83,0.02c0.8-0.01,1.61-0.08,2.4-0.24c1.62-0.34,2.68-1.33,3.06-2.98c0.11-0.49,0.18-1.01,0.21-1.51
	c0.05-1.04,0.06-2.08,0.06-3.12c-0.01-2.14-0.04-4.28-0.07-6.42c-0.01-0.35-0.06-0.71-0.14-1.05c-0.43-1.94-1.68-3.1-3.73-3.29
	c-3.54-0.32-7.1-0.2-10.65-0.08c-0.67,0.02-1.32,0.17-1.95,0.42c-1.04,0.42-1.8,1.13-2.13,2.21c-0.19,0.63-0.32,1.3-0.36,1.96
	C10.02,17.86,10.02,19.43,9.98,21z"/>
<path class="st0" d="M25.58,21.04c-0.04,3.29-2.78,5.94-6.1,5.88c-3.27-0.05-5.93-2.75-5.89-5.97c0.04-3.24,2.76-5.91,6.07-5.86
	C23.1,15.16,25.6,17.94,25.58,21.04z M23.46,21.09c0.03-2.16-1.7-3.89-3.95-3.88c-1.96,0.01-3.78,1.49-3.82,3.77
	c-0.03,2.11,1.71,3.84,3.86,3.87C21.68,24.87,23.43,23.19,23.46,21.09z"/>
<path class="st0" d="M25.82,16.26c-0.79,0.01-1.38-0.57-1.4-1.36c-0.02-0.76,0.6-1.38,1.37-1.39c0.76-0.01,1.41,0.62,1.41,1.36
	C27.22,15.62,26.59,16.25,25.82,16.26z"/>
</svg>
