<svg id="Layer_1" data-name="Layer 1" xmlns="http://www.w3.org/2000/svg" viewBox="0 0 3000 504.45"><polygon points="265.2 401.55 101.3 504.45 148.51 316.77 0 192.68 193.09 179.59 265.2 0 337.32 179.59 530.41 192.68 381.9 316.77 429.11 504.45 265.2 401.55" style="fill:#ffc300"/><polygon points="882.6 401.55 718.7 504.45 765.91 316.77 617.4 192.68 810.49 179.59 882.6 0 954.72 179.59 1147.81 192.68 999.29 316.77 1046.51 504.45 882.6 401.55" style="fill:#ffc300"/><polygon points="1500 401.55 1336.1 504.45 1383.31 316.77 1234.8 192.68 1427.88 179.59 1500 0 1572.12 179.59 1765.2 192.68 1616.69 316.77 1663.91 504.45 1500 401.55" style="fill:#ffc300"/><polygon points="2117.4 401.55 1953.49 504.45 2000.71 316.77 1852.19 192.68 2045.28 179.59 2117.4 0 2189.52 179.59 2382.6 192.68 2234.09 316.77 2281.3 504.45 2117.4 401.55" style="fill:#ffc300"/><polygon points="2734.8 401.55 2570.89 504.45 2618.1 316.77 2469.59 192.68 2662.68 179.59 2734.8 0 2806.91 179.59 3000 192.68 2851.49 316.77 2898.7 504.45 2734.8 401.55" style="fill:#ffc300"/></svg>