<?xml version="1.0" encoding="utf-8"?>
<!-- Generator: Adobe Illustrator 25.2.3, SVG Export Plug-In . SVG Version: 6.00 Build 0)  -->
<svg version="1.1" id="Layer_1" xmlns="http://www.w3.org/2000/svg" xmlns:xlink="http://www.w3.org/1999/xlink" x="0px" y="0px"
	 viewBox="0 0 40 40" style="enable-background:new 0 0 40 40;" xml:space="preserve">
<style type="text/css">
	.st0{fill:#002169;}
</style>
<path class="st0" d="M0.72,19.66c0.11-4.13,1.71-8.43,5.06-12.03c2.61-2.8,5.79-4.65,9.52-5.58c4.23-1.06,8.35-0.7,12.34,0.96
	c3.37,1.4,6.13,3.63,8.24,6.64c2.49,3.56,3.63,7.53,3.37,11.84C39,25.51,37.61,29.15,35,32.27c-3.07,3.67-6.97,5.91-11.67,6.77
	c-4.17,0.76-8.17,0.17-11.92-1.7c-5.14-2.55-8.55-6.61-10.04-12.2C0.96,23.59,0.71,22.03,0.72,19.66z M19.58,38.02
	c1.02-0.09,2.04-0.13,3.05-0.27C29.3,36.84,34.96,32.24,37,25.84c2.01-6.3,0.83-12.11-3.59-17.03c-4.26-4.75-9.73-6.63-16.06-5.74
	c-5.12,0.72-9.21,3.24-12.17,7.5c-2.57,3.7-3.55,7.83-2.88,12.26c0.86,5.75,3.92,10.06,8.99,12.9
	C13.85,37.18,16.64,37.88,19.58,38.02z"/>
<path class="st0" d="M20.93,12.2c2.27,0.09,5.06,0.19,7.84,0.3c0.81,0.03,1.54,0.27,2.16,0.81c0.69,0.61,0.97,1.43,1.09,2.29
	c0.14,1.01,0.24,2.03,0.26,3.05c0.03,1.55,0.01,3.11-0.05,4.66c-0.04,1.02-0.09,2.04-0.45,3.02c-0.44,1.22-1.27,1.97-2.57,2.12
	c-0.7,0.08-1.41,0.14-2.11,0.17c-4.48,0.2-8.96,0.17-13.44-0.01c-0.71-0.03-1.41-0.1-2.11-0.2c-1.24-0.18-2.12-0.84-2.45-2.07
	c-0.19-0.68-0.34-1.38-0.4-2.08c-0.23-2.77-0.26-5.54,0.1-8.3c0.07-0.56,0.23-1.12,0.44-1.64c0.38-0.97,1.15-1.54,2.16-1.71
	c0.71-0.12,1.44-0.18,2.17-0.21C15.85,12.32,18.13,12.27,20.93,12.2z M24.28,20.38c-2.17-1.11-4.19-2.18-6.28-3.22
	c0,2.23,0,4.35,0,6.58C20.1,22.62,22.13,21.54,24.28,20.38z"/>
</svg>
