<svg id="Layer_1" data-name="Layer 1" xmlns="http://www.w3.org/2000/svg" viewBox="0 0 38.57 37.9"><path d="M278.11,420.27a18.33,18.33,0,0,1,5.06-12,19,19,0,0,1,9.51-5.58,19.24,19.24,0,0,1,12.35,1,18.62,18.62,0,0,1,8.24,6.63,18.63,18.63,0,0,1-.88,22.62,19.23,19.23,0,0,1-11.67,6.77,18.66,18.66,0,0,1-11.92-1.7,18.39,18.39,0,0,1-10-12.2A19.57,19.57,0,0,1,278.11,420.27ZM297,438.62c1-.08,2-.13,3-.26a17.53,17.53,0,0,0,14.37-11.92,16.59,16.59,0,0,0-3.59-17,18.1,18.1,0,0,0-28.22,1.77,16.52,16.52,0,0,0-2.88,12.26,17.09,17.09,0,0,0,9,12.9A18.48,18.48,0,0,0,297,438.62Z" transform="translate(-278.11 -402.06)" style="fill:#002169"/><path d="M303.79,409v3.82l-.88,0a20.15,20.15,0,0,0-2.06.08,1.44,1.44,0,0,0-1.46,1.48c-.06,1.05,0,2.12,0,3.25,1.41.08,2.82,0,4.28.05l-.55,4.3h-3.75c0,3.71,0,7.36,0,11a23.85,23.85,0,0,1-4.44.07c0-.23,0-.47,0-.72,0-3.14,0-6.29,0-9.43v-.87h-3.67a23.17,23.17,0,0,1,0-4.34h3.68c0-.27,0-.47,0-.68,0-1,0-2,0-3a5.27,5.27,0,0,1,1.75-3.92,5.07,5.07,0,0,1,2.94-1.23A21.63,21.63,0,0,1,303.79,409Z" transform="translate(-278.11 -402.06)" style="fill:#002169"/></svg>