<svg id="Layer_1" data-name="Layer 1" xmlns="http://www.w3.org/2000/svg" viewBox="0 0 38.58 37.97"><path d="M297.63,440.37a20.39,20.39,0,0,1-9.59-2.45,19.34,19.34,0,0,1-6-5.11,18.71,18.71,0,0,1,.34-23.29,18.72,18.72,0,0,1,11.19-6.72,19,19,0,0,1,16.28,4.1,18,18,0,0,1,5.72,8.07,18.29,18.29,0,0,1,.52,11.12,18.76,18.76,0,0,1-8.23,11.22A19.82,19.82,0,0,1,297.63,440.37Zm-.52-1.4c.36,0,.71,0,1.06,0a17.7,17.7,0,0,0,13-6.25A17.38,17.38,0,0,0,309,407.94a17.66,17.66,0,0,0-15.19-3.8,17.23,17.23,0,0,0-11.14,7.31,16.86,16.86,0,0,0-2.87,12.77A17.09,17.09,0,0,0,286.09,435,17.87,17.87,0,0,0,297.11,439Z" transform="translate(-278.19 -402.4)" style="fill:#002169"/><path d="M297.49,432.89c-1.74-.05-3.49-.07-5.24-.14a6.83,6.83,0,0,1-3.46-1,5.88,5.88,0,0,1-2.78-4.38,32,32,0,0,1-.2-3.52c0-2.48,0-4.95.08-7.43a6.66,6.66,0,0,1,1.07-3.62,5.93,5.93,0,0,1,4.44-2.7,37.1,37.1,0,0,1,4.23-.2c2.1,0,4.2,0,6.3.05a9.24,9.24,0,0,1,2.61.36,5.92,5.92,0,0,1,4.33,4.67,19.09,19.09,0,0,1,.27,4c0,2.22,0,4.44,0,6.66a9,9,0,0,1-.44,2.9,6,6,0,0,1-4.36,4,14.78,14.78,0,0,1-3.45.32c-1.11,0-2.23,0-3.35,0Zm-9.62-11.54h0c0,1.08,0,2.16,0,3.24a19.44,19.44,0,0,0,.21,2.64,3.69,3.69,0,0,0,2.9,3.19,10.67,10.67,0,0,0,2.45.3q3.91.06,7.83,0a12.15,12.15,0,0,0,2.4-.25,3.71,3.71,0,0,0,3.06-3A8.56,8.56,0,0,0,307,426q.07-1.56.06-3.12c0-2.14,0-4.28-.07-6.42a6.16,6.16,0,0,0-.14-1.05,3.91,3.91,0,0,0-3.74-3.29,86,86,0,0,0-10.65-.08,5.73,5.73,0,0,0-1.95.42,3.42,3.42,0,0,0-2.13,2.21,8.15,8.15,0,0,0-.35,2C287.92,418.21,287.91,419.78,287.87,421.35Z" transform="translate(-278.19 -402.4)" style="fill:#002169"/><path d="M303.47,421.39a6,6,0,1,1-5.92-5.94A6,6,0,0,1,303.47,421.39Zm-2.12.05a3.83,3.83,0,0,0-4-3.88,3.78,3.78,0,0,0-3.81,3.77,3.88,3.88,0,0,0,7.76.11Z" transform="translate(-278.19 -402.4)" style="fill:#002169"/></svg>