<svg id="Layer_1" data-name="Layer 1" xmlns="http://www.w3.org/2000/svg" viewBox="0 0 38.56 38.03"><path d="M296.71,440.11a19.35,19.35,0,0,1-16.29-10.26,18.79,18.79,0,0,1-2.11-7.36A18,18,0,0,1,280.63,412a18.73,18.73,0,0,1,11.79-9.21,19.35,19.35,0,0,1,18.18,4.34,18.51,18.51,0,0,1,5.69,9.64,18.26,18.26,0,0,1,.28,7.25,18.52,18.52,0,0,1-2.59,7,19,19,0,0,1-11.83,8.53A20.82,20.82,0,0,1,296.71,440.11Zm18.74-18.28a18.26,18.26,0,0,0-.89-6.21,17.51,17.51,0,0,0-6.94-9.11,17.78,17.78,0,0,0-12.1-3,17.95,17.95,0,0,0-13.88,9.39,17.55,17.55,0,0,0,5.11,22.25,18.1,18.1,0,0,0,24.39-2.63A16.87,16.87,0,0,0,315.45,421.83Z" transform="translate(-278.25 -402.08)" style="fill:#002169"/><path d="M298,412.77l7.84.3a3.31,3.31,0,0,1,2.16.81,3.54,3.54,0,0,1,1.09,2.3,26,26,0,0,1,.26,3.05c0,1.55,0,3.1-.05,4.65a10,10,0,0,1-.44,3,3,3,0,0,1-2.58,2.12c-.7.08-1.4.14-2.11.17-4.48.2-9,.17-13.44,0a16.73,16.73,0,0,1-2.11-.2,2.74,2.74,0,0,1-2.45-2.07,12.4,12.4,0,0,1-.4-2.07,39.7,39.7,0,0,1,.1-8.3,7.64,7.64,0,0,1,.44-1.64,2.7,2.7,0,0,1,2.16-1.72,15.92,15.92,0,0,1,2.17-.2C293,412.89,295.23,412.84,298,412.77Zm3.35,8.18c-2.18-1.11-4.19-2.18-6.28-3.22v6.59Z" transform="translate(-278.25 -402.08)" style="fill:#002169"/></svg>