<svg xmlns="http://www.w3.org/2000/svg" viewBox="0 0 221.29 94.84"><defs><style>.cls-1{fill:#fef100;}.cls-2{fill:#14216a;}.cls-3{fill:#fff;}.cls-4{fill:#fef87f;}</style></defs><g id="Layer_2" data-name="Layer 2"><g id="grease"><g id="dirt-icon"><path class="cls-1" d="M71.49,24.4c.23-.92.45-1.81.68-2.7.12-.46.23-.92.38-1.36a3.78,3.78,0,0,1,2.26-2.45,23.35,23.35,0,0,1,6.31-1.67,5,5,0,0,1,3,.67,1.35,1.35,0,0,0,1.65-.05,3.52,3.52,0,0,1,3-.45,17.52,17.52,0,0,1,3.26,1.28,4,4,0,0,1,1.61,1.68,1.18,1.18,0,0,0,1.41.59c.25-.06.16-.22.14-.37-.12-.77-.23-1.56-.38-2.33a3.74,3.74,0,0,1,1.51-3.92,11.82,11.82,0,0,1,4-1.87,26.12,26.12,0,0,1,4-.85c.52-.07.52-.08.5-.62a4.82,4.82,0,0,1,.24-1.6,32.69,32.69,0,0,1,1.64-4.14A5.52,5.52,0,0,1,111.48,1a25.32,25.32,0,0,1,7.06.32,40.84,40.84,0,0,1,8.53,2.27,15,15,0,0,1,4.55,2.59,12.73,12.73,0,0,1,3.56,5.87A46.87,46.87,0,0,1,136.67,19l0,.27a3.27,3.27,0,0,0,.28,1.3c.23.3.8.12,1.21.21a5.52,5.52,0,0,1,2.24,1.06,14.94,14.94,0,0,1,3.46,4.07c.28-.09.59-.22.91-.3a3.3,3.3,0,0,1,3.72,1.24,1.55,1.55,0,0,0,1.49.67,58.9,58.9,0,0,1,7,0,6.52,6.52,0,0,1,1.45.28,3.66,3.66,0,0,1,2.13,1.67,18.52,18.52,0,0,1,1.6,3.85,31.75,31.75,0,0,1,1.19,5.26c.05.34.11.48.52.48a9.06,9.06,0,0,1,5.22,1.57,4.58,4.58,0,0,1,2,3.39c.07.43.13.85.17,1.27a.48.48,0,0,0,.51.5,12.51,12.51,0,0,1,2.19.36,5.06,5.06,0,0,1,3.05,2.19c.31.47.6,1,.87,1.45a1.5,1.5,0,0,0,1.41.86,69.66,69.66,0,0,1,14.78,2.29,3.15,3.15,0,0,1,2.71,3.1c.22,2.41.65,4.78.93,7.17A2.29,2.29,0,0,0,199,65.08a20.3,20.3,0,0,1,4.29,3.38,7.56,7.56,0,0,1,2.06,3.72c.1.42.22.83.3,1.25a3.34,3.34,0,0,0,1.25,2,14,14,0,0,1,3,3.21A4.63,4.63,0,0,1,210.4,80a2.26,2.26,0,0,1-1.93,2.74,9.88,9.88,0,0,1-2,0,32.13,32.13,0,0,0-6.93.41,54.09,54.09,0,0,1-7.4.56c-3.05,0-6.08.2-9.12.43a123.85,123.85,0,0,1-12.49.26,8.55,8.55,0,0,1-1.95-.2c-.3-.08-.43,0-.51.33a6,6,0,0,1-.93,1.79,4.13,4.13,0,0,1-3.26,1.78,23.4,23.4,0,0,1-3.65.09,11.21,11.21,0,0,0-6.15,1.46l-4.59,2.42a10.55,10.55,0,0,1-4.8,1.19c-2.82,0-5.64.07-8.45,0-3-.12-6-.3-9-.47-1.66-.09-3.32-.21-5-.34a1.89,1.89,0,0,0-1.45.43,4.58,4.58,0,0,1-2.81,1c-1.2.06-2.39.07-3.58,0-4,0-8,.18-12,.11-4.53-.07-9-.37-13.55-.81a98.19,98.19,0,0,1-10-1.4,35.53,35.53,0,0,1-4.18-1.06c-.27-.09-.55-.19-.82-.3a3.16,3.16,0,0,1-2.06-3.12c0-.58,0-1.17.06-1.75,0-.26,0-.4-.35-.41-3-.09-6-.27-9-.27-2.75,0-5.5,0-8.24-.26-2.22-.16-4.44-.44-6.63-.82A2.91,2.91,0,0,1,45.41,82a.85.85,0,0,0-.8-.58c-2.12-.21-4.23-.58-6.38-.64-2.56-.08-5.12-.3-7.69-.44-1.71-.09-3.41-.17-5.12-.35a4.49,4.49,0,0,1-2.54-1,1,1,0,0,1-.48-.91c0-.25-.07-.35-.29-.45A8.34,8.34,0,0,1,19.69,76a3,3,0,0,1-.85-3.09,10.6,10.6,0,0,1,1-2.36c.7-1.36,1.55-2.64,2.35-4a4.87,4.87,0,0,1,3.66-2.26,66.57,66.57,0,0,1,6.9-.81.77.77,0,0,0,.78-.6c.24-.71.53-1.39.74-2.1a7.13,7.13,0,0,1,4.18-4.5,21.57,21.57,0,0,1,2.92-1l1-.29a1.87,1.87,0,0,0,1.37-1.27,5.14,5.14,0,0,1,2.18-2.91.34.34,0,0,0,.15-.4,6.06,6.06,0,0,1,.31-2.86c.42-1.38.94-2.72,1.47-4.06a6,6,0,0,1,4.8-3.78A38.24,38.24,0,0,1,58,39.15c1.45-.07,1.34.06,1.61-1.33.35-1.83.67-3.67,1-5.5a17,17,0,0,1,1.16-3.73,4.94,4.94,0,0,1,2.35-2.42,22.82,22.82,0,0,1,5.13-1.86A4.09,4.09,0,0,1,71.49,24.4Z"/><path class="cls-2" d="M104,94.84h-1.56c-4.31-.07-8.76-.34-13.63-.82a99.11,99.11,0,0,1-10-1.41,37.47,37.47,0,0,1-4.28-1.09l0,0c-.28-.09-.57-.19-.86-.31A4,4,0,0,1,71,87.26c0-.45,0-.9,0-1.3l-2.46-.1c-2-.08-4-.16-6-.15-3.18,0-5.82-.08-8.31-.27-2.24-.17-4.5-.45-6.71-.84a3.72,3.72,0,0,1-3-2.27.17.17,0,0,1,0,0h-.06c-.77-.08-1.54-.17-2.29-.27-1.32-.16-2.69-.33-4-.37-1.65,0-3.32-.16-4.94-.27L30.5,81.2l-.62,0c-1.49-.08-3-.16-4.55-.32a5.48,5.48,0,0,1-3-1.16,2,2,0,0,1-.79-1.33,9.25,9.25,0,0,1-2.44-1.77A3.89,3.89,0,0,1,18,72.67,11.91,11.91,0,0,1,19,70.1c.54-1,1.16-2,1.76-3,.21-.33.42-.67.62-1a5.68,5.68,0,0,1,4.28-2.67,67.18,67.18,0,0,1,7-.82h0c.1-.33.22-.64.33-.95s.29-.76.4-1.13a8,8,0,0,1,4.64-5,22.68,22.68,0,0,1,3-1.09l.28-.08c.23-.07.47-.15.72-.21a1,1,0,0,0,.77-.73,6.28,6.28,0,0,1,2.25-3.17,7.13,7.13,0,0,1,.38-2.95c.44-1.46,1-2.84,1.49-4.13a6.84,6.84,0,0,1,5.45-4.32A40.85,40.85,0,0,1,58,38.27h.68c0-.11,0-.24.07-.36a2.23,2.23,0,0,1,0-.23c.16-.82.31-1.65.46-2.45.18-1,.38-2,.58-3.06a17.49,17.49,0,0,1,1.23-3.92,5.79,5.79,0,0,1,2.75-2.84,23.75,23.75,0,0,1,5.32-1.93,5,5,0,0,1,1.72-.09c.16-.65.31-1.26.47-1.89l0-.1c.11-.43.22-.88.37-1.32a4.72,4.72,0,0,1,2.77-3A23.9,23.9,0,0,1,81,15.36a5.81,5.81,0,0,1,3.51.77c.36.2.46.18.71,0A4.4,4.4,0,0,1,89,15.55a18.27,18.27,0,0,1,3.42,1.33,4.59,4.59,0,0,1,1.74,1.64c-.06-.37-.12-.75-.19-1.12a4.62,4.62,0,0,1,1.83-4.77,12.87,12.87,0,0,1,4.3-2,28.36,28.36,0,0,1,3.9-.84,5.88,5.88,0,0,1,.28-1.64A32.07,32.07,0,0,1,106,3.88a6.42,6.42,0,0,1,5.4-3.75,26.52,26.52,0,0,1,7.31.33,41.58,41.58,0,0,1,8.71,2.31,16.34,16.34,0,0,1,4.8,2.75A13.41,13.41,0,0,1,136,11.78a47.36,47.36,0,0,1,1.52,7,1.41,1.41,0,0,1,0,.18.25.25,0,0,1,0,.08,4.66,4.66,0,0,1,.06.49c0,.08,0,.19,0,.27h0a3.45,3.45,0,0,1,.69,0A6.3,6.3,0,0,1,141,21.12a14.57,14.57,0,0,1,3.28,3.71l.34-.1a4.15,4.15,0,0,1,4.63,1.57.69.69,0,0,0,.74.31,60.79,60.79,0,0,1,7.13,0,7,7,0,0,1,1.66.32A4.48,4.48,0,0,1,161.36,29a18.79,18.79,0,0,1,1.69,4,33.05,33.05,0,0,1,1.19,5.13,10.1,10.1,0,0,1,5.39,1.72,5.48,5.48,0,0,1,2.37,4c0,.32.1.68.14,1a14.13,14.13,0,0,1,2.09.36,6,6,0,0,1,3.55,2.56c.31.48.62,1,.91,1.51a.65.65,0,0,0,.66.41,69.86,69.86,0,0,1,15,2.31A4,4,0,0,1,197.69,56c.12,1.36.32,2.75.52,4.1.14,1,.29,2,.41,3a1.44,1.44,0,0,0,.79,1.22,21.17,21.17,0,0,1,4.47,3.52,8.35,8.35,0,0,1,2.3,4.14c0,.16.07.32.11.48s.14.52.19.8a2.43,2.43,0,0,0,.94,1.5,14.88,14.88,0,0,1,3.15,3.41,5.83,5.83,0,0,1,.67,1.53,3,3,0,0,1-.39,2.41,3.21,3.21,0,0,1-2.26,1.43,10.46,10.46,0,0,1-2.13,0,31,31,0,0,0-6.75.4,55.52,55.52,0,0,1-7.52.58c-2.81,0-5.77.17-9.06.42a124.36,124.36,0,0,1-12.58.26h0a10.75,10.75,0,0,1-1.68-.13,7.89,7.89,0,0,1-.93,1.68A5,5,0,0,1,164,89a25.23,25.23,0,0,1-3.78.09,10.38,10.38,0,0,0-5.68,1.36l-.21.11-4.39,2.31a11.23,11.23,0,0,1-5.19,1.29c-2.73,0-5.64.08-8.5,0s-5.54-.28-8.24-.43l-.81-.05c-1.47-.08-3-.19-5-.34a1,1,0,0,0-.82.23A5.45,5.45,0,0,1,118,94.67c-1,0-2.17.06-3.63,0-1.91,0-3.86,0-5.74.06C107.13,94.81,105.56,94.84,104,94.84ZM62.77,84c2,0,3.95.08,5.87.16l3,.11a1.15,1.15,0,0,1,1.19,1.32c0,.48,0,1.1-.06,1.72a2.31,2.31,0,0,0,1.54,2.31c.22.09.45.17.7.25l0,0a35.55,35.55,0,0,0,4.08,1A99.39,99.39,0,0,0,89,92.27c4.81.48,9.22.74,13.48.81,2.05,0,4.14,0,6.16,0s3.86-.08,5.8-.06c1.42,0,2.51,0,3.53,0a3.71,3.71,0,0,0,2.3-.78,2.8,2.8,0,0,1,2.07-.62c2,.15,3.52.26,5,.34l.82,0c2.69.15,5.48.31,8.21.42s5.69.09,8.4,0a9.68,9.68,0,0,0,4.41-1.09L153.5,89l.21-.12a12.06,12.06,0,0,1,6.62-1.55,23.29,23.29,0,0,0,3.52-.09,3.31,3.31,0,0,0,2.61-1.4,5.28,5.28,0,0,0,.81-1.54,1.21,1.21,0,0,1,1.58-.93,7.69,7.69,0,0,0,1.71.17h0A123.81,123.81,0,0,0,183,83.26c3.32-.25,6.32-.39,9.16-.43a50.72,50.72,0,0,0,7.29-.56,32.49,32.49,0,0,1,7.12-.41,9.19,9.19,0,0,0,1.78,0,1.47,1.47,0,0,0,1-.65,1.21,1.21,0,0,0,.17-1,4,4,0,0,0-.45-1,13,13,0,0,0-2.79-3,4.14,4.14,0,0,1-1.56-2.53c0-.22-.1-.45-.16-.68s-.09-.36-.13-.54a6.63,6.63,0,0,0-1.83-3.3,19.74,19.74,0,0,0-4.1-3.23,3.12,3.12,0,0,1-1.65-2.53c-.12-1-.27-2-.41-3-.2-1.37-.4-2.78-.53-4.2a2.31,2.31,0,0,0-2-2.33,68.35,68.35,0,0,0-14.6-2.27,2.38,2.38,0,0,1-2.16-1.31c-.26-.49-.54-1-.83-1.39A4.22,4.22,0,0,0,173.78,47a11.88,11.88,0,0,0-2.05-.33,1.34,1.34,0,0,1-1.3-1.28c0-.43-.1-.86-.16-1.23a3.75,3.75,0,0,0-1.6-2.79A8.26,8.26,0,0,0,164,39.93a1.27,1.27,0,0,1-1.4-1.22,30.92,30.92,0,0,0-1.16-5.12,17.42,17.42,0,0,0-1.52-3.67,2.74,2.74,0,0,0-1.63-1.28,5.84,5.84,0,0,0-1.26-.25,57.21,57.21,0,0,0-6.92,0,2.42,2.42,0,0,1-2.25-1,2.42,2.42,0,0,0-2.81-.9,4.88,4.88,0,0,0-.54.18l-.29.1-.66.22-.37-.59a13.68,13.68,0,0,0-3.25-3.85,4.64,4.64,0,0,0-1.88-.88,1.28,1.28,0,0,0-.29,0,1.64,1.64,0,0,1-1.44-.53,2.5,2.5,0,0,1-.4-1.34,3.18,3.18,0,0,0,0-.34,1.5,1.5,0,0,1,0-.2s0-.05,0-.08a45.74,45.74,0,0,0-1.46-6.79A11.86,11.86,0,0,0,131,6.83a14.14,14.14,0,0,0-4.29-2.43,40.15,40.15,0,0,0-8.35-2.22,24.73,24.73,0,0,0-6.82-.31,4.62,4.62,0,0,0-4,2.74,31,31,0,0,0-1.6,4,3.75,3.75,0,0,0-.19,1.3,1.52,1.52,0,0,1-.25,1.08,1.41,1.41,0,0,1-1,.44,25.42,25.42,0,0,0-3.9.83A11.06,11.06,0,0,0,96.89,14a2.87,2.87,0,0,0-1.19,3.07c.11.59.2,1.19.29,1.77l.09.59v0a1.05,1.05,0,0,1-.8,1.33,2,2,0,0,1-2.36-1,3.29,3.29,0,0,0-1.26-1.36,16.87,16.87,0,0,0-3.09-1.22,2.67,2.67,0,0,0-2.32.32,2.2,2.2,0,0,1-2.59.09,4.11,4.11,0,0,0-2.46-.55,22.33,22.33,0,0,0-6.07,1.61,2.9,2.9,0,0,0-1.76,1.91c-.13.38-.23.78-.34,1.2l0,.1c-.16.63-.31,1.24-.47,1.89-.06.27-.13.54-.2.81l-.22.89-.88-.26a3.24,3.24,0,0,0-1.71-.08,22.41,22.41,0,0,0-4.93,1.78,4.09,4.09,0,0,0-1.95,2,16.35,16.35,0,0,0-1.11,3.54c-.2,1-.39,2-.57,3-.15.8-.31,1.64-.47,2.46,0,.08,0,.16,0,.23a2.27,2.27,0,0,1-.59,1.41,2.22,2.22,0,0,1-1.48.38h-.31a36.81,36.81,0,0,0-5.32.52,5,5,0,0,0-4.15,3.25c-.5,1.25-1,2.6-1.44,4a5.23,5.23,0,0,0-.29,2.46,1.18,1.18,0,0,1-.57,1.3A4.29,4.29,0,0,0,44.51,54a2.74,2.74,0,0,1-2,1.82L41.9,56l-.3.1a19.93,19.93,0,0,0-2.8,1,6.2,6.2,0,0,0-3.71,4c-.13.43-.28.84-.43,1.24s-.22.59-.32.88a1.61,1.61,0,0,1-1.56,1.2,68,68,0,0,0-6.82.81A4,4,0,0,0,22.91,67l-.63,1c-.58.93-1.18,1.89-1.69,2.87a9.84,9.84,0,0,0-.9,2.17,2.14,2.14,0,0,0,.6,2.25,7.42,7.42,0,0,0,2.17,1.53,1.25,1.25,0,0,1,.81,1.32.75.75,0,0,0,.17.17,3.58,3.58,0,0,0,2.07.76c1.48.16,3,.24,4.46.32l.62,0,2.8.17c1.6.11,3.25.22,4.87.27,1.42,0,2.83.21,4.2.38.73.09,1.49.19,2.24.26a1.73,1.73,0,0,1,1.52,1.11,2,2,0,0,0,1.66,1.24c2.16.37,4.36.65,6.54.81,2.44.19,5,.27,8.18.26Zm8.29,1.45Zm97.9-.68ZM32.66,62.68Zm139.2-17.76Zm-8-6.74Z"/><path class="cls-2" d="M206.89,93l-7-.16a5.5,5.5,0,0,1-1.21-.16,2,2,0,0,1-1.46-3.06,8.37,8.37,0,0,1,2.32-2.86c.5-.42,1-.82,1.46-1.29a4.47,4.47,0,0,1,2.88-1.17,7.25,7.25,0,0,1,1.68,0,10.07,10.07,0,0,0,2.63,0,15.62,15.62,0,0,1,4.37.16c.66.1,1.33.21,2,.35a3.76,3.76,0,0,1,2.93,2.51,10,10,0,0,1,.57,2.35,2.51,2.51,0,0,1-1.74,2.73,6.55,6.55,0,0,1-1.85.33q-3.27.23-6.54.3c-.34,0-.68,0-1,0Z"/><path class="cls-2" d="M185.3,94.8a14.29,14.29,0,0,1-3.75-.21,2.13,2.13,0,0,1-1.64-3.16,5.66,5.66,0,0,1,2.51-2.65,6.47,6.47,0,0,1,4.19-.94,27.66,27.66,0,0,1,3,.39,3.61,3.61,0,0,1,3,3.38,2.27,2.27,0,0,1-1.86,2.7,7.21,7.21,0,0,1-.93.15C188.31,94.61,186.81,94.75,185.3,94.8Z"/><path class="cls-2" d="M4.86,82.56a20.79,20.79,0,0,1-3.12-.28A2,2,0,0,1,.28,81.19c-.07-.14-.18-.33-.13-.44.28-.67-.24-1.26-.14-1.9A1.62,1.62,0,0,1,.44,78,4.57,4.57,0,0,1,4.6,76.41a19.32,19.32,0,0,1,6.31,2.26,2.53,2.53,0,0,1,.68.54,1.4,1.4,0,0,1-.35,2.28,6,6,0,0,1-1.92.6A28.57,28.57,0,0,1,4.86,82.56Z"/><path class="cls-2" d="M217.76,76.86c-1.23-.15-2.47-.08-3.7-.11a2.56,2.56,0,0,1-1-.23,1.46,1.46,0,0,1-.76-2,5.93,5.93,0,0,1,5.16-3.67,3.6,3.6,0,0,1,3.81,3.46,2.38,2.38,0,0,1-2,2.45A6.72,6.72,0,0,1,217.76,76.86Z"/><path class="cls-1" d="M168.33,45.08a.88.88,0,0,1,.11.5,2.88,2.88,0,0,0,1.76,2.61,17.89,17.89,0,0,0-1.44,2.74c-.08.21-.21.44,0,.62s.38,0,.57-.06a15,15,0,0,0,2.27-1.31c.2-.12.38-.34.67-.21a.85.85,0,0,1-.18,1.25,10.94,10.94,0,0,0-1.39,1.65,4.06,4.06,0,0,0-.58,1.06,1.57,1.57,0,0,0,.3,1.76,1.52,1.52,0,0,0,1.75.35c1.94-.78,4-1.35,5.87-2.23.26-.12.55-.19.81-.33l2.47,0a.83.83,0,0,1,.51.08c-.29.31-.67.18-1,.22-.17,0-.41-.06-.48.14s.16.35.32.47a3.53,3.53,0,0,0,1.57.59c2.18.33,4.37.56,6.56.85,1.05.13,2.08.36,3.13.51.19.17.11.38.08.57a66.14,66.14,0,0,0-1.08,7.41,2,2,0,0,1-.34.88c-.84,1.54-1.8,3-2.59,4.58a4,4,0,0,0-.4,2.37c.13,1.08.69,1.45,1.74,1.15a9.27,9.27,0,0,0,3.3-2c.4-.42.87-.78,1.27-1.21a10.33,10.33,0,0,0,2.22-3.34,1.33,1.33,0,0,1,.59.39,1.89,1.89,0,0,0,.91,2.3c.38.27.76.56,1.13.85.55.44.58.6.23,1.19s-1,1.34-1.42,2c-.09.16-.34.32-.17.52s.38.1.58,0c.43-.12.85-.3,1.27-.46.21-.08.46-.26.61.09a7.88,7.88,0,0,1-2.6,2.2,13.86,13.86,0,0,1-2.57,1c-.88.29-1.75.57-2.62.9a10,10,0,0,1-2.67.3l-5.65.47c-2.31.18-4.61.42-6.92.64-1,.09-2,.07-2.95.23a7.84,7.84,0,0,1-4.8-1.07c-.89-.43-1.77-.89-2.67-1.32a3.93,3.93,0,0,0-3-.56.28.28,0,0,1-.25-.06l-1.11-.77c-.13-.09-.26-.22-.42-.07s-.09.32,0,.47c.82,1.14,1.48,2.37,2.19,3.57s1.12,2.26,1.65,3.4a1.27,1.27,0,0,1,0,1.11,2,2,0,0,1-2.15,1.37.84.84,0,0,1-.66,0,12.65,12.65,0,0,0-7.18-.44,36.17,36.17,0,0,0-4.23.9.67.67,0,0,1-.19,0c-1.94-.17-3.62.82-5.44,1.19a43,43,0,0,1-6.31.64c-1,0-2.1.17-3.16.16a66.64,66.64,0,0,1-13.07-1.43,9.67,9.67,0,0,0-2.68-.29.82.82,0,0,1-.81-.5c-.76-1.51-2.18-2.32-3.49-3.21a2.29,2.29,0,0,0-2-.14,20.08,20.08,0,0,0-4.38,2.36,13.45,13.45,0,0,1-3.68,1.66,25.65,25.65,0,0,0-3.78,1.23,6.15,6.15,0,0,1-2.13.31c-2.26,0-4.5-.12-6.75-.23-3-.15-5.91-.56-8.85-1-1-.15-2-.41-3-.65a1.73,1.73,0,0,1-.92-.54c-1.51-1.64-2.93-3.36-4.52-4.93-.19-.18-.38-.39-.25-.7l.51-1.65a2.77,2.77,0,0,0,2.22.16c1.22-.32,2.44-.63,3.67-.88a10.29,10.29,0,0,0,3.13-1.55A6.71,6.71,0,0,1,88,75.2c3.48-.47,6.92-1.18,10.36-1.84a1.36,1.36,0,0,0,.6-.23.68.68,0,0,0-.54-.2,51.89,51.89,0,0,0-8.08-.11c-.67,0-1.34.09-2,.09a1.86,1.86,0,0,0-.91-.36,5.3,5.3,0,0,1-2.36-.94.87.87,0,0,1-.28-1.34,8.56,8.56,0,0,1,.86-1.21c.58-.69,1-1.49,1.51-2.22a12.7,12.7,0,0,1,1.75-1.17l-.06-.13-.69.2a16,16,0,0,0-4.58,2.51,6.47,6.47,0,0,0-1.93,3.1c-.06.17-.11.34-.16.51-.29.46-.78.4-1.21.46a17.88,17.88,0,0,0-4,.75,6.7,6.7,0,0,0-2.48,1.47,2.53,2.53,0,0,1-2.81.59c-1.88-.65-3.81-1.08-5.73-1.58a2.46,2.46,0,0,0-2.57.69c-1.17,1.15-2.38,2.27-3.65,3.32a2.83,2.83,0,0,1-2,.7,36.61,36.61,0,0,1-7.16-.8,8.54,8.54,0,0,0-1.19-.28,3.56,3.56,0,0,1-2.84-1.89c-.78-1.24-1.67-2.41-2.46-3.64a1.91,1.91,0,0,1-.29-1.54.24.24,0,0,1,.26,0,1.51,1.51,0,0,0,1.88-.42c.67-.6,1.34-1.2,2.06-1.75a4.58,4.58,0,0,1,3-1,34.13,34.13,0,0,0,4.85-.13c.34,0,.89,0,.93-.32s-.52-.39-.84-.53-.66,0-.75-.44c.09,0,.23,0,.34-.17a22,22,0,0,0-4.29-1c.4-.4.88-.56,1.23-.89.17-.16.55-.22.45-.5s-.44-.15-.67-.14a5.07,5.07,0,0,0-1.86.52,1.45,1.45,0,0,0-.77.73,1,1,0,0,1-.74.59,9.24,9.24,0,0,0-2.07,1l-.66.34a11.24,11.24,0,0,1-1.49-1.07A5.18,5.18,0,0,0,42,63.54a3.33,3.33,0,0,1-1.82-1.88,6.49,6.49,0,0,0-1.49-2.36.23.23,0,0,1-.06-.25,11.42,11.42,0,0,1,3-1.25c.41-.12.81-.26,1.23-.36a4.35,4.35,0,0,0,3.06-2.5,6.31,6.31,0,0,0,2.49-.52,42.51,42.51,0,0,1,6.68-1.62,3.67,3.67,0,0,1,2.36.4,16.27,16.27,0,0,0,4.27,1.64,3.29,3.29,0,0,0,.94.06c.46-.06.56-.25.3-.62a9.53,9.53,0,0,0-1.08-1.21.14.14,0,0,1-.13-.13,13.52,13.52,0,0,1,2.36-.32,3.88,3.88,0,0,0,1.24-.49c.37-.18.32-.55-.13-.85a5.19,5.19,0,0,0-2.89-1,3.07,3.07,0,0,1-1.59-.44,33.51,33.51,0,0,0-6.93-3.27,1.8,1.8,0,0,1-1.05-1.17,3,3,0,0,0-1.44-1.7.18.18,0,0,1-.09-.23,1.26,1.26,0,0,1,.52-.42,3.79,3.79,0,0,0,3.07.57c2.2-.18,4.38-.53,6.57-.75a18.88,18.88,0,0,1,6.71.95,11.76,11.76,0,0,0,4,.67c.22,0,.5.07.6-.19s-.14-.36-.26-.5a7.22,7.22,0,0,0-3.69-2.35l-1.19-.7a19.06,19.06,0,0,0,1.89-1.34c.92-.62,2-1,2.93-1.57a9.36,9.36,0,0,0,1.35-1,.85.85,0,0,1,.81-.2,2.45,2.45,0,0,0,1.75.24,7.82,7.82,0,0,1,3.16.23c.62.51.64.51,1.23-.07.18-.17.34-.36.52-.52s.25-.2.39,0a.9.9,0,0,0,1.37.33A8.51,8.51,0,0,0,84.18,36a2.38,2.38,0,0,1,2-.49c1.58.29,3.18.18,4.77.35a8.73,8.73,0,0,0,2.34,0A7.34,7.34,0,0,1,94,38.77,18.12,18.12,0,0,1,94.15,41a1.06,1.06,0,0,0,1.57,1c.63-.24,1.17-.67,1.83-.85a1.65,1.65,0,0,1,1,.36,1.37,1.37,0,0,1-.27,1.67,9.21,9.21,0,0,0-2,2.93A7.33,7.33,0,0,1,93,49.48c-.38.2-.75.42-1.12.63a2.48,2.48,0,0,0-1.41,2.08,17,17,0,0,1-.37,2,2.73,2.73,0,0,0,.09,1.72c0,.37,0,.76,0,1.13s-.3.46-.39.72a.64.64,0,0,0,0,.64c.17.21.4.15.62.08a2.8,2.8,0,0,0,.94-.52,16,16,0,0,1,2.88-1.63,5.16,5.16,0,0,1,2.56-.39c3,.19,5.94,1,8.91,1.49a5.21,5.21,0,0,0,1.42,0c.51-.06.61-.33.28-.73a5.73,5.73,0,0,0-1.66-1.27,2.9,2.9,0,0,1-.69-.42.35.35,0,0,1,0-.3,1,1,0,0,0-.29-.86,7.32,7.32,0,0,0-2.38-2.35,1.74,1.74,0,0,1-1-1.87,14.39,14.39,0,0,1,.12-1.74c.13-.6-.19-1.15-.18-1.74.09-.27.22-.48.55-.44a1.11,1.11,0,0,0,1.43-.11c.47-.35.88-.77,1.32-1.15a2.22,2.22,0,0,1,1.48-.53,27.16,27.16,0,0,1,7.37,1.24c1.82.51,3.58,1.21,5.4,1.7a6.32,6.32,0,0,0,1.88.18,4,4,0,0,1,2.87.93,7.4,7.4,0,0,0,2.11,1.31c.56.13.73.68,1.1,1a12.6,12.6,0,0,1,.88.91,4.66,4.66,0,0,0,2.87.83,5.26,5.26,0,0,0,2-.1c.75-.2.91-.48.75-1.22a4.94,4.94,0,0,0-1.8-2.79,46.52,46.52,0,0,0-4.62-3.4,8,8,0,0,0-5-.86c-.48,0-.85.4-1.29.59-.92,0-1.87.31-2.72-.3-.16-.31.15-.37.28-.53a19.83,19.83,0,0,0,3.33-2.28,1.94,1.94,0,0,1,1.13-.42,17.56,17.56,0,0,1,3.16,0c.79.12,1.58,0,2.52.12-1.38-.55-2.73-.66-4-1.15a1.9,1.9,0,0,0-1.91-.71,8.34,8.34,0,0,0-2.7.56,11.86,11.86,0,0,0-3.2,1.7.66.66,0,0,1-.87,0c-2.33-1.45-5-1.66-7.6-1.76a1.84,1.84,0,0,1-1.54-.65,8.66,8.66,0,0,0-2.7-1.75,24,24,0,0,1-5-3.66,3.15,3.15,0,0,0-1.58-.86A25,25,0,0,0,93,32.16c-.33,0-.69.08-.93-.26a3,3,0,0,1,3-2.8c1.57-.06,3.13-.24,4.7-.4a11.3,11.3,0,0,0,2.4-.68,2.77,2.77,0,0,1,3.06.57,3,3,0,0,0,1.79.91,6,6,0,0,0-1.51-1.88c-1-.83-1-.81-.43-2a15.45,15.45,0,0,0,.82-1.68c-.41,0-.54.39-.85.42s-.35-.33-.34-.56a2.8,2.8,0,0,0-1.2-2.3,20.68,20.68,0,0,1-3.66-3.93,10.66,10.66,0,0,0-.86-1c-.14-.16-.42-.35-.08-.6,2.17.07,4.28-.42,6.43-.56a13.47,13.47,0,0,1,4,.12c1.82.41,3.67.71,5.49,1.09.33.07.74.21.61-.41a5.88,5.88,0,0,0-2.94-3,14.07,14.07,0,0,1,3.43,0,4.55,4.55,0,0,0-1.83-1,.26.26,0,0,1-.08-.24,3.63,3.63,0,0,0-.4-2.6,14.88,14.88,0,0,1-.93-4.06,1.11,1.11,0,0,1,0-.54.37.37,0,0,1,.38,0,52.25,52.25,0,0,0,7.48,2A74.47,74.47,0,0,1,131,10a10,10,0,0,1,1.51,3.35c-.37,1.12-.86,2.2-1.19,3.33-.23.78-.55,1.52-.71,2.32a1.26,1.26,0,0,1-.65.81c-.49.29-.95.59-1.41.92A3,3,0,0,0,127.4,22c-.05.13-.1.32-.32.26a9.77,9.77,0,0,0-2.32-1c-.31-.08-.53,0-.55.35a1,1,0,0,0,0,1.34,4.61,4.61,0,0,0,1.28,1.17,59.45,59.45,0,0,1,5.43,4.32,4.41,4.41,0,0,0,.49.36c.42.29.8.37,1.08-.19l.42.32a.54.54,0,0,0,.63.05c.18-.14.13-.36.08-.56a5.06,5.06,0,0,0-.83-1.81c-.24-.32-.51-.62-.76-.93a1.64,1.64,0,0,1,1.41-.75c.94-.05,1.86-.26,2.81-.27a3.42,3.42,0,0,1,1.85.54,13.63,13.63,0,0,1,2.68,2.24,4.11,4.11,0,0,0,1.29,1.05,9.35,9.35,0,0,0,.62,1.7c.12.19.21.46.44.47.44,0,.43.25.41.57-.06.58-.09,1.16-.12,1.75a3.88,3.88,0,0,0,.09,1.07,2,2,0,0,0,1.39,1.51c.75.22,1.52.38,2.28.57a3.19,3.19,0,0,1,1.93,1.38.75.75,0,0,1,.1.79,4.4,4.4,0,0,0-.12,2.62,4.07,4.07,0,0,0,1-1.88l1.18,1.78a9.35,9.35,0,0,0,.89,1.18c.15.16.27.18.29-.08a.78.78,0,0,1,.09-.71,3.55,3.55,0,0,0,.51-2.83,7.75,7.75,0,0,0-.62-2.26,33.87,33.87,0,0,1-1.34-4.37.6.6,0,0,1,0-.58c.62-.12,1.15.24,1.76.28,1.72.12,3.45.15,5.16.36a1.13,1.13,0,0,1,1.07.81,19.65,19.65,0,0,0,1,2.49,17.23,17.23,0,0,1,.62,2.74c.2,1,.36,2.11.47,3.18a3.66,3.66,0,0,1-.11,1.32,9,9,0,0,0-.34,1.78c0,.49.07.58.56.75,1.47,1.22,3.49.75,4.54-1.08.34-.12.41.18.54.36a3.53,3.53,0,0,0,1.15,1A.74.74,0,0,0,168.33,45.08Z"/><path class="cls-3" d="M75.82,80a.8.8,0,0,0,.36.55c1.46,1.34,2.63,3,4,4.33a3.08,3.08,0,0,0,2.39,1.37c1.12.25,2.25.45,3.37.6.88.11,1.76.29,2.66.33s2,.24,3,.36a.65.65,0,0,0,.2,0,28,28,0,0,1,3.43.17c1.66.09,3.32.14,5,.1a6.94,6.94,0,0,0,2.36-.44,22.83,22.83,0,0,1,4.31-1.31.87.87,0,0,0,.31-.1c.79-.52,1.7-.83,2.49-1.36s1.69-1.09,2.54-1.65a3.17,3.17,0,0,1,1-.4,2,2,0,0,0,1.1-.45.43.43,0,0,1,.38-.09,3,3,0,0,1,1.36.33c.65.43,1.28.91,1.92,1.36a5.4,5.4,0,0,1,1.78,2.07c.17.34.39.35.75.32a8.89,8.89,0,0,1,2.46.27c1.84.38,3.69.73,5.56.94,1,.11,2,.19,2.94.28a31,31,0,0,0,5.44.21,25.22,25.22,0,0,0,3.48-.23h.21a26.27,26.27,0,0,0,3.07-.24,23.92,23.92,0,0,0,3-.56,5.93,5.93,0,0,0,1.07-.38,3.59,3.59,0,0,1,2-.44,6.82,6.82,0,0,0,2.57-.44A39.24,39.24,0,0,1,157,84.7l1.27-.13a10.6,10.6,0,0,1,3.91.56c.38.11.67.47,1.11.41-.19.16-.43.1-.65.1-1,0-2.11,0-3.17,0A11.92,11.92,0,0,0,154,86.91c-1.86.9-3.67,1.92-5.51,2.86a7.09,7.09,0,0,1-2.8.9c-1.05.06-2.09,0-3.14,0-1.37,0-2.75,0-4.12-.05s-2.82,0-4.22-.21c-.33,0-.66,0-1,0-1-.08-2.07-.1-3.1-.16-1.84-.11-3.67-.23-5.51-.37a12.74,12.74,0,0,0-3.7-.08c-.23,0-.29-.12-.36-.31a15.53,15.53,0,0,0-3.46-5.09,1.46,1.46,0,0,0-.58-.46,12.86,12.86,0,0,0,1,2.07c.73,1.3,1.28,2.68,2,4a.3.3,0,0,1-.11.45,2.36,2.36,0,0,1-1.38.46c-1.76,0-3.52,0-5.27,0a13,13,0,0,0-2.16.09c-.58.1-1.16-.14-1.75-.07-1.56.17-3.14,0-4.71.22-.45.06-.88-.13-1.34-.11-1.69.05-3.37-.13-5-.17-1.46,0-2.91-.12-4.36-.27-1.69-.16-3.39-.3-5.09-.48s-3.4-.33-5.08-.6A49.14,49.14,0,0,1,75.9,88c-.15,0-.3-.09-.45-.15-.61-.22-.76-.39-.7-1,.07-.85.2-1.69.31-2.54a27.77,27.77,0,0,0,.5-3.53A1.26,1.26,0,0,1,75.82,80Z"/><path class="cls-3" d="M43.11,70.1a4.79,4.79,0,0,0,1.08,2.48c.83,1.14,1.63,2.31,2.43,3.47a1.52,1.52,0,0,0,1,.7c1.31.25,2.59.68,3.92.88.57.09,1.16.13,1.73.19s1.34.12,2,.21a11.69,11.69,0,0,0,2.29,0,3,3,0,0,0,1.77-1c1.19-1.06,2.36-2.15,3.51-3.25a2,2,0,0,1,1.93-.53A50.41,50.41,0,0,1,70.94,75a3.19,3.19,0,0,0,2,0,1,1,0,0,0,.48-.35,8.25,8.25,0,0,1,4.87-2.22c1-.11,1.9-.26,2.85-.4a2,2,0,0,0,.38-.14,3.65,3.65,0,0,1-.12.87,2.25,2.25,0,0,0,.18,1.12c.14.32,0,.45-.27.55a9,9,0,0,1-2.62.57,5,5,0,0,0-1.82.44,1.91,1.91,0,0,0-1,1,8.45,8.45,0,0,1-1.19,1.54,10.36,10.36,0,0,0-1.55,2.75c-.21.63-.67,1.16-.83,1.83,0,.14-.14.13-.27.12-1.76-.19-3.53-.29-5.3-.39-1.1-.06-2.2-.1-3.3-.09-2.5,0-5-.09-7.49-.17-1.23,0-2.46-.2-3.69-.33s-2.22-.32-3.33-.44a1.37,1.37,0,0,1-1.33-.92,2.3,2.3,0,0,0-1.71-1.39,21.62,21.62,0,0,0-2.52-.39l-2.53-.35c-.14,0-.27-.05-.4-.05-1.26-.06-2.52-.09-3.78-.17-1.79-.1-3.58-.24-5.37-.36h-.2c-1.83,0-3.64-.18-5.47-.16a1.17,1.17,0,0,1-1.19-.66,5.2,5.2,0,0,0-1.75-1.64,9.07,9.07,0,0,1-.9-.71c-.46-.42-.46-.43-.23-1a2.33,2.33,0,0,1,.2-.34,2.84,2.84,0,0,1,1.39,0c1.26.21,2.52.41,3.75.73a.59.59,0,0,1,.28.28,2.74,2.74,0,0,0,3,1.4,36,36,0,0,0,3.71-.64,2.42,2.42,0,0,0,.7-.24A1,1,0,0,0,35,73c-.14-.23-.37-.4-.41-.69.55-.58,1.33-.85,1.92-1.37a2,2,0,0,1,.56-.19,1.65,1.65,0,0,0,1.29-1.11,6,6,0,0,1,2.77-1.59l.4.52a1.23,1.23,0,0,0,1.48.56A1.69,1.69,0,0,1,43.11,70.1Z"/><path class="cls-1" d="M84.48,20A4,4,0,0,0,86,19.8a15,15,0,0,0,2.62.64,3.23,3.23,0,0,1,1.79,1,10.62,10.62,0,0,0,2.32,1.73.69.69,0,0,0,.87,0c.26,0,.3.25.35.44a2.76,2.76,0,0,1-1,2.24c-.57.32-1.11.68-1.68,1a3,3,0,0,0-1.6,2.07,3.14,3.14,0,0,1-1.54,2.17c-.63.4-1.27.78-1.91,1.16s-1.07.08-1.58.27a5.08,5.08,0,0,0-3.15,2.14c-.61.81-.68.8-1.64.42-.23-.09-.46-.17-.68-.28a4,4,0,0,0-3.76,0,1.39,1.39,0,0,1-.45.14,6.25,6.25,0,0,0-3.76.81,1.86,1.86,0,0,1-1.3.24,9.21,9.21,0,0,0-1.82,0A1,1,0,0,1,67,35.19,27.45,27.45,0,0,1,66.19,32c-.12-.63-.55-1.19-.42-1.88a1.48,1.48,0,0,1,1-.31c1-.05,1.93-.14,2.88-.26a2.75,2.75,0,0,1,1.44.29,9.42,9.42,0,0,0,2.59.72c.22,0,.48.11.63-.1s-.1-.36-.19-.53a.52.52,0,0,1-.09-.38c.2-.32.53-.31.84-.3a2.46,2.46,0,0,0,2.48-3C77.1,24.84,77.13,23.4,77,22a4.25,4.25,0,0,1-.15-1.46.28.28,0,0,1,.3-.11,10.84,10.84,0,0,0,3,.15,2.61,2.61,0,0,1,1.69.52,5.44,5.44,0,0,0,2.4,1c.7.12.91-.14.72-.82C84.84,20.82,84.49,20.46,84.48,20Z"/><path class="cls-3" d="M163.18,76.46c1.1-.58,2.1-.12,3.08.33s1.89.95,2.84,1.42c.5.24,1,.45,1.54.68a6.34,6.34,0,0,0,3.63.31,3.12,3.12,0,0,1,.61,0,24.12,24.12,0,0,0,2.94-.25c.62-.07,1.25,0,1.88-.15.81-.15,1.65-.12,2.46-.25a17.17,17.17,0,0,1,1.75-.13c.75,0,1.52-.13,2.27-.2a13.22,13.22,0,0,0,2.27-.21,1.31,1.31,0,0,1,.34,0c.9.07,1.78-.21,2.68-.14a.75.75,0,0,0,.39-.09,39.93,39.93,0,0,1,3.94-1.37,8,8,0,0,0,3.08-1.87c.31-.29.75-.44.93-.87-.05-.19.08-.29.22-.36a5.74,5.74,0,0,0,1.83-1.33.22.22,0,0,1,.24-.06,2.64,2.64,0,0,1,.4,1.14,7,7,0,0,0,3,4.69,9,9,0,0,1,2.13,2.39c-.08.23-.27.18-.41.18-1.05,0-2.11,0-3.16-.11a10.87,10.87,0,0,0-2.28,0c-.83.09-1.66.07-2.49.16-1.56.17-3.13.29-4.69.39-.7,0-1.4,0-2.09,0-1.89,0-3.78,0-5.67.17-1.45.09-2.91.14-4.36.35a16.76,16.76,0,0,1-1.74.12c-1.17,0-2.34.14-3.5.21-2,.12-4,.06-6.07.11a13.79,13.79,0,0,0-3.08.08c-.16,0-.25-.08-.31-.21a12.52,12.52,0,0,0-2.48-3.17C164.62,77.74,163.88,77.12,163.18,76.46Z"/><path class="cls-3" d="M84.61,32.37c.23-.21.51-.11.77-.11a1.63,1.63,0,0,0,.78-.18c.91-.52,1.78-1.11,2.64-1.71a1.06,1.06,0,0,0,.4-.6c.12-.36.21-.73.32-1.09a3.17,3.17,0,0,1,1.54-1.95c.62-.36,1.23-.72,1.86-1.07a.79.79,0,0,0,.5-.65,4.31,4.31,0,0,1,.27-.76,1.21,1.21,0,0,0-.12-1.08.7.7,0,0,1-.31-.91,5.15,5.15,0,0,0,2.31.11,2.35,2.35,0,0,0,2.05-2.44,15.22,15.22,0,0,0-.36-2.79,1.67,1.67,0,0,1,.62-1.9c.28.31.69.44.93.78a51,51,0,0,0,4,4.65l1.2,1.07a2.45,2.45,0,0,1,.85,2c0,.19-.06.41.12.57,0,.06.06.13,0,.19a10.06,10.06,0,0,0-1.37,2.15c-.1.24-.4.26-.64.3a10.26,10.26,0,0,0-2,.54,9,9,0,0,1-2.77.51c-1.28.08-2.55.22-3.83.31A3.08,3.08,0,0,0,92,29.75a7.45,7.45,0,0,0-1.09,2.52c-.18.79-.34.92-1.16.82-1.27-.16-2.55-.24-3.81-.47C85.51,32.53,85,32.72,84.61,32.37Z"/><path class="cls-3" d="M192.63,71.29c-.2.52-.71.75-1.1,1.06a4.75,4.75,0,0,1-3,1.28.84.84,0,0,1-.84-.53,3.38,3.38,0,0,1,0-3.11,29.35,29.35,0,0,1,1.69-3.06c.41-.7.82-1.4,1.22-2.1a.85.85,0,0,0,.12-.38,20.71,20.71,0,0,1,.29-2.73c.15-1,.31-2.08.47-3.11a11.24,11.24,0,0,1,.47-2.16c.28-.41.77-.57,1.08-.94.67.18.9.14.94,1.14a47.08,47.08,0,0,0,.6,5,21.54,21.54,0,0,0,.59,3.38c0,.16,0,.3-.07.45a11.91,11.91,0,0,1-2.1,4.57,14.34,14.34,0,0,1-1.47,1.77C192,71.75,192.27,71.4,192.63,71.29Z"/><path class="cls-3" d="M65.82,30.09c.61,1.63.78,3.39,1.34,5a2,2,0,0,1,.11.32c0,.24.2.32.44.32a6.65,6.65,0,0,1,1.61,0,3.16,3.16,0,0,0,2.4-.49A8.2,8.2,0,0,1,74,34.69c.34-.08.65.14,1,.14,0,.33-.31.41-.52.54a5.93,5.93,0,0,0-.88.6c-.2.19-.49.37-.47.69s.48.12.64.33a5,5,0,0,1-1.6,1.18c-.73.42-1.51.77-2.27,1.15a1,1,0,0,1-.45.1.36.36,0,0,0-.47-.35,6.33,6.33,0,0,0-2,.55,1.43,1.43,0,0,0-.51.43.69.69,0,0,1-.82.29,17.22,17.22,0,0,0-3-.27c-.58,0-.6-.06-.45-.63.38-1.43.59-2.9.84-4.36a27.9,27.9,0,0,1,1.1-4.57,3,3,0,0,1,.41-.85A1.64,1.64,0,0,1,65.82,30.09Z"/><path class="cls-1" d="M36.47,71.07a4.55,4.55,0,0,1-1.91,1.22c-.66,0-1.2-.46-1.86-.52a8.33,8.33,0,0,0-1.73,0c-.72.09-1.42.24-2.13.31a1.86,1.86,0,0,0-1.76,1.44.79.79,0,0,1-.2.41l-4.28-.77a1.12,1.12,0,0,0-.45.07.35.35,0,0,1-.42-.12,4.74,4.74,0,0,1,.51-.94c1-.85,1.85-1.89,2.79-2.82a3.37,3.37,0,0,1,2.59-1.19,13.34,13.34,0,0,0,3-.39,18.36,18.36,0,0,1,4.9-.37,17,17,0,0,0,4.62-.23,2.85,2.85,0,0,1,.94,1c-.07,0-.13.14-.21.16a6.63,6.63,0,0,0-2.1,1.27.69.69,0,0,1-.41.2c-.38-.09-.5-.48-.82-.65a3.93,3.93,0,0,0-3.2-.13c-.32.11-.44.24-.29.67a1.93,1.93,0,0,0,1.67,1.26C36,70.91,36.27,70.83,36.47,71.07Z"/><path class="cls-3" d="M151.15,31.15a42.9,42.9,0,0,0,1.54,5.07,7,7,0,0,1,.61,3.34,2.19,2.19,0,0,1-.67,1.76c-.2.15-.11.37-.17.56-.19-.71-.4-1.42-.63-2.12a11.63,11.63,0,0,0-2.07-3.53,4.17,4.17,0,0,0-2.39-1.41c-.59-.15-1.18-.26-1.77-.41a1.1,1.1,0,0,1-.91-1.34c.1-1,.2-2.09.2-3.14a2.16,2.16,0,0,0-.74-1.92,5.89,5.89,0,0,1,1.66-.18,1.21,1.21,0,0,1,.82.55A3.46,3.46,0,0,0,149.86,30h.88A5.08,5.08,0,0,1,151.15,31.15Z"/><path class="cls-4" d="M88.25,72.79a54.94,54.94,0,0,1,8.21-.22,13.56,13.56,0,0,1,2.61.24c.16,0,.33,0,.36.23s-.16.28-.34.33c-1,.3-2,.44-3,.65s-2.2.4-3.3.6c-1.58.28-3.15.63-4.76.77a5.48,5.48,0,0,0-2.82,1,11,11,0,0,1-4.52,1.79c-1,.18-1.91.47-2.88.67a1.2,1.2,0,0,1-1.46-.51A5.15,5.15,0,0,1,76.87,77a1.36,1.36,0,0,1,1-.6A5.53,5.53,0,0,1,79,76.19,9.35,9.35,0,0,0,82.8,75c.76-.43,1.57-.77,2.31-1.26.1-.06.32-.08.2-.31a.26.26,0,0,1,.15-.33A4.28,4.28,0,0,1,88.25,72.79Z"/><path class="cls-3" d="M51.23,43.48a2.64,2.64,0,0,1,1.6,1.69,3.67,3.67,0,0,0,.51.87,1.16,1.16,0,0,0,.65.43,20,20,0,0,1,2.7,1,50,50,0,0,1,4.46,2.37,1.51,1.51,0,0,0,.89.23,5.66,5.66,0,0,1,3.34,1c.29.18.5.39.43.76s-.32.42-.62.51a10.88,10.88,0,0,1-3.44.52c-.19-.25,0-.25.17-.27L64,52.51a1,1,0,0,0,.64-.15s0-.09-.06-.11a5.82,5.82,0,0,0-3.91-.5.66.66,0,0,1-.61-.13l-1.8-1.2a7.86,7.86,0,0,0-3.46-1.16,23.16,23.16,0,0,0-2.48-.18,9.13,9.13,0,0,0-2.79.34c-.23.07-.5.27-.69,0s0-.43.11-.64a36.93,36.93,0,0,1,1.71-4.53A2.13,2.13,0,0,1,51.23,43.48Z"/><path class="cls-3" d="M112.76,4.65A6.41,6.41,0,0,1,113,6.17a19.61,19.61,0,0,0,.81,3c.07.19.14.38.22.57a2.6,2.6,0,0,1,.08,2.32,10.75,10.75,0,0,0-2.59-.27c-.16,0-.35,0-.47,0-.54.31-1,0-1.57,0a.5.5,0,0,1-.39-.24,2.32,2.32,0,0,0-1.65-1.06.37.37,0,0,1-.31-.19c.72-1.53,1.47-3.09,2.2-4.65A2.66,2.66,0,0,1,111.68,4a1.82,1.82,0,0,1,.52-.08C112.42,4.11,112.76,4.25,112.76,4.65Z"/><path class="cls-4" d="M98.81,16c-.37-.18-.86-.22-.93-.78a9.32,9.32,0,0,1,3-1.37,34.66,34.66,0,0,1,5.42-1.08,3.81,3.81,0,0,1,1.12.19c.36,0,.71.15,1.06.21.15,0,.35.07.46,0,.52-.35.93,0,1.35.18a13.25,13.25,0,0,1,3.49,2.29,4.26,4.26,0,0,0,1.07.69c.26.14.47.11.59-.19.2.1.34.25.23.48a.38.38,0,0,1-.46.19c-.56-.09-1.11-.18-1.65-.29-1.66-.34-3.32-.74-5-1a10.91,10.91,0,0,0-3,0c-.69.08-1.38.09-2.07.2-1.1.18-2.22.26-3.33.4A5.45,5.45,0,0,1,98.81,16Z"/><path class="cls-3" d="M38.66,59.05a5.85,5.85,0,0,1,1.66,2.46A3.12,3.12,0,0,0,42,63.37a5.18,5.18,0,0,1,2.12,1.5.91.91,0,0,0,.41.33c.46.07.65.41.86.75-.83.58-1.67,1.15-2.46,1.77-.33.27-.42.25-.64-.11a4.94,4.94,0,0,0-3.14-2.26c-1.06-.29-2.13-.56-3.21-.79-.38-.08-.38-.08-.23-.47.31-.87.64-1.73.92-2.61A4,4,0,0,1,38.66,59.05Z"/><path class="cls-4" d="M68.78,41.46c.1-.18.25-.16.41-.09a8.23,8.23,0,0,1,2.46,1.36,8.77,8.77,0,0,1,1.14,1.14c.15.18.42.33.28.62s-.43.19-.67.21a10.1,10.1,0,0,1-3.58-.48c-1.44-.42-2.9-.75-4.37-1a11.41,11.41,0,0,0-3.35-.05,18.49,18.49,0,0,0-1.94.2,25.91,25.91,0,0,1-2.92.38,20.1,20.1,0,0,1-3.29.17,1.27,1.27,0,0,1-1.2-.81,5.26,5.26,0,0,1,2-.62c1-.16,2.06-.25,3.09-.31.81-.05,1.62-.08,2.42-.15a3.22,3.22,0,0,0,1.53-.47,2,2,0,0,1,1.36-.26c.71.09,1.43.09,2.15.15A13.8,13.8,0,0,1,70,43.16a1.78,1.78,0,0,0,.72.32A5.86,5.86,0,0,0,68.78,41.46Z"/><path class="cls-3" d="M178.86,53.48c-.1.24-.34.3-.53.4a32.24,32.24,0,0,1-3.13,1.23l-2.91,1.08A1.74,1.74,0,0,1,169.91,54a7.85,7.85,0,0,1,1.56-2.42,1.48,1.48,0,0,1,.33-.33,1,1,0,0,0,.42-1.33c.06-.52.53-.84.68-1.32a2.92,2.92,0,0,1,2,1.48l.63,1.11a3.79,3.79,0,0,0,2.91,2.14A3.74,3.74,0,0,1,178.86,53.48Z"/><path class="cls-4" d="M61.88,53.07a3.07,3.07,0,0,1,1.45,1.42c.17.26,0,.54-.35.58a3.84,3.84,0,0,1-1.07,0A10.78,10.78,0,0,1,59,54.15c-.67-.32-1.35-.62-2-.95a3.53,3.53,0,0,0-2.5-.11c-1.4.31-2.82.5-4.19.92l-3.08,1a1.44,1.44,0,0,1-1.34-.05l.3-.82a2.58,2.58,0,0,1,1.35-1.44,16,16,0,0,1,4-1.2c1.44-.28,2.86-.61,4.27-1a.64.64,0,0,1,.62.13c1.28,1,2.68,1.89,4,2.82a5.08,5.08,0,0,0,.85.4.5.5,0,0,0,.57-.08c.18-.18.1-.37,0-.56A.5.5,0,0,1,61.88,53.07Z"/><path class="cls-4" d="M112.76,4.65c-.17-.27-.57-.38-.56-.78a23.25,23.25,0,0,1,6.23.4,35.59,35.59,0,0,1,8.46,2.42,8.85,8.85,0,0,1,4,3c0,.08.09.16.13.24-.25.19-.47,0-.68-.09q-1.91-.75-3.87-1.38c-2.75-.87-5.55-1.59-8.37-2.22-1.44-.32-2.87-.71-4.29-1.1A6.07,6.07,0,0,1,112.76,4.65Z"/><path class="cls-3" d="M127.08,22.23a4.87,4.87,0,0,1,2.47-2.43,1.81,1.81,0,0,0,1-1.25c.32-1.3.83-2.55,1.26-3.83a4.24,4.24,0,0,1,.72-1.42,9.94,9.94,0,0,1,.64,2.39c.33,1.68.62,3.35.93,5,.09.47.07.52-.39.69a5,5,0,0,1-.82.29,3.62,3.62,0,0,0-2.23,1.82,8.16,8.16,0,0,0-.37.73Z"/><path class="cls-3" d="M76.91,20.48a12.18,12.18,0,0,1,.39,3.12,20.63,20.63,0,0,0,.26,2.6,2.69,2.69,0,0,1-1.21,2.85,2.34,2.34,0,0,1-1.35.36,1.62,1.62,0,0,0-.92.13,4.2,4.2,0,0,1-1.64-1.49,5.1,5.1,0,0,0,1.49-2.34,28,28,0,0,0,.95-3.48,2.36,2.36,0,0,1,1.9-2.13C76.88,20.21,77,20.31,76.91,20.48Z"/><path class="cls-4" d="M40.14,67.13a1.24,1.24,0,0,1-1,.37,22.67,22.67,0,0,1-2.74.09,16.78,16.78,0,0,0-4.69.16c-1.08.21-2.16.37-3.25.49a15.61,15.61,0,0,1-1.67.11.82.82,0,0,0-.56.2,19.11,19.11,0,0,0-2.39,2.37,3.73,3.73,0,0,1-1.56,1.21c.78-1.45,1.67-2.83,2.58-4.2A1.62,1.62,0,0,1,26,67.27c1.5-.3,3-.47,4.54-.68.93-.12,1.87-.29,2.8-.45a2.35,2.35,0,0,0,.88-.33,1.23,1.23,0,0,1,1-.15,30.56,30.56,0,0,1,4.31,1.09A1.28,1.28,0,0,1,40.14,67.13Z"/><path class="cls-4" d="M43.11,70.1c-.13-.3-.33-.59-.15-.94a5.08,5.08,0,0,0,1.25-.79A18.32,18.32,0,0,1,48,66.06a3.75,3.75,0,0,1,1.5-.39c1.66-.06,3.32-.1,5-.15.47.26,1,.23,1.5.54a3.9,3.9,0,0,1,.35.19.32.32,0,0,1-.1.58,5.53,5.53,0,0,1-.92.16,42.05,42.05,0,0,1-4.63.15,7.36,7.36,0,0,0-1.48,0,6,6,0,0,0-2.58,1.51c-.47.41-.92.85-1.4,1.25a2.93,2.93,0,0,1-.74.45A1.21,1.21,0,0,1,43.11,70.1Z"/><path class="cls-4" d="M142.09,28.45c0,.08,0,.27-.19.15a8.08,8.08,0,0,1-1.18-1,18.18,18.18,0,0,0-2.42-2.13,4.24,4.24,0,0,0-3.22-.59c-.58.07-1.15.17-1.73.2a1.05,1.05,0,0,0-.89.36.55.55,0,0,1-.41.21c-1.07-.78-1-.76-.21-1.73a1.08,1.08,0,0,1,1.13-.45,6.27,6.27,0,0,0,1.87-.19c.55-.1,1.1-.22,1.66-.31a2.86,2.86,0,0,1,2.4.6,13.22,13.22,0,0,1,2.65,3A4.27,4.27,0,0,1,142.09,28.45Z"/><path class="cls-4" d="M72.44,28.05a16.46,16.46,0,0,1,1.64,1.49c.08.22.3.33.42.52s.28.32.16.54-.31.17-.49.16a6,6,0,0,1-1.52-.23,9.11,9.11,0,0,1-1.84-.64,1.93,1.93,0,0,0-1.38-.14,18,18,0,0,1-1.8.17c-.6.08-1.21.09-1.81.17a3.22,3.22,0,0,1-1.19-.43,2,2,0,0,1,1-.91,17.36,17.36,0,0,1,4.54-1.58,1.47,1.47,0,0,1,1.38.51A1,1,0,0,0,72.44,28.05Z"/><path class="cls-4" d="M193.05,55.51c0,.35-.26.49-.49.64a4.09,4.09,0,0,1-.59.3,11.4,11.4,0,0,1-2.66-.33c-.91-.1-1.82-.23-2.73-.35s-1.86-.25-2.79-.35c-.72-.08-1.42-.18-2.13-.32a4.23,4.23,0,0,1-1.27-.6A.93.93,0,0,1,180,54c-.13-.3-.06-.41.27-.43a13.33,13.33,0,0,0,1.55,0,66.88,66.88,0,0,1,6.93,1C190.2,54.89,191.63,55.21,193.05,55.51Z"/><path class="cls-4" d="M202.1,71.86a4.79,4.79,0,0,1-2,1.53c-.09,0-.16.15-.24.22-.5.19-1,.35-1.5.57a2.09,2.09,0,0,1-.92.12c-.38,0-.44-.21-.23-.53.57-.85,1.2-1.66,1.77-2.53.23-.34.12-.52-.13-.71-.41-.32-.81-.64-1.24-.93a4.75,4.75,0,0,1-.84-.77,1.32,1.32,0,0,1,0-1.7,18.35,18.35,0,0,1,5,4A1.5,1.5,0,0,1,202.1,71.86Z"/><path class="cls-4" d="M132.51,28.57a2.48,2.48,0,0,1,0,.27c-.1.42-.2.47-.6.33a4.77,4.77,0,0,1-1.6-1.1,43.32,43.32,0,0,0-5.07-4,4.45,4.45,0,0,1-1.36-1.47c-.28-.48-.18-.76.36-1.05a5.23,5.23,0,0,0,1.73,1.48c1.16.66,2.28,1.38,3.38,2.12A8.36,8.36,0,0,1,132.51,28.57Z"/><path class="cls-3" d="M88.25,72.79A16.7,16.7,0,0,0,86,73.1c-.26.06-.59.05-.72.37-.65.1-1.29.19-1.92.35s-.81.13-.78-.59a17.88,17.88,0,0,1,0-2.07.93.93,0,0,1,.27-.59A48.52,48.52,0,0,1,86.93,67a1,1,0,0,1,.24-.11A6.11,6.11,0,0,1,85.91,69c-.35.47-.69.93-1,1.42a.61.61,0,0,0,.18,1,5.15,5.15,0,0,0,2.66,1C88,72.42,88.24,72.46,88.25,72.79Z"/><path class="cls-4" d="M76.91,20.48a.45.45,0,0,1-.13-.38,32.23,32.23,0,0,1,4-1.05,3.29,3.29,0,0,1,2.16.31,7,7,0,0,0,1.57.6,3.69,3.69,0,0,1,.76,1.55.61.61,0,0,1-.76.83,5.6,5.6,0,0,1-2.6-1A2.42,2.42,0,0,0,80,20.75c-.42,0-.85,0-1.28,0A3.94,3.94,0,0,1,76.91,20.48Z"/><path class="cls-4" d="M151.15,31.15a1.15,1.15,0,0,1-.41-1.19h0c.66-.19,1.35,0,2-.12h.53c.81.15,1.63,0,2.44.11.53,0,1.07,0,1.61.11a1.68,1.68,0,0,1,1.3,1,20.26,20.26,0,0,1,1.11,2.89c.13.39.21.78.32,1.17-.26.08-.22-.15-.27-.26-.32-.79-.64-1.58-.92-2.38a.6.6,0,0,0-.64-.46c-1.47-.09-2.94-.25-4.42-.29A5.55,5.55,0,0,1,151.15,31.15Z"/><path class="cls-4" d="M93.26,22.26c.1.3.2.61.31.91-.15.48-.2.52-.63.32a7.69,7.69,0,0,1-2.51-1.76,4.06,4.06,0,0,0-2.51-1.25c-.44-.07-.87-.17-1.3-.27A.9.9,0,0,1,86,19.8a6.23,6.23,0,0,0,1.28-.73,1.18,1.18,0,0,1,1.13-.2c.79.26,1.55.56,2.31.89a2,2,0,0,1,.9,1A2.93,2.93,0,0,0,93.26,22.26Z"/><path class="cls-3" d="M165.88,43.74a1.23,1.23,0,0,1-.56,1,4,4,0,0,1-.48.36,3.89,3.89,0,0,1-2.26.65c-.6,0-1.14-.23-1.3-.92,1.66-.48,2.29-1.73,2.43-3.42l2.3.83C165.55,42.71,166,43.25,165.88,43.74Z"/><path class="cls-4" d="M172.9,48.63a.3.3,0,0,1,0,.42l-.67.9a16.46,16.46,0,0,1-2.87,1.73,2.32,2.32,0,0,1-.44.16.36.36,0,0,1-.46-.36,1,1,0,0,1,.11-.52c.33-.84.79-1.61,1.2-2.41a.58.58,0,0,1,.44-.36A15.51,15.51,0,0,0,172.9,48.63Z"/><path class="cls-4" d="M165.88,43.74a2.58,2.58,0,0,1-.28-1.13c0-.3.16-.38.41-.36s.66.27,1,.42a2.13,2.13,0,0,1,1.27,1.75c0,.22,0,.44.07.66s-.05.49-.44.35a3.21,3.21,0,0,1-1.58-1.1C166.16,44.14,166,43.94,165.88,43.74Z"/><path class="cls-3" d="M155.74,29.94a8.66,8.66,0,0,1-2.44-.11A10,10,0,0,1,155.74,29.94Z"/><path class="cls-3" d="M152.77,29.84a7.63,7.63,0,0,1-2,.12c.17-.21.41-.12.62-.13C151.84,29.82,152.3,29.83,152.77,29.84Z"/><path class="cls-1" d="M208.15,90.91c-1.36-.21-2.83-.09-4.29-.2-1.28-.1-2.56,0-3.85-.08-.21,0-.51.11-.62-.12s.15-.44.28-.63a26.19,26.19,0,0,1,1.86-2.21,4.14,4.14,0,0,1,2.38-1.29,2.32,2.32,0,0,1,.87,0,21.25,21.25,0,0,0,4.58,0,19.17,19.17,0,0,1,4.94.57A1.63,1.63,0,0,1,215.52,88a8.88,8.88,0,0,1,.48,1.82.56.56,0,0,1-.49.69,5.52,5.52,0,0,1-1.07.15c-1.62.06-3.23.19-4.85.18C209.14,90.81,208.69,90.87,208.15,90.91Z"/><path class="cls-1" d="M184.13,92.79a12.47,12.47,0,0,1-2-.13c-.4,0-.47-.18-.3-.54a3.12,3.12,0,0,1,.88-1.09,7.78,7.78,0,0,1,1-.7,3,3,0,0,1,2.12-.47c.93.17,1.88.08,2.81.25.27,0,.53.09.8.15a1.46,1.46,0,0,1,1.16,1.17c.17.67.06.87-.61,1-.38,0-.76.08-1.14.1-1,.06-2,.23-3,.2A14.31,14.31,0,0,1,184.13,92.79Z"/><path class="cls-1" d="M9.35,80a1.47,1.47,0,0,1-.93.28,28.78,28.78,0,0,1-3.82.3c-.68,0-1.35-.07-2-.13A.81.81,0,0,1,1.79,80a.7.7,0,0,1,.2-.85,3.11,3.11,0,0,1,3-.71A19.91,19.91,0,0,1,9.35,80Z"/><path class="cls-1" d="M219.31,74.4l-4.84.35a3,3,0,0,1,1.07-1.32,3.5,3.5,0,0,1,1.92-.74.89.89,0,0,1,.85.29A5.42,5.42,0,0,1,219.31,74.4Z"/><path class="cls-3" d="M118.27,43.58c0,.2-.31.12-.39.29-.25.12-.44,0-.62-.15a13.52,13.52,0,0,0-5-1.81,29.31,29.31,0,0,0-5.36-.66,4.63,4.63,0,0,0-3.86,1.38c-2.3,2.45-4.38,5.08-6.42,7.74A4.09,4.09,0,0,0,96,51.5a1,1,0,0,1-.89.7c-.58.1-1.17.1-1.74.22A3.06,3.06,0,0,0,91.17,54a11.79,11.79,0,0,0-.83,1.62c-.06.15-.1.32-.31.31-.47-.62-.2-1.29-.1-1.93s.3-1.44.38-2.17A2.43,2.43,0,0,1,91.68,50c.7-.4,1.39-.82,2.08-1.22A6,6,0,0,0,96,46.27c.33-.61.69-1.2,1-1.81a4.54,4.54,0,0,1,1-1.24,1.2,1.2,0,0,0,.5-1.17,2.44,2.44,0,0,1,0-.47c.27-.25.59-.17.9-.12s.74.2,1.1.3.51.29.66,0-.16-.45-.34-.61a2.28,2.28,0,0,0-1.55-.58,2.14,2.14,0,0,1-2.07-1.43,34.89,34.89,0,0,0-1.92-3.56,4.33,4.33,0,0,0-2.94-2.07,4.88,4.88,0,0,1-.66-.16c-.41-.13-.56-.4-.27-.76s.31-.66.73-.74a.31.31,0,0,0,.29.14c.71,0,1.43.06,2.14.13a19.9,19.9,0,0,1,3,.48,2.86,2.86,0,0,1,1.37.83,21.31,21.31,0,0,0,5,3.64l1.6.87A4.91,4.91,0,0,1,107,39.15a.62.62,0,0,0,.56.27,13.94,13.94,0,0,1,2.89.16,12.41,12.41,0,0,1,3.59.78,16.92,16.92,0,0,1,1.86.92c.18.11.31.17.47,0a9.61,9.61,0,0,1,3.16-1.75,8.58,8.58,0,0,1,3.54-.67,1.26,1.26,0,0,1,1.33.81.58.58,0,0,1-.62.15,3.83,3.83,0,0,0-3.3,1c-.73.66-1.61,1.14-2.29,1.87C117.83,43.05,117.79,43.34,118.27,43.58Z"/><path class="cls-2" d="M92.18,31.83l-.63.86c-.23.31-.19.42.19.49a8.92,8.92,0,0,1,1.24.29,4.09,4.09,0,0,1,2.35,1.79,38.43,38.43,0,0,1,2.24,4.14,1.6,1.6,0,0,0,1.44.94,5.94,5.94,0,0,1,1.12.17,2,2,0,0,1,1.28,1c.09.18.13.34,0,.5a.38.38,0,0,1-.43.07l-.77-.26a4,4,0,0,0-1.65-.26l-.93-.29a1.61,1.61,0,0,1-1.14-.95c-.59-1.14-1.16-2.28-1.78-3.4a6.22,6.22,0,0,0-1.35-1.75,8.67,8.67,0,0,0-3.5-.85c-1.33-.2-2.68-.29-4-.51a2.84,2.84,0,0,0-2.69.88c-.37.4-.7.82-1,1.24-.17.2-.31.45-.61.49-.37.38-.72.79-1.12,1.14s-.64.27-.76-.32c0-.91,0-.87-.83-1.27a3.12,3.12,0,0,0-3.31.24,2,2,0,0,1-1,.45,2.53,2.53,0,0,0-.64.31c-.29,0-.63.28-.83-.13s.11-.57.31-.8a4.7,4.7,0,0,1,1.14-.83c.21-.12.41-.26.61-.4a4.34,4.34,0,0,1,2.43-.68,5.53,5.53,0,0,1,1.74.46c.34.14.66.29,1,.42.69.25.49.29,1-.27l.69-.83a4.05,4.05,0,0,1,2.74-1.56,32.55,32.55,0,0,1,3.81.38c.62.07,1.24.12,1.87.18.28,0,.39-.07.42-.36a6.86,6.86,0,0,1,1.38-3.24,3.15,3.15,0,0,1,2.5-1.27c1.68-.14,3.35-.27,5-.43a5.48,5.48,0,0,0,1.43-.37,7.67,7.67,0,0,1,2.14-.55c.2,0,.36-.07.41-.28A5.42,5.42,0,0,1,105,24.27a3,3,0,0,1,.85-.66.46.46,0,0,1,.26,0c.12.07.08.19,0,.3a26,26,0,0,1-1.31,2.51l-.22.33c.15.26.42.28.62.42a9,9,0,0,1,2,2.14c.07.1.17.24.09.38a.33.33,0,0,1-.42.1,4.7,4.7,0,0,1-1.32-.67c-.27-.2-.52-.43-.78-.65A2.22,2.22,0,0,0,103,28a7.12,7.12,0,0,0-1.29.39A10.43,10.43,0,0,1,98.5,29c-1.26.06-2.5.24-3.76.29a2.14,2.14,0,0,0-1.94,1.26C92.6,31,92.34,31.39,92.18,31.83Z"/><path class="cls-2" d="M90,55.92a10.68,10.68,0,0,1,1.1-2.22,3,3,0,0,1,1.72-1.32A13.66,13.66,0,0,1,95.31,52a.51.51,0,0,0,.49-.37,6.18,6.18,0,0,1,1.18-2c1.48-1.9,3-3.78,4.56-5.59.53-.61,1.09-1.2,1.65-1.78a3.47,3.47,0,0,1,1.74-1,7.93,7.93,0,0,1,2.66-.15c1,.1,2.06.15,3.08.31a29.13,29.13,0,0,1,5,1.25,6.51,6.51,0,0,1,1.32.66,4.24,4.24,0,0,0,.86.53,2.16,2.16,0,0,0,1,.26h1.8a3.31,3.31,0,0,1,3,.84,17,17,0,0,1,3.91,5.28,2.16,2.16,0,0,1,.21.78c0,.22,0,.43-.34.29a24.46,24.46,0,0,0-1.75-1.91,2.33,2.33,0,0,1-1-.85c-.43-.53-.87-1-1.27-1.59a3.36,3.36,0,0,0-3-1.43c-.27,0-.54,0-.81,0a5.06,5.06,0,0,1-3.48-1,11.21,11.21,0,0,0-3.87-1.34,29.32,29.32,0,0,0-5.82-.72,3,3,0,0,0-2.5,1c-.57.63-1.13,1.28-1.71,1.91-.15.16-.26.37-.52.39a1.46,1.46,0,0,0-.38.44,3.59,3.59,0,0,1-.34.64c-1.33,1.58-2.59,3.23-3.92,4.9a22.13,22.13,0,0,1,2.7,0,6.47,6.47,0,0,1,4.69,1.89,1.79,1.79,0,0,1,.64,1.22l-.14.11c-.23.23-.46.1-.68,0a7,7,0,0,1-1.09-.55,6.9,6.9,0,0,0-4-1c-1.57,0-3.14,0-4.71.14A2.93,2.93,0,0,0,92,55a13.5,13.5,0,0,1-1.16,1.74c-.2.24-.41.58-.81.27A2.15,2.15,0,0,1,90,55.92Z"/><path class="cls-2" d="M136.29,73.22a.5.5,0,0,1,0,.13c-.08.19-.18.39-.42.36s-.27-.23-.32-.39a7.23,7.23,0,0,1-.31-1.84,6.81,6.81,0,0,0-.14-1.8c-.22-.18-.17-.44-.18-.68a4.88,4.88,0,0,0-1.47-3.23,58.67,58.67,0,0,0-4.58-4.07,7.54,7.54,0,0,1-1.59-2,5.56,5.56,0,0,0-4.17-2.88c-1-.12-2.06,0-3.08-.18l-1.56-.18c.25.94.87,1.71.66,2.68,0,.13,0,.28-.23.35-.88-1.51-2.16-2.73-3.07-4.22a5.13,5.13,0,0,1-.36-.65c-.1-.23,0-.36.25-.3a1.76,1.76,0,0,1,.88.47,1.43,1.43,0,0,0,1.42.36,8.47,8.47,0,0,1,1.88.05c1.16,0,2.32.13,3.48.25A6.53,6.53,0,0,1,128,58.22a1.47,1.47,0,0,1,.34.32c.9,1.68,2.51,2.66,3.86,3.9a15.82,15.82,0,0,1,3.41,3.62,1.33,1.33,0,0,0,1.77.76,19.35,19.35,0,0,1,4.09-.38,4.22,4.22,0,0,1,3.74,1.61q1.44,1.86,3,3.67a2.87,2.87,0,0,0,1.25.43,3.61,3.61,0,0,1,2.5,1.12,6.91,6.91,0,0,1,1.3,2.83c0,.14-.08.19-.19.23a1.11,1.11,0,0,1-.86-.58c-.38-.48-.85-.88-1.19-1.38s-1-.54-1.46-.91c-.28-.18-.61-.08-.91-.16a5.07,5.07,0,0,1-1.77-.92c-.54-.17-.77-.67-1.09-1.06-.52-.64-1-1.28-1.52-2A3.51,3.51,0,0,0,140.67,68a2.59,2.59,0,0,1-.73.07c-.92.09-1.83.25-2.74.33-.66,0-.75.18-.69.86a10.83,10.83,0,0,1,.11,3A2.16,2.16,0,0,1,136.29,73.22Z"/><path class="cls-3" d="M148.18,71.72a5.74,5.74,0,0,1-1.57-1.65c-.62-.8-1.22-1.61-1.9-2.36a3.35,3.35,0,0,0-1.88-1,8.19,8.19,0,0,0-2.47-.07c-1,.1-2.06.14-3.07.33a4.08,4.08,0,0,0-.85.22c-.26.1-.41.06-.51-.22a6.41,6.41,0,0,0-1.56-2.26,48.35,48.35,0,0,0-4.47-4,8.22,8.22,0,0,1-1.89-2.5,4.13,4.13,0,0,1,2,.8c1.51,1,2.95,2,4.36,3.15a1.4,1.4,0,0,0,.54.25q2,.54,4,1.11a6.37,6.37,0,0,1,.69.25,6.47,6.47,0,0,0,2.5.69,4.34,4.34,0,0,1,2.21.94,5.15,5.15,0,0,1,2,1.87c.13.26.39.35.61.51a3.61,3.61,0,0,1,1.7,2.9A1.46,1.46,0,0,1,148.18,71.72Z"/><path class="cls-4" d="M90,57c.32.15.44-.1.6-.29a14.07,14.07,0,0,0,1.22-1.85,2.83,2.83,0,0,1,2.42-1.47,43.5,43.5,0,0,1,5.59-.16,6.45,6.45,0,0,1,3.33,1c.45.29,1,.49,1.43.74.13.07.27,0,.4,0a6.56,6.56,0,0,1,2.61,1.74c.18.19.32.39.19.65a.63.63,0,0,1-.61.35,12.23,12.23,0,0,1-3.13-.36c-1.84-.39-3.68-.76-5.54-1-.73-.11-1.47-.08-2.2-.21a3.36,3.36,0,0,0-2.09.42,16.31,16.31,0,0,0-3,1.76,2,2,0,0,1-1.16.49c-.43,0-.55-.11-.59-.53S89.77,57.34,90,57Z"/><path class="cls-3" d="M127.48,51.32c.15,0,.25-.07.21-.25a6.4,6.4,0,0,0-.33-1,16.65,16.65,0,0,0-2.22-3.35c-.26-.34-.54-.66-.81-1a4.32,4.32,0,0,0-3.28-1.6l-.34,0a2.32,2.32,0,0,1,1.56-.67,16.63,16.63,0,0,1,2.82.17,5.74,5.74,0,0,1,2.59,1.22q1.86,1.32,3.66,2.73a5.6,5.6,0,0,1,2.19,3.28.91.91,0,0,1-.71,1.22,6.16,6.16,0,0,1-2.8.09c-.35-.06-.71-.07-1.06-.14A2.93,2.93,0,0,1,127.48,51.32Z"/><path class="cls-4" d="M101.77,45.75a26.18,26.18,0,0,1,2.32-2.62,3,3,0,0,1,2.41-.85,30.91,30.91,0,0,1,6.48.88,10.61,10.61,0,0,1,4,1.67,2.66,2.66,0,0,0,1.59.5l2.7.11a2.59,2.59,0,0,1,1.83.89,7,7,0,0,1,.83,1c.54.75,1.18,1.41,1.78,2.11-.1.15-.2.12-.33,0a16.15,16.15,0,0,1-2.06-1.39,3.34,3.34,0,0,0-2.36-.79,6.63,6.63,0,0,1-2.13-.16c-1-.31-2-.63-3.07-1a44,44,0,0,0-6.08-1.65,18,18,0,0,0-4.08-.34,1,1,0,0,0-.66.27c-.57.5-1.16,1-1.74,1.48a1.32,1.32,0,0,1-.94.29A.47.47,0,0,1,101.77,45.75Z"/><path class="cls-4" d="M123.15,56.71a5.09,5.09,0,0,1,4,2.67,12.09,12.09,0,0,0,3.14,3.39A30.8,30.8,0,0,1,133.81,66,4.38,4.38,0,0,1,135,68.74c0,.32,0,.63,0,.94s-.13.36-.35.15a11.12,11.12,0,0,1-1.57-1.65,7.17,7.17,0,0,0-2.59-2.3,11.2,11.2,0,0,1-3.4-2.39,13.19,13.19,0,0,1-1.92-2.67,3.69,3.69,0,0,0-1.7-1.66,2.73,2.73,0,0,1-1.32-1.36C122,57,122.28,56.66,123.15,56.71Z"/><path class="cls-4" d="M155.74,58.88a2.3,2.3,0,0,1,.5.87.38.38,0,0,1-.08.37c-.12.12-.24.06-.37,0a16.27,16.27,0,0,1-2.11-1.19c-1-.63-1.83-1.45-2.78-2.12a7.88,7.88,0,0,0-4.64-1.57,12.18,12.18,0,0,0-2.89.12,1.2,1.2,0,0,1-.33,0,1.06,1.06,0,0,1-1.11-1.09c-.17-.56.23-.83.6-1.05a2.58,2.58,0,0,1,1.54-.4,5.68,5.68,0,0,0,2.89.52,5.78,5.78,0,0,1,4.46,1.87,19.15,19.15,0,0,0,4.22,3.44A.18.18,0,0,1,155.74,58.88Z"/><path class="cls-2" d="M178.07,56.74a3.54,3.54,0,0,1,.73.06c.6.09,1.2.16,1.81.22a4.07,4.07,0,0,1,2.5,1.22,1.19,1.19,0,0,1-.59,2.17,14.38,14.38,0,0,1-2.54.24c-1.24.09-2.47.19-3.7.33a3,3,0,0,1-1.19-.13,1.58,1.58,0,0,1-1-2,2.39,2.39,0,0,1,1.44-1.59A8.52,8.52,0,0,1,178.07,56.74Z"/><path class="cls-4" d="M81.5,36.44l1.21-1.53a3.08,3.08,0,0,1,3.19-1.26c1.91.32,3.85.43,5.75.76a4.08,4.08,0,0,1,1.88.69c.17.35.17.65-.28.79a1.86,1.86,0,0,1-1.54.19.84.84,0,0,0-.27,0c-1,0-2.09-.2-3.15-.15a9.42,9.42,0,0,1-2.12-.22,2.06,2.06,0,0,0-1.83.43c-.37.32-.78.6-1.17.9a1.29,1.29,0,0,1-.81.26C81.7,37.26,81.56,37.13,81.5,36.44Z"/><path class="cls-2" d="M78.51,49.42a5.92,5.92,0,0,1,1.7.26,2.57,2.57,0,0,1,1.26.87,1.77,1.77,0,0,1-.4,2.65,4.66,4.66,0,0,1-1.24.52,20.78,20.78,0,0,1-4.43.78,3.08,3.08,0,0,1-1.2-.15,1.82,1.82,0,0,1-.75-3,5.46,5.46,0,0,1,1.3-.94A7.43,7.43,0,0,1,78.51,49.42Z"/><path class="cls-2" d="M95.81,81.54a21.63,21.63,0,0,1,3.93-1.22,7,7,0,0,1,3.46.21,3.24,3.24,0,0,1,1.23.68,1.12,1.12,0,0,1-.34,2.05,4.51,4.51,0,0,1-1.25.27,30.25,30.25,0,0,1-4.36.21,3.69,3.69,0,0,1-1.85-.57,1,1,0,0,1-.5-1.08C96.22,81.78,96,81.74,95.81,81.54Z"/><path class="cls-3" d="M144.1,52.94a4.7,4.7,0,0,0-1.11.25,1.44,1.44,0,0,0-1.06,1.09,4.15,4.15,0,0,1-2.08.41c-.14,0-.28,0-.32-.18a.32.32,0,0,1,.13-.36,7.35,7.35,0,0,1,1-.64c.6-.24.87-.77,1.22-1.22a4.22,4.22,0,0,1,3-1.67,3.05,3.05,0,0,0,2-.81,2.47,2.47,0,0,1,2.51-.56c.69.19.84.5.65,1.2a1.62,1.62,0,0,0,0,.2c0,.29-.27.28-.45.3A2,2,0,0,0,148.06,52a.85.85,0,0,1-.95.47A4.88,4.88,0,0,0,144.1,52.94Z"/><path class="cls-2" d="M144.1,52.94a.74.74,0,0,1,.52-.45,5.51,5.51,0,0,1,2.58-.17.52.52,0,0,0,.66-.28,2.15,2.15,0,0,1,2-1.3c.05,0,.11-.06.17-.09a1.93,1.93,0,0,1,1.22.34,6.25,6.25,0,0,0-2.37,1.32c.08.22.26.19.4.23a5.5,5.5,0,0,1,2.14,1.25,34.43,34.43,0,0,1,4,4,6.85,6.85,0,0,1,.58.83c.2.37-.13.19-.26.22a14.48,14.48,0,0,1-3.49-2.58c-.58-.57-1.18-1.11-1.77-1.65a4.72,4.72,0,0,0-3.29-1.11,12.92,12.92,0,0,1-2.4-.23A1,1,0,0,1,144.1,52.94Z"/><path class="cls-3" d="M105.16,54.83a5,5,0,0,0-3.59-2.7,13.9,13.9,0,0,0-3.86-.24,5.74,5.74,0,0,1-.9-.06c1.57-1.91,3-3.85,4.58-5.65a4.87,4.87,0,0,1,.16,2.31,9.75,9.75,0,0,0,0,1.95.55.55,0,0,0,.28.48,11.48,11.48,0,0,1,2.06,1.6,8.37,8.37,0,0,1,1.31,1.77C105.25,54.47,105.4,54.65,105.16,54.83Z"/><path class="cls-2" d="M116.07,33.59a2.43,2.43,0,0,1-.8-.12,1.5,1.5,0,0,1-1-2.24,3.23,3.23,0,0,1,2.67-1.7s0,0,.07,0c.7.37,1.44,0,2.16.12a2.84,2.84,0,0,1,.91.19,1.51,1.51,0,0,1,1,1.44,1.58,1.58,0,0,1-1,1.51,8.29,8.29,0,0,1-1.69.46A20.61,20.61,0,0,1,116.07,33.59Z"/><path class="cls-2" d="M124.23,12.9a7.75,7.75,0,0,1,2.91.4,3.16,3.16,0,0,1,1.23.8,1.05,1.05,0,0,1-.13,1.61,1,1,0,0,1-.27.19,6.33,6.33,0,0,1-3.52.67,3.08,3.08,0,0,1-2-1.2,1.43,1.43,0,0,1,.71-2.29A3.06,3.06,0,0,1,124.23,12.9Z"/><path class="cls-3" d="M93.25,35.89a.88.88,0,0,0,.28-.79A9.94,9.94,0,0,1,95.45,38c.42.76.8,1.55,1.19,2.33a2.84,2.84,0,0,0,1,1l-1.73.87a1.24,1.24,0,0,1-1.39,0,1,1,0,0,1-.54-.87A22,22,0,0,0,93.25,35.89Z"/><path class="cls-2" d="M113.14,75.79a8,8,0,0,1-1.47-.12,2.21,2.21,0,0,1-.79-.37,1.05,1.05,0,0,1-.31-1.38,2,2,0,0,1,.9-.89,5.94,5.94,0,0,1,3.26-.63,1.74,1.74,0,0,1,1.51,1.34,1.64,1.64,0,0,1-1,1.77A5.31,5.31,0,0,1,113.14,75.79Z"/><path class="cls-2" d="M118.27,43.58a1.27,1.27,0,0,1-.27,0c-.4-.06-.51-.26-.3-.6a4,4,0,0,1,1.07-1.11c.69-.49,1.35-1,2-1.55a3.81,3.81,0,0,1,2.85-.71c.24,0,.49,0,.73,0A13.88,13.88,0,0,1,128.79,41c-.09.21-.26.12-.4.11-1.66-.09-3.32-.22-5-.25a2.83,2.83,0,0,0-2.11.71c-.47.44-1,.79-1.55,1.19A13.25,13.25,0,0,1,118.27,43.58Z"/><path class="cls-2" d="M133.19,40.08a1.47,1.47,0,0,1-.67-.39,9.76,9.76,0,0,0-4.56-1.9,1.8,1.8,0,0,0-1.87.65,7,7,0,0,1-.91.89c-.13.11-.29.29-.47.16a.45.45,0,0,1-.13-.49,3.47,3.47,0,0,1,.77-1.63,2.68,2.68,0,0,1,2.5-.89,11.48,11.48,0,0,1,3.67,1.07A2.92,2.92,0,0,1,133.19,40.08Z"/><path class="cls-2" d="M178,74.82a2.29,2.29,0,0,1-2.38-1.53,1.26,1.26,0,0,1,.79-1.57,2.3,2.3,0,0,1,1.71,0,2.36,2.36,0,0,0,1,.2,2.1,2.1,0,0,1,1.15.33,1,1,0,0,1,.22,1.65,1.73,1.73,0,0,1-.53.4A5.21,5.21,0,0,1,178,74.82Z"/><path class="cls-4" d="M140.05,68a6.37,6.37,0,0,1,2.61,0,1.74,1.74,0,0,1,1,.52,20.21,20.21,0,0,1,1.68,2l1.52,1.89a2.45,2.45,0,0,1-2-.72c-.68-.51-1.3-1.09-2-1.65a2.65,2.65,0,0,0-1.54-.57,2,2,0,0,1-.82-.26.91.91,0,0,1-.58-1C139.84,68.06,140,68,140.05,68Z"/><path class="cls-2" d="M53.57,58.86A2.22,2.22,0,0,1,52,58.32a1.11,1.11,0,0,1-.13-1.57,2.18,2.18,0,0,1,2-.81,9.07,9.07,0,0,1,1.26.17,2,2,0,0,1,1.11.58.94.94,0,0,1,0,1.5A2.69,2.69,0,0,1,55,58.7l-.33,0Z"/><path class="cls-3" d="M123.15,56.71c-.77.16-.89.3-.94,1.09-.52.43-1,.84-1.6,1.22a1.47,1.47,0,0,1-1.52.13A9.45,9.45,0,0,0,118,56.21a32.3,32.3,0,0,0,4.63.4C122.81,56.61,123,56.57,123.15,56.71Z"/><path class="cls-3" d="M140.05,68l-.14.26a1.28,1.28,0,0,1-.72.79,2.23,2.23,0,0,0-1.06,1,11.62,11.62,0,0,0-1,2.18,1.55,1.55,0,0,1-.84,1.06,11.22,11.22,0,0,0,0-3.92c-.11-.8-.3-1,.87-1.09.65,0,1.29-.16,1.93-.23C139.42,68,139.74,68,140.05,68Z"/><path class="cls-4" d="M74.44,36.68a14,14,0,0,1,1.8-1,2.35,2.35,0,0,1,2,0c.48.19,1,.4,1.45.57.31.11.37.27.23.55a2,2,0,0,1-.26.55A3.47,3.47,0,0,1,78.17,37,1.81,1.81,0,0,0,77,37a7.83,7.83,0,0,1-1.74.1A.92.92,0,0,1,74.44,36.68Z"/><path class="cls-4" d="M149.53,73.46a2.23,2.23,0,0,1,1.67.9,16.32,16.32,0,0,0,1.84,2s.11.09.12.15-.08.12-.15.11A2.39,2.39,0,0,1,151.7,76a8.21,8.21,0,0,0-1.89-1.16A2,2,0,0,1,149,74c-.23-.38-.15-.5.28-.54Z"/><path class="cls-2" d="M26.88,73.89a2.06,2.06,0,0,1,2.3-2,1.61,1.61,0,0,0,.58-.1,7.51,7.51,0,0,1,3.4-.08,5.05,5.05,0,0,1,1.4.63c.18.26.46.43.61.72a1.17,1.17,0,0,1-.58,1.72,9.35,9.35,0,0,1-2.09.49q-1.11.24-2.25.39a3.86,3.86,0,0,1-2.46-.51A2.49,2.49,0,0,1,26.88,73.89Z"/><path class="cls-2" d="M36.47,71.07a3.69,3.69,0,0,1-1.64-.28,1.34,1.34,0,0,1-.9-1.15v-.07c.07-.2-.3-.24-.18-.45a1.15,1.15,0,0,1,.66-.43,4,4,0,0,1,3,.11,1.6,1.6,0,0,1,.93.91c0,.74-.54,1-1.16,1.2C37,71,36.71,71,36.47,71.07Z"/><path class="cls-2" d="M81.14,26.44c.3,0,.54.08.79.09a1.66,1.66,0,0,1,1.36,1.4,1.5,1.5,0,0,1-.73,1.6,2,2,0,0,1-.36.18,4.9,4.9,0,0,1-2.65.22,1.58,1.58,0,0,1-.76-2.79A3.45,3.45,0,0,1,81.14,26.44Z"/><path class="cls-4" d="M182.1,59.09a.48.48,0,0,1-.46.16c-1.81.09-3.62.26-5.44.43l-.2,0c-.27,0-.58,0-.69-.28s.1-.52.29-.71a1.15,1.15,0,0,1,.38-.27,4.68,4.68,0,0,1,2.88-.44c.63.13,1.29.16,1.92.35A3,3,0,0,1,182.1,59.09Z"/><path class="cls-4" d="M75.3,53.34a1.79,1.79,0,0,1-.68-.09.65.65,0,0,1-.36-1.07,1.65,1.65,0,0,1,.58-.46,20.59,20.59,0,0,1,2.41-1A4.23,4.23,0,0,1,80,50.8a1.22,1.22,0,0,1,.29.17c.68.54.6,1.16-.22,1.47a14,14,0,0,1-3.21.74C76.4,53.24,75.91,53.28,75.3,53.34Z"/><path class="cls-4" d="M103.36,82.1a23.1,23.1,0,0,1-5.25.31c0-.26.18-.24.32-.27a14.31,14.31,0,0,0,1.4-.46A4.1,4.1,0,0,1,103.36,82.1Z"/><path class="cls-4" d="M116.21,32.39H116c-.69-.05-.86-.39-.45-1a1.16,1.16,0,0,1,1.35-.62,7.31,7.31,0,0,0,1.81.07,7.36,7.36,0,0,1,.81.06c.2,0,.42.1.45.34s-.18.38-.4.47l-.13,0A20.57,20.57,0,0,1,116.21,32.39Z"/><path class="cls-4" d="M127.3,14.82a5.35,5.35,0,0,1-2.72.47,1.9,1.9,0,0,1-.79-.36c-.17-.14-.4-.24-.37-.52a.74.74,0,0,1,.68-.44,9.68,9.68,0,0,1,1.33.19A5.4,5.4,0,0,1,127.3,14.82Z"/><path class="cls-4" d="M111.85,74.4c.39-.49.91-.52,1.28-.78.55-.39,1.07-.15,1.59,0,.15,0,.3.15.28.34s-.15.26-.3.32a6.24,6.24,0,0,1-1.67.18A8,8,0,0,1,111.85,74.4Z"/><path class="cls-4" d="M179.49,73.09a2.77,2.77,0,0,1-2,.42,1,1,0,0,1-.48-.22c-.1-.09-.21-.18-.19-.33s.18-.19.3-.21c.56-.07,1.11-.14,1.67-.18C179.08,72.56,179.2,72.68,179.49,73.09Z"/><path class="cls-4" d="M52.85,57.44a3.16,3.16,0,0,1,1.72-.5c.32,0,.55.23.81.42A2.83,2.83,0,0,1,52.85,57.44Z"/><path class="cls-4" d="M34,73.57a.5.5,0,0,1-.29.16l-3.7.63a2.19,2.19,0,0,1-1.37-.27c-.2-.1-.44-.22-.38-.48a.66.66,0,0,1,.55-.53,5.29,5.29,0,0,1,.8-.08,13.19,13.19,0,0,1,2.81-.18A2.28,2.28,0,0,1,34,73.57Z"/><path class="cls-4" d="M37.08,69.89a2.5,2.5,0,0,1-1.87,0c-.1,0-.22-.1-.17-.24a.22.22,0,0,1,.15-.12A5.14,5.14,0,0,1,37.08,69.89Z"/><path class="cls-4" d="M80.4,28.88a1.78,1.78,0,0,1-.72-.11c-.36-.18-.45-.47-.17-.74a2.7,2.7,0,0,1,1.84-.65.67.67,0,0,1,.43.19.74.74,0,0,1,.39.66c0,.31-.32.41-.58.48A4.68,4.68,0,0,1,80.4,28.88Z"/></g></g></g></svg>