<svg id="Layer_1" data-name="Layer 1" xmlns="http://www.w3.org/2000/svg" viewBox="0 0 726.1252 726.1252"><circle cx="434.9477" cy="493.9089" r="35.4394" style="fill:#fcee23"/><circle cx="147.4248" cy="497.5251" r="40.5021" style="fill:#fcee23"/><path d="M592.0063,517.604a30.7806,30.7806,0,0,0,42.8247-11.8966,38.1982,38.1982,0,0,0,44.82-55.5368,35.79,35.79,0,0,0,10.3026-9.3813,36.1607,36.1607,0,0,0-3.7135-47.2584A42.2712,42.2712,0,1,0,604.9593,373.5a45.2814,45.2814,0,0,0-39.002,60.6188,44.5339,44.5339,0,1,0,26.049,83.4856Zm-46.5614-58.1233a31.7588,31.7588,0,0,1,30.0613-12.5344,6.393,6.393,0,0,0,6.1867-9.9314,32.5077,32.5077,0,0,1,29.07-50.7944,6.3939,6.3939,0,0,0,6.8083-6.7441,29.49,29.49,0,1,1,55.2016,12.6466,6.3941,6.3941,0,0,0,1.7768,8.2515c.1322.0979.2663.1892.4078.2813a23.3486,23.3486,0,0,1,4.7247,32.5243,23.113,23.113,0,0,1-11.7635,8.34,6.393,6.393,0,0,0-2.7558,10.4765,25.4106,25.4106,0,0,1-30.7662,39.6587,6.3924,6.3924,0,0,0-9.268,4,17.9728,17.9728,0,0,1-28.1109,9.947l-.6884-.5771a6.3929,6.3929,0,0,0-7.615-.3458,31.7372,31.7372,0,0,1-43.2695-45.1993Z" transform="translate(-16.9114 -17.4063)" style="fill:#272c67;stroke:#272c67;stroke-miterlimit:10;stroke-width:0.25px"/><path d="M545.4449,459.4807a31.7588,31.7588,0,0,1,30.0613-12.5344,6.393,6.393,0,0,0,6.1867-9.9314,32.5077,32.5077,0,0,1,29.07-50.7944,6.3939,6.3939,0,0,0,6.8083-6.7441,29.49,29.49,0,1,1,55.2016,12.6466,6.3941,6.3941,0,0,0,1.7768,8.2515c.1322.0979.2663.1892.4078.2813a23.3486,23.3486,0,0,1,4.7247,32.5243,23.113,23.113,0,0,1-11.7635,8.34,6.393,6.393,0,0,0-2.7558,10.4765,25.4106,25.4106,0,0,1-30.7662,39.6587,6.3924,6.3924,0,0,0-9.268,4,17.9728,17.9728,0,0,1-28.1109,9.947l-.6884-.5771a6.3929,6.3929,0,0,0-7.615-.3458,31.7372,31.7372,0,0,1-43.2695-45.1993Z" transform="translate(-16.9114 -17.4063)" style="fill:#fcee23"/><path d="M530.03,252.5783a25.5934,25.5934,0,0,0-18.2236-7.5534H248.49a25.7794,25.7794,0,0,0-25.7715,25.7715v61.35H169.2129A45.7121,45.7121,0,0,0,134.58,348.2648L98.93,389.7257A49.5157,49.5157,0,0,0,87.0664,422.248l.2419,58.2277-.3409,1.2864.099,29.8945a6.6736,6.6736,0,0,0,6.6682,6.6628h26.3817l1.0665,4.2659a45.196,45.196,0,0,0,87.8088,0l1.061-4.2659H405.587l1.0664,4.2659a45.196,45.196,0,0,0,87.8088,0l1.061-4.2659h35.3973a6.6725,6.6725,0,0,0,6.6628-6.6628v-240.86A25.6092,25.6092,0,0,0,530.03,252.5783Zm-293.986,18.2181a12.4534,12.4534,0,0,1,12.446-12.4459H511.8063a12.4721,12.4721,0,0,1,12.446,12.4459V474.1758l-46.8208.9015-2.001-1.3193a45.6362,45.6362,0,0,0-49.74-.011l-189.6468.4288Zm-127.01,127.6151,35.6557-41.45a32.4049,32.4049,0,0,1,24.5235-11.4894h53.5055V474.1758H190.5041l-1.3744-.8686a45.1991,45.1991,0,0,0-48.0906,0l-1.3743.8686H100.6063l-.2089-51.9828A36.1726,36.1726,0,0,1,109.0337,398.4115Zm12.1491,102.3054-1.061,4.2659H100.3974V485.2034H127.95L122.6781,495.67A49.2094,49.2094,0,0,0,121.1828,500.7169Zm43.9016,43.0111a32.0769,32.0769,0,1,1,32.0769-32.0714A32.1151,32.1151,0,0,1,165.0844,543.728Zm241.569-43.0111-1.0609,4.2659H210.0581l-1.0665-4.2549c-.3464-1.3743-2.6387-7.5314-4.068-11.1706l-1.7867-4.5463H412.09l-1.7866,4.5463C409.5615,491.4484,407.11,498.8808,406.6534,500.7169Zm43.9017,43.0111a32.0769,32.0769,0,1,1,32.0714-32.0714A32.1163,32.1163,0,0,1,450.5551,543.728Zm44.9736-38.7452-1.0665-4.2549c-.6926-2.7707-2.87-8.8287-3.87-10.17l-4.0185-5.3544h37.6787v19.7794Z" transform="translate(-16.9114 -17.4063)" style="fill:#272c67;stroke:#272c67;stroke-miterlimit:10;stroke-width:0.25px"/><path d="M137.3394,414.6177h62.18a7.2132,7.2132,0,0,0,7.207-7.2015V369.5285a7.2132,7.2132,0,0,0-7.207-7.2015H176.189c-11.8082,0-22.8194,6.267-29.4491,16.7559L131.2484,403.568v.011a7.1966,7.1966,0,0,0,6.091,11.0387Zm38.146-42.2635H197.7v33.0169l-57.1887.44,12.5779-20.3731C158.2732,377.2468,166.6457,372.3542,175.4854,372.3542Z" transform="translate(-16.9114 -17.4063)" style="fill:#272c67;stroke:#272c67;stroke-miterlimit:10;stroke-width:0.25px"/><circle cx="363.0626" cy="363.0626" r="354.0626" style="fill:none;stroke:#272c67;stroke-miterlimit:10;stroke-width:18px"/><line x1="125.7551" y1="110.505" x2="623.4994" y2="608.2493" style="fill:none;stroke:#272c67;stroke-miterlimit:10;stroke-width:18px"/></svg>