<svg xmlns="http://www.w3.org/2000/svg" viewBox="0 0 235.62 91.77"><defs><style>.cls-1{fill:#fef100;}.cls-2{fill:#14216a;}</style></defs><g id="Layer_2" data-name="Layer 2"><g id="grease"><g id="grease-icon"><path class="cls-1" d="M210.07,6.46c0,3.14-7.57,5.68-16.9,5.68S176.26,9.6,176.26,6.46,183.83.78,193.17.78,210.07,3.32,210.07,6.46Z"/><path class="cls-2" d="M193.17,12.92A40.19,40.19,0,0,1,181,11.22a13.11,13.11,0,0,1-3.85-1.94,3.63,3.63,0,0,1-1.63-2.82,3.63,3.63,0,0,1,1.63-2.82A13.11,13.11,0,0,1,181,1.7a44.66,44.66,0,0,1,24.41,0,13.05,13.05,0,0,1,3.86,1.94,3.62,3.62,0,0,1,1.62,2.82,3.62,3.62,0,0,1-1.62,2.82,13.05,13.05,0,0,1-3.86,1.94A40.08,40.08,0,0,1,193.17,12.92Zm0-11.36a38.18,38.18,0,0,0-11.71,1.62c-2.77.93-4.42,2.16-4.42,3.28s1.65,2.35,4.42,3.28a38.15,38.15,0,0,0,11.71,1.63,38.09,38.09,0,0,0,11.7-1.63c2.77-.93,4.43-2.16,4.43-3.28s-1.66-2.35-4.43-3.28A38.11,38.11,0,0,0,193.17,1.56Z"/><path class="cls-1" d="M188.21,53.63c-5.16-3.15-3.84-8.3,7.21-10.62,9.45-2,17.78-3,31.6-6.9,16.76-4.72,7.68-15.12-38-18.21-29.65-2-17.1-9.23-42.8-15.07C120.82-2.94,97.78,5.06,82.5,7.2,67.72,9.26,61,5.36,45.16,11.59c-5.5,2.17-6.65,6.36-2.74,7.49C50.25,21.34,50.59,25.44,41,27,26.22,29.41,6.79,35,2.17,39.69-7,49,32,47.5,44.9,59.68c15.35,14.48,42-5.54,64.87,4C139,75.85,201.33,61.64,188.21,53.63Z"/><path class="cls-2" d="M139.54,69.19c-2.45,0-4.85-.07-7.17-.2-9.16-.54-16.87-2.08-22.9-4.6a38.23,38.23,0,0,0-16.25-2.6,120.51,120.51,0,0,0-16.54,2.15c-5.63,1-11.12,2-16.22,2-6,0-11.53-1.36-16.09-5.66-2.65-2.49-6.68-4.63-12.32-6.51a158.74,158.74,0,0,0-15.39-4c-4.1-.92-8-1.79-10.88-2.77C2.31,45.79.56,44.58.11,43c-.36-1.21.15-2.52,1.5-3.89,2.84-2.87,10.23-5.6,15.93-7.39a175.39,175.39,0,0,1,23.29-5.51c4.81-.78,6.58-2.12,6.63-3s-1.55-2.31-5.26-3.39c-1.75-.5-2.8-1.62-2.86-3.07-.11-2.21,2.06-4.51,5.53-5.88C54.93,6.9,61.5,7,68.46,7.08a86.11,86.11,0,0,0,13.93-.65c3.5-.49,7.49-1.31,11.71-2.17A202.42,202.42,0,0,1,118.21.39a91,91,0,0,1,28.22,1.69c11.72,2.66,15.63,5.63,19.08,8.25a23.61,23.61,0,0,0,7.24,4.13c3.76,1.32,9,2.16,16.36,2.66,14.43,1,26.38,2.79,34.55,5.23A34.23,34.23,0,0,1,232.27,26c2.06,1.33,3.18,2.76,3.33,4.23.1,1-.19,2.42-2.13,3.88a19.52,19.52,0,0,1-6.24,2.75c-9.88,2.78-16.87,4.09-23.63,5.35-2.73.51-5.31,1-8,1.56a21.69,21.69,0,0,0-7.07,2.57,4.76,4.76,0,0,0-2.39,2.88c-.22,1.3.66,2.63,2.5,3.75h0c2.68,1.64,2.29,3.44,1.82,4.37a9.18,9.18,0,0,1-3.87,3.32,42.54,42.54,0,0,1-7.21,2.93A122.76,122.76,0,0,1,157.87,68,152,152,0,0,1,139.54,69.19Zm-44.45-9a38.25,38.25,0,0,1,15,2.75c5.87,2.44,13.4,3.95,22.39,4.47a142,142,0,0,0,25.22-.94,120.41,120.41,0,0,0,21.2-4.38c5.6-1.79,9.31-3.79,10.17-5.48.18-.36.61-1.2-1.24-2.33a7.63,7.63,0,0,1-2.58-2.4,4.13,4.13,0,0,1-.64-2.94A6.16,6.16,0,0,1,187.67,45a23.08,23.08,0,0,1,7.59-2.78c2.73-.57,5.31-1,8.05-1.57,6.73-1.26,13.69-2.56,23.5-5.32a18.09,18.09,0,0,0,5.73-2.5c1.09-.81,1.6-1.65,1.51-2.47s-1-2-2.63-3.09a32.72,32.72,0,0,0-8.21-3.46c-8.06-2.41-19.89-4.2-34.2-5.17-16.56-1.12-20.21-3.89-24.44-7.1-3.33-2.53-7.09-5.39-18.48-8a90.17,90.17,0,0,0-27.75-1.65A203,203,0,0,0,94.41,5.79C90.17,6.65,86.16,7.47,82.6,8a85.84,85.84,0,0,1-14.16.66A75.29,75.29,0,0,0,58,9a50.57,50.57,0,0,0-12.55,3.32c-3.21,1.27-4.61,3.15-4.55,4.36,0,1,1,1.44,1.74,1.66a14.86,14.86,0,0,1,4.64,2.07c1.52,1.11,1.79,2.19,1.75,2.9s-.48,1.83-2.26,2.79a18.52,18.52,0,0,1-5.68,1.69c-15,2.44-34,8-38.36,12.45-.93.94-1.3,1.74-1.12,2.37.29,1,1.86,1.94,4.68,2.89S12.94,47.3,17,48.21c4.92,1.11,10.5,2.36,15.54,4,5.87,2,10.08,4.21,12.89,6.86,3.57,3.36,7.94,5,13.78,5.22,5.29.18,11.07-.85,17.2-1.93a120.76,120.76,0,0,1,16.76-2.17Z"/><path class="cls-1" d="M119,81.11c0,5-10.58,9.89-23.63,9.89s-23.64-4.9-23.64-9.89,10.58-8.17,23.64-8.17S119,76.12,119,81.11Z"/><path class="cls-2" d="M95.39,91.77a44.18,44.18,0,0,1-17-3.13,17.88,17.88,0,0,1-5.3-3.32A5.93,5.93,0,0,1,71,81.11c0-1.92,1.29-4.65,7.46-6.69a56.5,56.5,0,0,1,17-2.25,56.59,56.59,0,0,1,17,2.25c6.16,2,7.45,4.77,7.45,6.69a5.93,5.93,0,0,1-2.09,4.21,17.75,17.75,0,0,1-5.3,3.32A44.13,44.13,0,0,1,95.39,91.77Zm0-18a54.87,54.87,0,0,0-16.47,2.17c-4.12,1.37-6.39,3.22-6.39,5.22s2.41,4.35,6.45,6.1a35.15,35.15,0,0,0,7.35,2.18,49.81,49.81,0,0,0,18.11,0,35,35,0,0,0,7.35-2.18c4-1.75,6.46-4,6.46-6.1s-2.27-3.85-6.39-5.22A55,55,0,0,0,95.39,73.72Z"/></g></g></g></svg>