<svg id="Layer_1" data-name="Layer 1" xmlns="http://www.w3.org/2000/svg" viewBox="0 0 726.1252 726.1252"><circle cx="363.0626" cy="363.0626" r="354.0626" style="fill:none;stroke:#272c67;stroke-miterlimit:10;stroke-width:18px"/><path d="M439.4756,169.1947v-31.29c0-23.7926-16.949-26.7263-16.949-26.7263h-74.368S331.21,114.1124,331.21,137.905v31.29H439.4756Z" transform="translate(-17.343 -19.9578)" style="fill:#f9ed21"/><path d="M458.6694,409.2172a11.27,11.27,0,0,1-2.21-3.7267c-.5033-1.4062-12.0121-34.8,14.3286-63.5317,10.1476-11.0746,10.886-37.768,7.8711-60.3546H291.5814c-3.0165,22.5866-2.2781,49.28,7.87,60.3546,26.3407,28.7313,14.8319,62.1255,14.3286,63.5317l-.0059.0167a11.2725,11.2725,0,0,1-2.5292,4.0648l-.0109.0114c-19.8055,20.405-18.8951,36.3693-18.8507,37.0428l.0518,1.0658v87.58H477.8505l.05-89.0308c-.0221,0,.5847-14.7507-19.2282-37.0207Z" transform="translate(-17.343 -19.9578)" style="fill:#f9ed21"/><path d="M487.9719,601.31l.0043-156.9124c.3244-4.78-.2-22.2175-20.5722-45.9163l-.273-.3179-.1-.4069a40.3143,40.3143,0,0,1,9.6318-36.6815c13.9083-15.1791,14.2155-42.6575,13.16-57.6859-1.5644-22.2966-7.4607-42.4088-12.2146-50.0125-8.2258-13.1607-38.1449-43.776-47.1187-52.8456l-.5066-.5121V187.9715h15.1542V145.3787c0-26.831-18.6372-37.1462-28.4916-38.8522l-1.5952-.276H355.3527l-1.5952.276c-9.8544,1.706-28.4916,12.0212-28.4916,38.8522v42.5928H340.42v12.0469l-2.4121,2.4445c-13.7691,14.0238-37.9527,39.2853-45.2128,50.9132-4.7539,7.6046-10.65,27.7168-12.2154,50.0134-1.0548,15.0284-.748,42.5068,13.1606,57.6859a40.4425,40.4425,0,0,1,9.6687,36.4817l-.1065.4475-.3124.3381c-3.6914,3.9875-22.0322,24.9482-20.5628,46.06l.0043.1215V601.31l.75,1.6679c15.6433,34.756,42.6005,34.0577,54.6688,28.8357l1.42-.6127,1.1116-1.0672c4.1446-3.9862,10.462-8.0769,13.794-8.9318l1.3427-.344.6444,1.2263a30.5631,30.5631,0,0,0,27.1951,16.8436c.5478,0,1.1117-.0206,1.7227-.0625l.1216-.0086.1215.0086c3.2177.2251,19.7318.4715,28.9264-16.79l.6478-1.2152,1.3333.3415c3.3273.8506,9.5112,4.8548,13.785,8.9267l1.1159,1.0723,1.4181.611c12.0734,5.2288,39.0314,5.922,54.6709-28.834ZM342.35,145.3787c0-19.3159,14.1778-21.9937,14.3216-22.0185l.2986-.0257,56.7608.0257c.1438.0248,14.3224,2.7026,14.3224,22.0185v25.5088H342.35ZM303.0835,272.5924A43.8812,43.8812,0,0,1,307.282,262.43c4.6071-7.38,20.6509-25.3239,42.9159-48h0c3.0012-3.0565,4.7924-4.84,4.8027-4.85l2.5031-2.492V187.9715h55.395v19.1063l2.5023,2.5031c10.895,10.8942,40.708,41.6254,47.7254,52.849a43.86,43.86,0,0,1,4.1959,10.1629l.6838,2.26H302.4ZM470.8879,597.59l-.178.3637c-4.5151,9.2288-10.1659,15.26-16.7965,17.9287a20.3423,20.3423,0,0,1-13.0276.777l-.3911-.11-.3029-.27c-4.79-4.2815-17.1508-14.03-28.4883-12.0863a17.0253,17.0253,0,0,0-12.402,9.5806c-3.679,7.3648-10.076,8.0589-12.35,8.0589-.2456,0-.4433-.0086-.5845-.0171l-1.18-.1036-.9192.08c-1.4924.1147-9.04.2508-13.1679-8.02a17.0244,17.0244,0,0,0-12.4038-9.5788c-11.2933-1.9657-23.6911,7.803-28.5,12.0939l-.3025.27-.39.11c-4.2584,1.1938-18.9886,3.38-29.8091-18.7109l-.1789-.3645V542.2424H470.9187Zm.04-72.4311H299.5153V444.0951l-.0445-.8806c-.1044-1.5781-.5126-16.2274,17.5637-34.8506a8.4215,8.4215,0,0,0,1.9067-3.059c.4476-1.25,10.5467-30.5156-12.6113-55.7753-4.5151-4.9277-7.37-13.147-8.4859-24.4306a142.39,142.39,0,0,1,.9144-31.6413l.2032-1.5207H471.4433l.2028,1.5207c1.3068,9.7893,4.6221,42.7627-7.5728,56.0714-23.1652,25.2679-13.0593,54.5251-12.6177,55.7583a8.4043,8.4043,0,0,0,1.6585,2.7979l.0531.06c14.4662,16.28,17.2081,28.2439,17.7027,32.8831h.1053Z" transform="translate(-17.343 -19.9578)" style="fill:#272c67"/><path d="M461.6416,256.36c-6.9235-11.0722-36.6216-41.6819-47.4793-52.54l-3.016-3.0161V182.7243h-51.89v18.093l-3.0294,3.016c-.02.02-1.8431,1.8364-4.7789,4.8256-22.1779,22.587-38.1362,40.4219-42.68,47.7006a42.7393,42.7393,0,0,0-4.0065,9.74H465.6453A42.7657,42.7657,0,0,0,461.6416,256.36Z" transform="translate(-17.343 -19.9578)" style="fill:#fff"/><path d="M301.2681,597.1829c10.134,20.69,23.4917,18.9944,27.7611,17.7947,5.4825-4.8927,18.0761-14.5843,29.9661-12.5133a18.7291,18.7291,0,0,1,13.6728,10.5227c3.6528,7.319,10.2077,7.1514,11.4476,7.0575l1.0724-.0937,1.2868.1139c1.0858.067,7.6005.2479,11.26-7.0777a18.7293,18.7293,0,0,1,13.6728-10.5227c11.8832-2.0375,24.47,7.6072,29.9527,12.5066,4.7185,1.3271,17.7546,2.6943,27.7746-17.788l.03-53.1879H301.2681Z" transform="translate(-17.343 -19.9578)" style="fill:#fff"/><line x1="125.7551" y1="110.505" x2="623.4994" y2="608.2493" style="fill:none;stroke:#272c67;stroke-miterlimit:10;stroke-width:18px"/></svg>