<svg xmlns="http://www.w3.org/2000/svg" viewBox="0 0 154 154"><defs><style>.cls-1{fill:#fef100;}.cls-2{fill:#fff;}.cls-3{fill:#14216a;}</style></defs><g id="Layer_2" data-name="Layer 2"><g id="grease"><g id="soap-icon"><rect class="cls-1" x="27.85" y="18.55" width="89.91" height="123.03" rx="6.58" transform="translate(-35.29 74.93) rotate(-45)"/><circle class="cls-2" cx="32.06" cy="29.85" r="25.64"/><circle class="cls-2" cx="63.1" cy="33.7" r="25.64"/><circle class="cls-2" cx="64.69" cy="50.92" r="25.64"/><circle class="cls-2" cx="85.76" cy="38.78" r="12.14"/><circle class="cls-2" cx="107.99" cy="63.85" r="22.04"/><circle class="cls-2" cx="96.83" cy="84.64" r="13.38"/><path class="cls-3" d="M84.73,152.55a11.65,11.65,0,0,1-8.25-3.41L3.91,76.57a11.7,11.7,0,0,1,0-16.5L15.25,48.73a.89.89,0,0,1,1.25,0,.88.88,0,0,1,0,1.25L5.16,61.32a9.91,9.91,0,0,0,0,14l72.57,72.57a9.95,9.95,0,0,0,14,0l49.7-49.7a9.91,9.91,0,0,0,0-14l-12-12a.88.88,0,0,1,1.25-1.25l12,12a11.68,11.68,0,0,1,0,16.5L93,149.14A11.65,11.65,0,0,1,84.73,152.55Z"/><path class="cls-3" d="M84.73,153.05a12.05,12.05,0,0,1-8.6-3.56L3.56,76.92a12.16,12.16,0,0,1,0-17.2L14.9,48.38a1.38,1.38,0,0,1,2,0,1.39,1.39,0,0,1,0,2L5.52,61.68A9.39,9.39,0,0,0,5.52,75l72.57,72.57a9.42,9.42,0,0,0,13.28,0l49.7-49.7a9.39,9.39,0,0,0,0-13.28l-12-12a1.38,1.38,0,0,1-.4-1,1.39,1.39,0,0,1,.4-1,1.4,1.4,0,0,1,2,0l12,12a12.17,12.17,0,0,1,0,17.2l-49.7,49.7A12.05,12.05,0,0,1,84.73,153.05ZM15.88,49a.39.39,0,0,0-.27.11L4.27,60.43a11.18,11.18,0,0,0,0,15.78l72.57,72.57a11.18,11.18,0,0,0,15.78,0l49.7-49.7a11.15,11.15,0,0,0,0-15.78l-12-12a.38.38,0,0,0-.54,0,.36.36,0,0,0-.11.26.39.39,0,0,0,.11.27l12,12a10.42,10.42,0,0,1,0,14.71l-49.71,49.7a10.41,10.41,0,0,1-14.7,0L4.81,75.67a10.39,10.39,0,0,1,0-14.7L16.15,49.62a.38.38,0,0,0-.27-.64Z"/><path class="cls-3" d="M84.73,133.24a11.59,11.59,0,0,1-8.25-3.41L15.79,69.14a.88.88,0,0,1,0-1.25.86.86,0,0,1,1.24,0l60.7,60.69a9.92,9.92,0,0,0,14,0l27-27a.86.86,0,0,1,1.24,0,.88.88,0,0,1,0,1.25l-27,27A11.59,11.59,0,0,1,84.73,133.24Z"/><path class="cls-3" d="M84.73,133.74a12.07,12.07,0,0,1-8.6-3.55l-60.7-60.7a1.39,1.39,0,0,1,2-2l60.7,60.7a9.42,9.42,0,0,0,13.28,0l27-27a1.39,1.39,0,1,1,2,2l-27,27A12.07,12.07,0,0,1,84.73,133.74ZM16.41,68.13a.39.39,0,0,0-.27.11.38.38,0,0,0,0,.54l60.7,60.7a11.2,11.2,0,0,0,15.78,0l27-27a.39.39,0,0,0,0-.54.4.4,0,0,0-.54,0l-27,27a10.43,10.43,0,0,1-14.7,0l-60.7-60.7A.39.39,0,0,0,16.41,68.13Z"/><path class="cls-3" d="M21.49,53.65a.94.94,0,0,1-.36-.08A26.11,26.11,0,1,1,48,9.32a.88.88,0,0,1,.13,1.24.89.89,0,0,1-1.24.14A24.35,24.35,0,1,0,21.84,52a.88.88,0,0,1,.46,1.16A.89.89,0,0,1,21.49,53.65Z"/><path class="cls-3" d="M21.49,54.15a1.34,1.34,0,0,1-.56-.12A26.61,26.61,0,1,1,48.32,8.93a1.36,1.36,0,0,1,.51.93,1.35,1.35,0,0,1-.3,1,1.37,1.37,0,0,1-1.94.21A23.85,23.85,0,1,0,22.05,51.5a1.38,1.38,0,0,1-.56,2.65ZM31.65,4.06A25.61,25.61,0,0,0,21.33,53.11a.41.41,0,0,0,.16,0,.36.36,0,0,0,.34-.22.37.37,0,0,0-.19-.5A24.85,24.85,0,1,1,47.22,10.31a.4.4,0,0,0,.28.08.35.35,0,0,0,.25-.14.4.4,0,0,0,.08-.28.4.4,0,0,0-.14-.26,25.5,25.5,0,0,0-16-5.65Z"/><path class="cls-3" d="M81.52,17.93a.88.88,0,0,1-.87-.75,17.72,17.72,0,0,0-34.53-2.07.87.87,0,0,1-1.09.6.88.88,0,0,1-.61-1.09,19.59,19.59,0,0,1,6.9-10.11,19.46,19.46,0,0,1,24.54.71A19.51,19.51,0,0,1,82.39,16.9a.87.87,0,0,1-.73,1Z"/><path class="cls-3" d="M81.52,18.43a1.38,1.38,0,0,1-1.37-1.17,17.22,17.22,0,0,0-33.55-2,1.38,1.38,0,0,1-1.71.95,1.39,1.39,0,0,1-1-1.72A20.1,20.1,0,0,1,51,4.11,19.77,19.77,0,0,1,63.15,0,20,20,0,0,1,82.89,16.83a1.36,1.36,0,0,1-.25,1,1.39,1.39,0,0,1-.9.55ZM63.15,1.77a18.13,18.13,0,0,1,18,15.33.38.38,0,0,0,.43.32.37.37,0,0,0,.31-.44A19,19,0,0,0,63.15,1a18.74,18.74,0,0,0-11.52,3.9,19.09,19.09,0,0,0-6.72,9.85.37.37,0,0,0,0,.29.38.38,0,0,0,.7-.08A18.27,18.27,0,0,1,63.15,1.77Z"/><path class="cls-3" d="M39.62,45.72l-.22,0a.9.9,0,0,1-.64-1.08,27.6,27.6,0,0,1,21-20.12.88.88,0,1,1,.36,1.73A25.94,25.94,0,0,0,40.47,45.06.87.87,0,0,1,39.62,45.72Z"/><path class="cls-3" d="M39.62,46.23a1.27,1.27,0,0,1-.34,0,1.36,1.36,0,0,1-.85-.63,1.38,1.38,0,0,1-.15-1A28.07,28.07,0,0,1,59.64,24a1.36,1.36,0,0,1,1,.19,1.43,1.43,0,0,1,.6.88,1.41,1.41,0,0,1-.2,1,1.38,1.38,0,0,1-.87.6A25.43,25.43,0,0,0,41,45.18,1.38,1.38,0,0,1,39.62,46.23ZM59.92,25h-.08A27.09,27.09,0,0,0,39.25,44.75a.39.39,0,0,0,0,.28.4.4,0,0,0,.24.18h.09a.39.39,0,0,0,.37-.29A26.43,26.43,0,0,1,60,25.74a.37.37,0,0,0,.24-.17.34.34,0,0,0,0-.28.37.37,0,0,0-.37-.3Z"/><path class="cls-3" d="M65.46,79A27.5,27.5,0,0,1,40.08,62.18a.88.88,0,1,1,1.62-.69A25.76,25.76,0,0,0,65.46,77.24a26.6,26.6,0,0,0,4.64-.42.88.88,0,0,1,1,.71.9.9,0,0,1-.72,1A28.21,28.21,0,0,1,65.46,79Z"/><path class="cls-3" d="M65.46,79.5A28,28,0,0,1,39.61,62.37a1.37,1.37,0,0,1,.74-1.81,1.35,1.35,0,0,1,1.06,0,1.36,1.36,0,0,1,.75.74,25.25,25.25,0,0,0,23.3,15.44A25.58,25.58,0,0,0,70,76.32a1.43,1.43,0,0,1,1,.23,1.4,1.4,0,0,1,.35,1.93,1.4,1.4,0,0,1-.9.57A28.28,28.28,0,0,1,65.46,79.5Zm-24.57-18-.15,0a.39.39,0,0,0-.2.5A27.06,27.06,0,0,0,70.32,78.06a.38.38,0,0,0,.25-.16.35.35,0,0,0,.06-.28.38.38,0,0,0-.16-.25.45.45,0,0,0-.28-.06,25.77,25.77,0,0,1-4.73.43A26.24,26.24,0,0,1,41.24,61.68a.41.41,0,0,0-.21-.2A.35.35,0,0,0,40.89,61.45Z"/><path class="cls-3" d="M91.77,48a.87.87,0,0,1-.87-.74,25.75,25.75,0,0,0-12.15-17.9.88.88,0,1,1,.91-1.51A27.48,27.48,0,0,1,92.64,47a.88.88,0,0,1-.73,1Z"/><path class="cls-3" d="M91.77,48.51a1.39,1.39,0,0,1-1.37-1.16A25.19,25.19,0,0,0,78.49,29.79a1.36,1.36,0,0,1-.63-.85A1.38,1.38,0,0,1,78,27.89a1.36,1.36,0,0,1,.85-.63,1.38,1.38,0,0,1,1,.16A28,28,0,0,1,93.14,46.9,1.38,1.38,0,0,1,92,48.49ZM79.21,28.22h-.1a.41.41,0,0,0-.23.18.35.35,0,0,0,0,.28.35.35,0,0,0,.17.24A26.27,26.27,0,0,1,91.4,47.18a.38.38,0,0,0,.43.32.38.38,0,0,0,.25-.16.4.4,0,0,0,.07-.28A27,27,0,0,0,79.4,28.28.35.35,0,0,0,79.21,28.22Z"/><path class="cls-3" d="M110.41,41.49a1,1,0,0,1-.34-.07.89.89,0,0,1-.47-1.16,22.26,22.26,0,0,0,1.77-8.76,22.53,22.53,0,0,0-32-20.44.88.88,0,1,1-.74-1.6A24.29,24.29,0,0,1,111.23,41,.91.91,0,0,1,110.41,41.49Z"/><path class="cls-3" d="M110.41,42a1.49,1.49,0,0,1-.54-.11,1.39,1.39,0,0,1-.73-1.82,21.79,21.79,0,0,0,1.73-8.56,22,22,0,0,0-31.28-20,1.35,1.35,0,0,1-1.06,0,1.37,1.37,0,0,1-.82-1.77A1.35,1.35,0,0,1,78.43,9a24.78,24.78,0,0,1,27.95,5,24.8,24.8,0,0,1,5.31,27.17A1.38,1.38,0,0,1,110.41,42ZM88.85,8.48a23,23,0,0,1,21.21,32,.37.37,0,0,0,0,.29.38.38,0,0,0,.21.2.32.32,0,0,0,.14,0,.37.37,0,0,0,.35-.23A23.79,23.79,0,0,0,78.85,9.92a.41.41,0,0,0-.2.21.36.36,0,0,0,0,.29.38.38,0,0,0,.21.2.41.41,0,0,0,.29,0A22.7,22.7,0,0,1,88.85,8.48Z"/><path class="cls-3" d="M86.37,75.19a.89.89,0,0,1-.8-.51A24.38,24.38,0,0,1,87,51.43a24.4,24.4,0,0,1,9.73-8.82.88.88,0,1,1,.79,1.57A22.63,22.63,0,0,0,87.17,73.93a.9.9,0,0,1-.43,1.18A1,1,0,0,1,86.37,75.19Z"/><path class="cls-3" d="M86.37,75.69a1.39,1.39,0,0,1-1.26-.8A24.88,24.88,0,0,1,96.55,42.16a1.33,1.33,0,0,1,1-.08,1.38,1.38,0,0,1,.19,2.55A22.13,22.13,0,0,0,87.62,73.72,1.37,1.37,0,0,1,87,75.56,1.29,1.29,0,0,1,86.37,75.69ZM97.17,43a.33.33,0,0,0-.17,0A23.88,23.88,0,0,0,86,74.47a.4.4,0,0,0,.35.22.47.47,0,0,0,.16,0,.36.36,0,0,0,.19-.21.36.36,0,0,0,0-.29A23.13,23.13,0,0,1,97.34,43.73a.36.36,0,0,0,.19-.21.41.41,0,0,0,0-.29.37.37,0,0,0-.22-.19A.25.25,0,0,0,97.17,43Z"/><path class="cls-3" d="M126,79.92a.88.88,0,0,1-.55-.19.9.9,0,0,1-.14-1.25,22.34,22.34,0,0,0,4.93-14.08,22.62,22.62,0,0,0-22.6-22.59,23.2,23.2,0,0,0-3.83.32.88.88,0,1,1-.3-1.74,24.67,24.67,0,0,1,4.13-.35,24.37,24.37,0,0,1,19,39.55A.9.9,0,0,1,126,79.92Z"/><path class="cls-3" d="M126,80.42h0a1.4,1.4,0,0,1-.86-.3,1.36,1.36,0,0,1-.51-.93,1.34,1.34,0,0,1,.29-1,21.86,21.86,0,0,0,4.81-13.77,22.09,22.09,0,0,0-25.84-21.77,1.39,1.39,0,0,1-.47-2.73,24.86,24.86,0,0,1,29.08,24.5,24.61,24.61,0,0,1-5.41,15.5A1.39,1.39,0,0,1,126,80.42ZM107.66,41.31a23.12,23.12,0,0,1,23.1,23.09,22.89,22.89,0,0,1-5,14.4.32.32,0,0,0-.08.28.4.4,0,0,0,.37.34.42.42,0,0,0,.3-.15,23.87,23.87,0,0,0-22.71-38.38.38.38,0,0,0-.24.15.43.43,0,0,0-.07.29.39.39,0,0,0,.44.31A23.3,23.3,0,0,1,107.66,41.31Z"/><path class="cls-3" d="M133.86,25.18A12.22,12.22,0,1,1,146.08,13,12.23,12.23,0,0,1,133.86,25.18Zm0-22.68A10.46,10.46,0,1,0,144.32,13,10.47,10.47,0,0,0,133.86,2.5Z"/><path class="cls-3" d="M133.86,25.68A12.72,12.72,0,1,1,146.58,13,12.74,12.74,0,0,1,133.86,25.68Zm0-24.44A11.72,11.72,0,1,0,145.58,13,11.74,11.74,0,0,0,133.86,1.24Zm0,22.68a11,11,0,1,1,11-11A11,11,0,0,1,133.86,23.92Zm0-20.91a10,10,0,1,0,9.95,10A10,10,0,0,0,133.86,3Z"/><path class="cls-3" d="M24.84,152.54a12.27,12.27,0,1,1,8.5-21.11.88.88,0,1,1-1.23,1.27,10.5,10.5,0,1,0,3.23,7.57.88.88,0,0,1,1.76,0A12.28,12.28,0,0,1,24.84,152.54Z"/><path class="cls-3" d="M24.84,153a12.77,12.77,0,1,1,8.85-22,1.38,1.38,0,1,1-1.92,2,10,10,0,1,0,3.06,7.21,1.39,1.39,0,0,1,2.78,0A12.79,12.79,0,0,1,24.84,153Zm0-24.53A11.77,11.77,0,1,0,36.6,140.27a.38.38,0,0,0-.76,0,11,11,0,1,1-3.38-7.93.39.39,0,0,0,.54,0,.38.38,0,0,0,0-.54A11.69,11.69,0,0,0,24.84,128.51Z"/><path class="cls-3" d="M11.49,120.09a10.27,10.27,0,1,1,10.26-10.27A10.28,10.28,0,0,1,11.49,120.09Zm0-18.78a8.51,8.51,0,1,0,8.5,8.51A8.52,8.52,0,0,0,11.49,101.31Z"/><path class="cls-3" d="M11.49,120.59a10.77,10.77,0,1,1,10.77-10.77A10.79,10.79,0,0,1,11.49,120.59Zm0-20.54a9.77,9.77,0,1,0,9.76,9.77A9.78,9.78,0,0,0,11.49,100.05Zm0,18.78a9,9,0,1,1,9-9A9,9,0,0,1,11.49,118.83Zm0-17a8,8,0,1,0,8,8A8,8,0,0,0,11.49,101.82Z"/><path class="cls-3" d="M91.46,98.64a.84.84,0,0,1-.35-.07A15.55,15.55,0,1,1,107,96.32.88.88,0,0,1,105.86,95,13.79,13.79,0,1,0,91.8,97a.88.88,0,0,1-.34,1.69Z"/><path class="cls-3" d="M91.45,99.15a1.4,1.4,0,0,1-.53-.11,16.07,16.07,0,1,1,16.37-2.33,1.39,1.39,0,0,1-1.75-2.15A13.29,13.29,0,1,0,92,96.48a1.41,1.41,0,0,1,.74.76,1.35,1.35,0,0,1,0,1.06A1.4,1.4,0,0,1,91.45,99.15Zm5.72-30a15.05,15.05,0,0,0-5.86,28.92.32.32,0,0,0,.14,0,.39.39,0,0,0,.36-.23.41.41,0,0,0,0-.29.36.36,0,0,0-.21-.21,14.29,14.29,0,1,1,14.58-2.07.38.38,0,0,0-.06.53.39.39,0,0,0,.54.06,15.06,15.06,0,0,0-9.49-26.74Z"/><path class="cls-1" d="M46.56,48.65s1.81,13.6,13.59,17.91,19.49-2.72,19.49-2.72S67.46,77.41,54.26,68.59C41.93,60.36,46.56,48.65,46.56,48.65Z"/><path class="cls-1" d="M117.73,78s6.67-10.31,1.15-20.09S104,48.41,104,48.41s16.19-2.17,20.06,11.51C127.69,72.7,117.73,78,117.73,78Z"/><path class="cls-1" d="M90.07,77.94s-2.54,6.92,2,11.92a10.49,10.49,0,0,0,10,3.58s-9.19,3.41-13.26-4.09C84.94,82.35,90.07,77.94,90.07,77.94Z"/><path class="cls-1" d="M19.57,135.24a8.21,8.21,0,0,0,1.88,8C24.88,147,28.52,146,28.52,146s-5.25,4.65-10-2.06C15.09,138.94,19.57,135.24,19.57,135.24Z"/><path class="cls-1" d="M38,12.2s-13.72-.08-19.61,11,0,19.68,0,19.68S6.59,28.93,17.14,17.07C27,6,38,12.2,38,12.2Z"/></g></g></g></svg>