<svg id="_ÎÓÈ_1" data-name="—ÎÓÈ_1" xmlns="http://www.w3.org/2000/svg" viewBox="0 0 723.1252 723.1252"><path d="M385.937,153.48a8.5648,8.5648,0,0,0,9.0085-1.2128l27.1361-22.6959,6.32,27.392a8.4829,8.4829,0,0,0,6.9217,6.4885l28.8247,4.7142-56.8149,46.3778H375.7891L359.17,141.1652Zm137.47,414.3579L410.5373,550.2773a8.7685,8.7685,0,0,0-2.4-.02L272.8138,567.9632,171.1551,552.15l34.13-62.2394,73.66,24.6951a8.5157,8.5157,0,0,0,5.3995-16.1529l-76.1163-25.5178-13.1971-47.2912,28.3344-54.5726,62.7021,45.9015a8.4546,8.4546,0,0,0,5.0258,1.6437,8.5148,8.5148,0,0,0,5.0313-15.3882l-67.2258-49.2124V328.3225L290.36,257.22l60.9967-19.8376-29.86,64.8683a8.5163,8.5163,0,0,0,7.73,12.0754,8.5463,8.5463,0,0,0,7.74-4.9565l35.79-77.7481h7.5912l10.4248,107.7834a8.48,8.48,0,0,0,8.4679,7.695c.2734,0,.5628-.0136.7937-.0372a8.5121,8.5121,0,0,0,7.69-9.2951L397.4576,231.6212h7.738l29.3375,56.68a8.5148,8.5148,0,1,0,15.1246-7.8265l-26.78-51.736,14.6131,9.3732q.2456.1578.5057.3011l65.5155,35.9923,10.2,73.6844-53.3343,39.1117a8.5181,8.5181,0,0,0-1.8319,11.9022,8.5172,8.5172,0,0,0,11.9067,1.8306l50.2443-36.8468L557.88,419.8624l4.28,68.4885-70.0632-13.0243a8.5169,8.5169,0,0,0-3.0724,16.7543l77.555,14.4158,28.964,37.6531Z" transform="translate(-20.0374 -20.0374)" style="fill:#fff200"/><path d="M616.3729,543.298,579.6763,495.59l-4.9433-79.0781a8.5163,8.5163,0,0,0-1.4133-4.19L531.009,348.8549l-11.215-81.0193a8.5534,8.5534,0,0,0-4.3364-6.2981l-83.06-45.4688,57.1619-46.6616a8.5152,8.5152,0,0,0-4.0144-14.9982L443.71,147.57l-8.1536-35.34a8.6,8.6,0,0,0-5.6131-6.17,8.4592,8.4592,0,0,0-8.1459,1.55L388.149,135.75l-37.8745-17.4246a8.5171,8.5171,0,0,0-11.8192,9.7577l20.4229,88.9445-76.0463,24.7344a8.5083,8.5083,0,0,0-3.8,2.5262l-65.09,75.2991a8.5149,8.5149,0,0,0-2.0718,5.5669v31.103L178.3688,420.78a8.4822,8.4822,0,0,0-.6422,6.2046l14.3808,51.5382-41.721,76.0837a8.5147,8.5147,0,0,0,6.16,12.5064l114.878,17.8709a8.73,8.73,0,0,0,2.4193.0209l135.3151-17.705,113.6734,17.6832a8.6393,8.6393,0,0,0,3.9432-.3266l85.5031-28.075a8.5175,8.5175,0,0,0,4.0947-13.2828ZM385.937,153.48a8.5648,8.5648,0,0,0,9.0085-1.2128l27.1361-22.6959,6.32,27.392a8.4829,8.4829,0,0,0,6.9217,6.4885l28.8247,4.7142-56.8149,46.3778H375.7891L359.17,141.1652Zm137.47,414.3579L410.5373,550.2773a8.7685,8.7685,0,0,0-2.4-.02L272.8138,567.9632,171.1551,552.15l34.13-62.2394,73.66,24.6951a8.5157,8.5157,0,0,0,5.3995-16.1529l-76.1163-25.5178-13.1971-47.2912,28.3344-54.5726,62.7021,45.9015a8.4546,8.4546,0,0,0,5.0258,1.6437,8.5148,8.5148,0,0,0,5.0313-15.3882l-67.2258-49.2124V328.3225L290.36,257.22l60.9967-19.8376-29.86,64.8683a8.5163,8.5163,0,0,0,7.73,12.0754,8.5463,8.5463,0,0,0,7.74-4.9565l35.79-77.7481h7.5912l10.4248,107.7834a8.48,8.48,0,0,0,8.4679,7.695c.2734,0,.5628-.0136.7937-.0372a8.5121,8.5121,0,0,0,7.69-9.2951L397.4576,231.6212h7.738l29.3375,56.68a8.5148,8.5148,0,1,0,15.1246-7.8265l-26.78-51.736,14.6131,9.3732q.2456.1578.5057.3011l65.5155,35.9923,10.2,73.6844-53.3343,39.1117a8.5181,8.5181,0,0,0-1.8319,11.9022,8.5172,8.5172,0,0,0,11.9067,1.8306l50.2443-36.8468L557.88,419.8624l4.28,68.4885-70.0632-13.0243a8.5169,8.5169,0,0,0-3.0724,16.7543l77.555,14.4158,28.964,37.6531Z" transform="translate(-20.0374 -20.0374)" style="fill:#272c67"/><circle cx="361.5626" cy="361.5626" r="354.0626" style="fill:none;stroke:#272c67;stroke-miterlimit:10;stroke-width:15px"/><line x1="124.2551" y1="109.005" x2="621.9994" y2="606.7493" style="fill:none;stroke:#272c67;stroke-miterlimit:10;stroke-width:15px"/></svg>