<svg id="Isolation_Mode" data-name="Isolation Mode" xmlns="http://www.w3.org/2000/svg" viewBox="0 0 107.0925 68.7477"><path d="M3304.0234,97.66a12.2617,12.2617,0,0,1-9.4558-4.338c-3.1344-3.6386-4.4188-9.0818-3.524-14.9332,1.394-9.1161,8.476-19.5936,18.8548-21.0533a17.2342,17.2342,0,0,1,2.3414-.1676q.6017-.0018,1.2145.04a27.1263,27.1263,0,0,1,.1658-6.7934l.01-.0684c1.7338-10.76,8.473-18.6851,17.5908-20.7014l.1056-.0218a17.653,17.653,0,0,1,3.1792-.3165,11.1081,11.1081,0,0,1,8.67,3.66,11.3708,11.3708,0,0,1,1.4089,2.016l33.7606-4.67-4.6829,24.6789,22.8353-3.256-5.3133,32.511L3313.22,95.0905a19.6,19.6,0,0,1-8.2989,2.5366c-.2985.0213-.6.0322-.8966.0331Z" transform="translate(-3290.5682 -29.1095)" style="fill:#fff100"/><path d="M3304.0234,97.66a12.2617,12.2617,0,0,1-9.4558-4.338c-3.1344-3.6386-4.4188-9.0818-3.524-14.9332,1.394-9.1161,8.476-19.5936,18.8548-21.0533a17.2342,17.2342,0,0,1,2.3414-.1676q.6017-.0018,1.2145.04a27.1263,27.1263,0,0,1,.1658-6.7934l.01-.0684c1.7338-10.76,8.473-18.6851,17.5908-20.7014l.1056-.0218a17.653,17.653,0,0,1,3.1792-.3165,11.1081,11.1081,0,0,1,8.67,3.66,11.3708,11.3708,0,0,1,1.4089,2.016l33.7606-4.67-4.6829,24.6789,22.8353-3.256-5.3133,32.511L3313.22,95.0905a19.6,19.6,0,0,1-8.2989,2.5366c-.2985.0213-.6.0322-.8966.0331Z" transform="translate(-3290.5682 -29.1095)" style="fill:#fff100"/><path d="M3371.7524,56.8159l4.6848-24.6882L3343.7,36.6561a10.3085,10.3085,0,0,0-1.678-2.6744,9.6151,9.6151,0,0,0-7.512-3.1385,16.076,16.076,0,0,0-2.8765.2856l-.0811.0168c-8.4889,1.8767-14.774,9.32-16.4023,19.4252l-.0083.0545a22.4929,22.4929,0,0,0,.1872,8.3729,16.2529,16.2529,0,0,0-3.0846-.2935,15.7079,15.7079,0,0,0-2.1325.1527c-9.6434,1.3564-16.2395,11.1954-17.55,19.7642-.8267,5.4067.3284,10.4,3.1693,13.6977a10.7475,10.7475,0,0,0,8.2866,3.8042h.0012c.2616-.0008.5286-.0105.794-.0294a18.0968,18.0968,0,0,0,7.895-2.4842l77.1418-10.7294,4.7936-29.3289Z" transform="translate(-3290.5682 -29.1095)" style="fill:#002169"/><polygon points="104.154 48.918 104.105 49.241 103.688 49.284 103.444 50.919 103.059 50.959 103.302 49.323 102.885 49.366 102.932 49.042 104.154 48.918" style="fill:#fff"/><polygon points="104.154 48.918 104.105 49.241 103.688 49.284 103.444 50.919 103.059 50.959 103.302 49.323 102.885 49.366 102.932 49.042 104.154 48.918" style="fill:none;stroke:#fff;stroke-linecap:round;stroke-linejoin:round;stroke-width:2.0837289003631px"/><polygon points="104.353 48.897 104.927 48.839 104.994 50.194 105 50.193 105.481 48.782 106.051 48.724 105.759 50.683 105.405 50.719 105.637 49.156 105.632 49.156 105.06 50.754 104.76 50.785 104.652 49.256 104.647 49.256 104.415 50.82 104.062 50.856 104.353 48.897" style="fill:#fff"/><polygon points="104.353 48.897 104.927 48.839 104.994 50.194 105 50.193 105.481 48.782 106.051 48.724 105.759 50.683 105.405 50.719 105.637 49.156 105.632 49.156 105.06 50.754 104.76 50.785 104.652 49.256 104.647 49.256 104.415 50.82 104.062 50.856 104.353 48.897" style="fill:none;stroke:#fff;stroke-linecap:round;stroke-linejoin:round;stroke-width:2.0837289003631px"/><polygon points="104.154 48.918 104.105 49.241 103.688 49.284 103.444 50.919 103.059 50.959 103.302 49.323 102.885 49.366 102.932 49.042 104.154 48.918" style="fill:#002169"/><polygon points="104.353 48.897 104.927 48.839 104.994 50.194 105 50.193 105.481 48.782 106.051 48.724 105.759 50.683 105.405 50.719 105.637 49.156 105.632 49.156 105.06 50.754 104.76 50.785 104.652 49.256 104.647 49.256 104.415 50.82 104.062 50.856 104.353 48.897" style="fill:#002169"/><polygon points="47.045 32.81 55.683 31.601 60.504 24.081 62.871 30.596 70.489 29.53 65.433 18.556 74.06 7.156 66.02 8.283 62.588 13.302 61.424 8.92 53.616 10.001 56.657 19.359 47.045 32.81" style="fill:#fff"/><path d="M3332.0918,33.5834c-7.3737,1.6309-13.0079,8.2725-14.476,17.3846-1.3716,9.9006,2.5246,14.3989,10.0213,13.1807,7.0323-1.3413,12.9868-7.6454,14.56-17.79,1.0417-7.8992-1.5541-14.37-10.1057-12.7755m-1.1644,7.6141c3.2815-.6561,3.8474,2.92,3.3153,6.7115-.6747,4.6122-2.3516,8.0485-5.4956,8.6822-3.5131.5473-3.6752-3.4994-3.18-7.0261.5162-3.49,2.09-7.6093,5.36-8.3676" transform="translate(-3290.5682 -29.1095)" style="fill:#fff"/><path d="M3334.7957,67.0855c-.1563,1.3689-2.7574,17.57-3.3735,21.4009L3345.057,86.59l2.4036-5.7052a6.5776,6.5776,0,0,1-3.1867,1.2543c-1.213.1679-4.391.6085-5.2385.7252l.879-5.5056c1.0483-.1473,2.261-.3179,2.9019-.4083a2.9014,2.9014,0,0,1,2.0716.4373l.8789-5.5368-5.088.7217.6824-4.2741c.7879-.1108,3.5144-.4947,4.5992-.6476a2.9,2.9,0,0,1,2.0712.4376l.8718-5.4925-14.7,2.096a3.2853,3.2853,0,0,1,.5918,2.3935" transform="translate(-3290.5682 -29.1095)" style="fill:#fff"/><path d="M3365.7749,38.7543,3362.3438,58.46l6.7335-.9415,4.26-22.4456-8.01,1.0985a2.8605,2.8605,0,0,1,.4484,2.5829" transform="translate(-3290.5682 -29.1095)" style="fill:#fff"/><path d="M3369.8691,62.4438l-3.2929,21.1529,6.282-.8737,2.3326-14.9628,5.45,13.88,7.0426-.98,3.9485-24.1568-8.2084,1.17A3.4459,3.4459,0,0,1,3384.01,60.1c-.159,1.0016-1.05,6.5019-1.5187,9.3969l-4.357-11.0685-8.8167,1.257a3.3378,3.3378,0,0,1,.5515,2.7585" transform="translate(-3290.5682 -29.1095)" style="fill:#fff"/><path d="M3363.4421,60.5229l-8.1527,1.1623a2.7012,2.7012,0,0,1,.2851,2.7364c-2.043,5.1543-8.0544,20.0041-8.8359,21.9339l5.4417-.7566,1.76-4.7984,5.6786-.7862.4317,4.49,6.75-.9386Zm-7.9533,15.8712,2.8268-7.8006.9176,7.2737Z" transform="translate(-3290.5682 -29.1095)" style="fill:#fff"/><path d="M3328.1011,84.3886c-1.2131.1682-4.3911.6081-5.2386.7256l3.0816-19.3012-7.9131,1.1285a3.2848,3.2848,0,0,1,.5918,2.3931c-.1563,1.3693-2.7574,17.57-3.3731,21.4012l13.634-1.8964,2.4036-5.7047a6.5813,6.5813,0,0,1-3.1862,1.2539" transform="translate(-3290.5682 -29.1095)" style="fill:#fff"/><path d="M3313.7264,83.3464c-8.59,7.0823-10.2052-.63-9.4531-5.2066,1.2433-7.5663,6.9664-12.298,11.5177-8.141l1.2328-7.9708a13.913,13.913,0,0,0-6.5635-.6978c-8.1378,1.1446-14.2078,9.6807-15.429,17.6688-1.3153,8.598,3.028,15.0654,9.6074,14.6041a15.4163,15.4163,0,0,0,7.951-2.907Z" transform="translate(-3290.5682 -29.1095)" style="fill:#fff"/><path d="M3333.3183,54.0881a14.83,14.83,0,0,0,2.2687-6.4143c.4683-3.3342-.0919-6.1591-2.3706-6.7213a5.0871,5.0871,0,0,0-2.3027.2492l.0138-.0042c3.2814-.6561,3.8474,2.9207,3.3153,6.7114-.6747,4.6122-2.3516,8.0485-5.4956,8.6822a3.899,3.899,0,0,1-.68.0471c2.2793.7389,4.6741-1.7453,5.251-2.55" transform="translate(-3290.5682 -29.1095)" style="fill:#fff100"/><path d="M3318.96,50.733c1.4444-8.9634,6.9209-15.5326,14.1175-17.297-.32.0382-.6467.0846-.9857.1475-7.3737,1.63-13.0079,8.2724-14.476,17.3846-1.3716,9.9006,2.5246,14.3989,10.0213,13.1806q.32-.0615.6365-.1364c-7.0327.8265-10.6412-3.695-9.3136-13.2793" transform="translate(-3290.5682 -29.1095)" style="fill:#fff100"/><polygon points="48.501 32.606 57.846 19.537 54.679 9.854 53.616 10.001 56.657 19.359 47.045 32.81 48.501 32.606" style="fill:#fff100"/><polygon points="62.898 14.468 67.213 8.116 66.02 8.283 62.588 13.302 62.898 14.468" style="fill:#fff100"/><polygon points="61.241 22.932 60.504 24.081 62.871 30.596 63.963 30.443 61.241 22.932" style="fill:#fff100"/><path d="M3362.3439,58.46l1.1785-.1647,3.43-19.7a3.0437,3.0437,0,0,0-.4384-2.5868l-1.1877.1628a2.86,2.86,0,0,1,.4487,2.5829Z" transform="translate(-3290.5682 -29.1095)" style="fill:#fff100"/><path d="M3296.2871,78.8991c1.2212-7.9881,7.2916-16.5242,15.429-17.6688.0541-.0075.1091-.0111.1632-.0182a13.2808,13.2808,0,0,0-1.4191.1178c-8.1374,1.1446-14.2079,9.6811-15.4291,17.6692-1.3149,8.598,3.0281,15.065,9.6079,14.6041.2815-.02.5561-.049.8272-.0837-6.3376.1559-10.4655-6.2107-9.1791-14.62" transform="translate(-3290.5682 -29.1095)" style="fill:#fff100"/><path d="M3384.01,60.1c-.159,1.0013-1.05,6.502-1.5188,9.397l.7861,1.9972c.4685-2.8955,1.7127-10.53,1.8717-11.5314a3.718,3.718,0,0,0-.5694-2.4535l-1.1566.165a3.4481,3.4481,0,0,1,.587,2.4257" transform="translate(-3290.5682 -29.1095)" style="fill:#fff100"/><path d="M3377.1325,69.6682c-.7-1.8779-1.9418-1.9079-1.9418-1.9079l5.45,13.88,1.1312-.1572Z" transform="translate(-3290.5682 -29.1095)" style="fill:#fff100"/><path d="M3369.3176,59.6853a3.3379,3.3379,0,0,1,.5515,2.7586l-3.2929,21.1528,1.1424-.1588,3.2891-21.1313a3.6559,3.6559,0,0,0-.5546-2.7831Z" transform="translate(-3290.5682 -29.1095)" style="fill:#fff100"/><path d="M3359.2332,75.8673l1.09-.1528s-.6782-5.1754-.816-6.4689a3.0617,3.0617,0,0,1,.249-1.7284,1.6169,1.6169,0,0,0-1.4408,1.0764Z" transform="translate(-3290.5682 -29.1095)" style="fill:#fff100"/><polygon points="70.18 50.748 69.05 50.905 69.482 55.395 70.613 55.237 70.18 50.748" style="fill:#fff100"/><path d="M3346.7385,86.3556l1.15-.1595c.8329-2.056,6.7891-16.77,8.8214-21.8974a3.0709,3.0709,0,0,0-.2719-2.7771l-1.1485.1638a2.7017,2.7017,0,0,1,.2856,2.7363c-2.0434,5.1543-8.0545,20.0037-8.8363,21.9339" transform="translate(-3290.5682 -29.1095)" style="fill:#fff100"/><path d="M3335.376,64.5284l-1.172.1635a3.285,3.285,0,0,1,.5918,2.3934c-.1563,1.3689-2.7574,17.57-3.3735,21.4009l1.172-.1631c.6161-3.831,3.2172-20.032,3.3735-21.4013a3.287,3.287,0,0,0-.5918-2.3934" transform="translate(-3290.5682 -29.1095)" style="fill:#fff100"/><path d="M3319.203,66.778l-1.172.1635a3.2844,3.2844,0,0,1,.5918,2.393c-.1563,1.3693-2.7574,17.57-3.3731,21.4013l1.1716-.1635c.6161-3.831,3.2172-20.0316,3.3735-21.4009a3.2857,3.2857,0,0,0-.5918-2.3934" transform="translate(-3290.5682 -29.1095)" style="fill:#fff100"/><path d="M3304.0234,97.66a12.2617,12.2617,0,0,1-9.4558-4.338c-3.1344-3.6386-4.4188-9.0818-3.524-14.9332,1.394-9.1161,8.476-19.5936,18.8548-21.0533a17.2342,17.2342,0,0,1,2.3414-.1676q.6017-.0018,1.2145.04a27.1263,27.1263,0,0,1,.1658-6.7934l.01-.0684c1.7338-10.76,8.473-18.6851,17.5908-20.7014l.1056-.0218a17.653,17.653,0,0,1,3.1792-.3165,11.1081,11.1081,0,0,1,8.67,3.66,11.3708,11.3708,0,0,1,1.4089,2.016l33.7606-4.67-4.6829,24.6789,22.8353-3.256-5.3133,32.511L3313.22,95.0905a19.6,19.6,0,0,1-8.2989,2.5366c-.2985.0213-.6.0322-.8966.0331Z" transform="translate(-3290.5682 -29.1095)" style="fill:none;stroke:#fff200;stroke-miterlimit:10;stroke-width:0.393877259821784px"/><path d="M3371.7524,56.8159l4.6848-24.6882L3343.7,36.6561a10.3085,10.3085,0,0,0-1.678-2.6744,9.6151,9.6151,0,0,0-7.512-3.1385,16.076,16.076,0,0,0-2.8765.2856l-.0811.0168c-8.4889,1.8767-14.774,9.32-16.4023,19.4252l-.0083.0545a22.4929,22.4929,0,0,0,.1872,8.3729,16.2529,16.2529,0,0,0-3.0846-.2935,15.7079,15.7079,0,0,0-2.1325.1527c-9.6434,1.3564-16.2395,11.1954-17.55,19.7642-.8267,5.4067.3284,10.4,3.1693,13.6977a10.7475,10.7475,0,0,0,8.2866,3.8042h.0012c.2616-.0008.5286-.0105.794-.0294a18.0968,18.0968,0,0,0,7.895-2.4842l77.1418-10.7294,4.7936-29.3289Z" transform="translate(-3290.5682 -29.1095)" style="fill:none;stroke:#002169;stroke-miterlimit:10;stroke-width:0.393877259821784px"/></svg>